<svg xmlns="http://www.w3.org/2000/svg" xmlns:xlink="http://www.w3.org/1999/xlink" width="820" height="600" viewBox="0 0 820 600">
  <defs>
    <clipPath id="clip-path">
      <rect id="Rectángulo_297085" data-name="Rectángulo 297085" width="49.838" height="70.487" fill="none"/>
    </clipPath>
  </defs>
  <g id="Grupo_151022" data-name="Grupo 151022" transform="translate(-390 -1853)">
    <path id="Trazado_202859" data-name="Trazado 202859" d="M10,0H810a10,10,0,0,1,10,10V590a10,10,0,0,1-10,10H10A10,10,0,0,1,0,590V10A10,10,0,0,1,10,0Z" transform="translate(390 1853)" fill="#f3f9ff"/>
    <path id="Trazado_201246" data-name="Trazado 201246" d="M185.147,358c65.7,34.324,172.23,34.325,237.932,0s65.7-89.975,0-124.3-172.23-34.325-237.933,0-65.7,89.974,0,124.3" transform="translate(478.216 1918.922)" fill="#fbaed1"/>
    <path id="Trazado_201247" data-name="Trazado 201247" d="M371.5,357.855c-9.393,4.476-24.621,4.476-34.015,0s-9.392-11.735,0-16.212,24.622-4.477,34.015,0,9.393,11.735,0,16.212" transform="translate(482.821 1922.007)" fill="#f977b2"/>
    <path id="Trazado_201248" data-name="Trazado 201248" d="M170.2,157.091v39.472c0,1.3.913,1.828,2.039,1.178l91.578-52.872a4.508,4.508,0,0,0,2.039-3.533V101.864c0-1.3-.913-1.828-2.039-1.178l-91.578,52.872a4.511,4.511,0,0,0-2.039,3.533" transform="translate(479.028 1916.377)" fill="#f9860b"/>
    <path id="Trazado_201249" data-name="Trazado 201249" d="M176.489,155.577l27.44-15.842c1.255-.725,2.273-.137,2.273,1.312v27.582a5.025,5.025,0,0,1-2.273,3.937l-27.44,15.843c-1.256.725-2.274.137-2.275-1.312V159.514a5.021,5.021,0,0,1,2.275-3.937" transform="translate(479.123 1917.3)" fill="#fafafa"/>
    <path id="Trazado_201250" data-name="Trazado 201250" d="M198.709,153.2l-8.159,16.922-4.157-2.4a1.751,1.751,0,0,0-2.391.64l-9.787,16.952v1.48c0,1.45,1.018,2.037,2.274,1.312l27.44-15.843a5.027,5.027,0,0,0,2.273-3.935v-9.689l-5.521-5.752a1.135,1.135,0,0,0-1.972.313" transform="translate(479.123 1917.607)" fill="#75cdd6"/>
    <path id="Trazado_201251" data-name="Trazado 201251" d="M178.334,165.379a12.879,12.879,0,0,0,5.828-10.092,4.278,4.278,0,0,0-1.45-3.594l-6.225,3.594a5.025,5.025,0,0,0-2.273,3.937v6.564c1.054.608,2.511.521,4.119-.408" transform="translate(479.123 1917.59)" fill="#75cdd6"/>
    <path id="Trazado_201252" data-name="Trazado 201252" d="M215.51,135.74l41.24-23.811c.939-.542,1.7-.157,1.7.86a3.647,3.647,0,0,1-1.7,2.822l-41.242,23.811c-.939.542-1.7.157-1.7-.86a3.645,3.645,0,0,1,1.7-2.822" transform="translate(480.061 1916.644)" fill="#fafafa"/>
    <path id="Trazado_201253" data-name="Trazado 201253" d="M215.51,143.7l41.24-23.811c.939-.542,1.7-.157,1.7.86a3.647,3.647,0,0,1-1.7,2.822l-41.242,23.811c-.939.543-1.7.157-1.7-.86a3.645,3.645,0,0,1,1.7-2.822" transform="translate(480.061 1916.832)" fill="#fafafa"/>
    <path id="Trazado_201254" data-name="Trazado 201254" d="M215.51,151.662l41.24-23.811c.939-.542,1.7-.157,1.7.86a3.643,3.643,0,0,1-1.7,2.821l-41.242,23.812c-.939.542-1.7.157-1.7-.86a3.645,3.645,0,0,1,1.7-2.822" transform="translate(480.061 1917.021)" fill="#fafafa"/>
    <path id="Trazado_201255" data-name="Trazado 201255" d="M215.51,159.623l41.24-23.811c.939-.542,1.7-.157,1.7.86a3.645,3.645,0,0,1-1.7,2.822l-41.24,23.811c-.939.543-1.7.158-1.7-.86a3.645,3.645,0,0,1,1.7-2.822" transform="translate(480.061 1917.209)" fill="#fafafa"/>
    <path id="Trazado_201256" data-name="Trazado 201256" d="M151.514,279.4V221.517a4.511,4.511,0,0,1,2.039-3.533L222.81,178c1.127-.65,2.04-.123,2.04,1.177v57.881a4.509,4.509,0,0,1-2.04,3.533l-69.257,39.986c-1.126.651-2.039.124-2.039-1.177" transform="translate(478.586 1918.206)" fill="#f64193"/>
    <path id="Trazado_201257" data-name="Trazado 201257" d="M151.514,275.195v2.9c0,1.3.913,1.828,2.039,1.177l69.257-39.985a4.512,4.512,0,0,0,2.04-3.533v-2.9Z" transform="translate(478.586 1919.511)" fill="#455a64"/>
    <path id="Trazado_201258" data-name="Trazado 201258" d="M184.283,222.948l7.047-.371c.866-.045,1.1.446.531,1.1l-8.111,9.223c-.572.651-1.036.476-1.036-.391V224.6a1.674,1.674,0,0,1,1.568-1.653" transform="translate(479.324 1919.268)" fill="#fff"/>
    <path id="Trazado_201259" data-name="Trazado 201259" d="M182.593,238.138a4.776,4.776,0,0,1-2.417-.622c-1.742-1.005-2.7-3.1-2.7-5.907,0-5.665,3.992-12.579,8.9-15.411,2.428-1.4,4.724-1.618,6.467-.614s2.7,3.1,2.7,5.907c0,5.665-3.992,12.579-8.9,15.411a8.224,8.224,0,0,1-4.049,1.237M190.42,215.5a7.7,7.7,0,0,0-3.777,1.164c-4.758,2.748-8.628,9.45-8.628,14.945,0,2.6.864,4.534,2.431,5.439s3.674.689,5.927-.614c4.757-2.746,8.627-9.449,8.627-14.943,0-2.6-.863-4.534-2.431-5.439a4.229,4.229,0,0,0-2.149-.551" transform="translate(479.2 1919.088)" fill="#fff"/>
    <path id="Trazado_201260" data-name="Trazado 201260" d="M155.793,168.04l-4.294-2.467h0c-2.049-1.371-4.9-1.312-8.043.5-6.243,3.6-11.3,12.756-11.3,20.441v1.748c0,7.685,10.331,16.035,10.331,16.035l4.225,2.39s-2.538-2.894-2.249-3.488c2.768-5.678,10.3-21.716,10.3-27.99v-1.748a13.655,13.655,0,0,0-.483-3.752l.484.278Zm-12.338,17.617c-3.121,1.8-5.652.341-5.652-3.263,1.68-.264,5.9-7.476,5.652-9.789,3.121-1.8,5.652-.341,5.652,3.263a12.494,12.494,0,0,1-5.652,9.789" transform="translate(478.128 1917.896)" fill="#27debf"/>
    <path id="Trazado_201261" data-name="Trazado 201261" d="M155.793,168.04l-4.294-2.467h0c-2.049-1.371-4.9-1.312-8.043.5-6.243,3.6-11.3,12.756-11.3,20.441v1.748c0,7.685,10.331,16.035,10.331,16.035l4.225,2.39s-2.538-2.894-2.249-3.488c2.768-5.678,10.3-21.716,10.3-27.99v-1.748a13.655,13.655,0,0,0-.483-3.752l.484.278Zm-12.338,17.617c-3.121,1.8-5.652.341-5.652-3.263,1.68-.264,5.9-7.476,5.652-9.789,3.121-1.8,5.652-.341,5.652,3.263a12.494,12.494,0,0,1-5.652,9.789" transform="translate(478.128 1917.896)" fill="#f40b74"/>
    <path id="Trazado_201262" data-name="Trazado 201262" d="M155.689,167.981c-.05-.032-.1-.062-.149-.088-2.018-1.127-4.712-.977-7.668.734-4.473,2.587-8.339,8.012-10.169,13.707,0,.006-.006.013-.006.019a22.29,22.29,0,0,0-1.127,6.716v1.747c0,5.921,6.7,12.787,9.785,15.631a1.352,1.352,0,0,0,.213.163c.007.006.019.012.026.018a1.521,1.521,0,0,0,2.162-.633c2.663-5.45,10.418-21.865,10.418-28.23v-1.755c0-3.947-1.334-6.741-3.484-8.032m-13.369,18.1a5.9,5.9,0,0,1-.1-1.134,12.5,12.5,0,0,1,5.652-9.792,6.718,6.718,0,0,1,1.027-.488c2.632-.958,4.624.558,4.624,3.753a12.49,12.49,0,0,1-5.651,9.786c-2.769,1.6-5.075.633-5.551-2.124" transform="translate(478.232 1917.957)" fill="#fbaed1"/>
    <path id="Trazado_201263" data-name="Trazado 201263" d="M153.389,178.252a12.49,12.49,0,0,1-5.651,9.786c-2.769,1.6-5.075.633-5.551-2.124a6.617,6.617,0,0,0,1.028-.482,12.491,12.491,0,0,0,5.651-9.792,5.89,5.89,0,0,0-.1-1.14c2.632-.958,4.624.558,4.624,3.753" transform="translate(478.365 1918.123)" fill="#27debf"/>
    <path id="Trazado_201264" data-name="Trazado 201264" d="M153.389,178.252a12.49,12.49,0,0,1-5.651,9.786c-2.769,1.6-5.075.633-5.551-2.124a6.617,6.617,0,0,0,1.028-.482,12.491,12.491,0,0,0,5.651-9.792,5.89,5.89,0,0,0-.1-1.14c2.632-.958,4.624.558,4.624,3.753" transform="translate(478.365 1918.123)" fill="#f40b74"/>
    <path id="Trazado_201265" data-name="Trazado 201265" d="M234.2,274.4s2.827-18-3.455-33.547-14.772-16.487-19.161-14.269-1.542,10.812,2.388,16.592c5.15,7.577,13.841,23.911,13.527,38.57Z" transform="translate(479.955 1919.342)" fill="#27debf"/>
    <path id="Trazado_201266" data-name="Trazado 201266" d="M234.2,274.4s2.827-18-3.455-33.547-14.772-16.487-19.161-14.269-1.542,10.812,2.388,16.592c5.15,7.577,13.841,23.911,13.527,38.57Z" transform="translate(479.955 1919.342)" fill="#3eb9c6"/>
    <path id="Trazado_201267" data-name="Trazado 201267" d="M231.261,275.506h-.023a.533.533,0,0,1-.511-.555c1.04-24.695-11.3-43.176-16.62-46.724a.533.533,0,1,1,.592-.888c6.276,4.184,18.131,23.037,17.094,47.656a.532.532,0,0,1-.532.511" transform="translate(480.062 1919.379)" fill="#fff"/>
    <path id="Trazado_201268" data-name="Trazado 201268" d="M233.373,295.462c-1.072-2.7-3.844-5.709-11.01-8.927s-12.49-7.5-13.482-10.608a4.633,4.633,0,0,1,1.269-4.945s-6.722-.787-7.568-4.9c-1.065-5.187,4.81-5.528,4.81-5.528s-7.706-10.856-9.757-15.718.318-5.115,5.286-3.277,14.448,11.124,15.915,13.955c0,0,2.561-3.164,5.32-1.08s2.9,8.239,1.265,10.462a5.787,5.787,0,0,1,5.829,2.412c2.807,3.678,3.73,12.874,3.73,12.874Z" transform="translate(479.66 1919.692)" fill="#3eb9c6"/>
    <path id="Trazado_201269" data-name="Trazado 201269" d="M233.809,292.909a.533.533,0,0,1-.518-.408c-3.815-15.876-21.906-41.225-33.145-49.287a.533.533,0,1,1,.621-.867c11.379,8.163,29.7,33.829,33.561,49.9a.534.534,0,0,1-.394.644.584.584,0,0,1-.125.014" transform="translate(479.732 1919.733)" fill="#fff"/>
    <path id="Trazado_201270" data-name="Trazado 201270" d="M371.752,135.584a.525.525,0,0,1-.266-.072l-2.2-1.273a.533.533,0,0,1,.532-.923l2.205,1.273a.533.533,0,0,1-.267,1" transform="translate(483.734 1917.153)" fill="#fff"/>
    <path id="Trazado_201271" data-name="Trazado 201271" d="M232.53,182.854V299.529c0,1.3.912,1.826,2.037,1.176l136.084-78.568a4.5,4.5,0,0,0,2.037-3.529V101.934c0-1.3-.912-1.826-2.037-1.176L234.567,179.325a4.5,4.5,0,0,0-2.037,3.529" transform="translate(480.503 1916.378)" fill="#455a64"/>
    <path id="Trazado_201272" data-name="Trazado 201272" d="M248.089,203.707c0,4.063,3.04,5.6,6.791,3.435l107.883-62.286V130.143L254.88,192.429c-3.751,2.166-6.791,7.215-6.791,11.278" transform="translate(480.872 1917.08)" fill="#f5f5f5"/>
    <path id="Trazado_201273" data-name="Trazado 201273" d="M369.247,125.014c3.751-2.165,6.791-.628,6.791,3.435s-3.04,9.112-6.791,11.278L360.112,145V130.289Z" transform="translate(483.523 1916.936)" fill="#27debf"/>
    <path id="Trazado_201274" data-name="Trazado 201274" d="M365.91,137.325a2.206,2.206,0,0,1-1.115-.29,2.8,2.8,0,0,1-1.223-2.576,7.7,7.7,0,0,1,3.531-6.115,2.509,2.509,0,0,1,4.064,2.346,7.7,7.7,0,0,1-3.531,6.115,3.492,3.492,0,0,1-1.726.519m2.914-8.433a2.443,2.443,0,0,0-1.188.376,6.738,6.738,0,0,0-3,5.192,1.476,1.476,0,0,0,2.465,1.423,6.739,6.739,0,0,0,3-5.192,1.8,1.8,0,0,0-.689-1.651,1.161,1.161,0,0,0-.587-.147" transform="translate(483.605 1917.025)" fill="#fff"/>
    <path id="Trazado_201275" data-name="Trazado 201275" d="M373.026,156.45,268.8,216.628a4.5,4.5,0,0,0-2.038,3.528v32.078c0,1.3.912,1.825,2.038,1.176l104.229-60.176a4.5,4.5,0,0,0,2.037-3.528V157.628c0-1.3-.912-1.825-2.037-1.177" transform="translate(481.313 1917.696)" fill="#27debf"/>
    <path id="Trazado_201276" data-name="Trazado 201276" d="M373.026,156.45,268.8,216.628a4.5,4.5,0,0,0-2.038,3.528v32.078c0,1.3.912,1.825,2.038,1.176l104.229-60.176a4.5,4.5,0,0,0,2.037-3.528V157.628c0-1.3-.912-1.825-2.037-1.177" transform="translate(481.313 1917.696)" fill="#f9860b"/>
    <path id="Trazado_201277" data-name="Trazado 201277" d="M305.8,199.332l18.9-10.913c.938-.542,1.7-.157,1.7.859a3.64,3.64,0,0,1-1.7,2.819L305.8,203.01c-.938.542-1.7.157-1.7-.859a3.641,3.641,0,0,1,1.7-2.819" transform="translate(482.197 1918.453)" fill="#fff"/>
    <path id="Trazado_201278" data-name="Trazado 201278" d="M304.1,209.847c0,1.015.76,1.4,1.7.859l57.127-32.983a3.639,3.639,0,0,0,1.7-2.819c0-1.015-.76-1.4-1.7-.859L305.8,207.028a3.639,3.639,0,0,0-1.7,2.819" transform="translate(482.197 1918.113)" fill="#fff"/>
    <path id="Trazado_201279" data-name="Trazado 201279" d="M304.1,217.033c0,1.015.76,1.4,1.7.859l57.127-32.983a3.64,3.64,0,0,0,1.7-2.819c0-1.015-.76-1.4-1.7-.859L305.8,214.214a3.639,3.639,0,0,0-1.7,2.819" transform="translate(482.197 1918.283)" fill="#fff"/>
    <path id="Trazado_201280" data-name="Trazado 201280" d="M304.1,224.218c0,1.015.76,1.4,1.7.859l57.127-32.983a3.64,3.64,0,0,0,1.7-2.819c0-1.015-.76-1.4-1.7-.859L305.8,221.4a3.64,3.64,0,0,0-1.7,2.82" transform="translate(482.197 1918.453)" fill="#fff"/>
    <path id="Trazado_201281" data-name="Trazado 201281" d="M271.909,217.362l24.594-14.2c1.126-.65,2.038-.123,2.038,1.176v24.721a4.5,4.5,0,0,1-2.038,3.529l-24.594,14.2c-1.125.65-2.037.123-2.037-1.176V220.89a4.5,4.5,0,0,1,2.037-3.529" transform="translate(481.387 1918.802)" fill="#fff"/>
    <path id="Trazado_201282" data-name="Trazado 201282" d="M291.825,215.227l-7.312,15.167-3.726-2.152a1.568,1.568,0,0,0-2.143.574l-8.773,15.192v1.327c0,1.3.912,1.826,2.038,1.176l24.593-14.2a4.5,4.5,0,0,0,2.037-3.527V220.1l-4.947-5.155a1.017,1.017,0,0,0-1.767.281" transform="translate(481.387 1919.078)" fill="#75cdd6"/>
    <path id="Trazado_201283" data-name="Trazado 201283" d="M273.563,226.147a11.542,11.542,0,0,0,5.223-9.045,3.831,3.831,0,0,0-1.3-3.221l-5.579,3.22a4.5,4.5,0,0,0-2.037,3.53v5.883a3.673,3.673,0,0,0,3.692-.366" transform="translate(481.387 1919.063)" fill="#75cdd6"/>
    <path id="Trazado_201284" data-name="Trazado 201284" d="M373.026,203.162,268.8,263.339a4.5,4.5,0,0,0-2.038,3.529v32.078c0,1.3.912,1.825,2.038,1.176l104.229-60.177a4.5,4.5,0,0,0,2.037-3.529V204.339c0-1.3-.912-1.826-2.037-1.176" transform="translate(481.313 1918.802)" fill="#27debf"/>
    <path id="Trazado_201285" data-name="Trazado 201285" d="M373.026,203.162,268.8,263.339a4.5,4.5,0,0,0-2.038,3.529v32.078c0,1.3.912,1.825,2.038,1.176l104.229-60.177a4.5,4.5,0,0,0,2.037-3.529V204.339c0-1.3-.912-1.826-2.037-1.176" transform="translate(481.313 1918.802)" fill="#f9860b"/>
    <path id="Trazado_201286" data-name="Trazado 201286" d="M305.8,246.043l18.9-10.912c.938-.542,1.7-.158,1.7.858a3.641,3.641,0,0,1-1.7,2.82l-18.9,10.912c-.938.542-1.7.158-1.7-.858a3.642,3.642,0,0,1,1.7-2.82" transform="translate(482.197 1919.56)" fill="#fff"/>
    <path id="Trazado_201287" data-name="Trazado 201287" d="M304.1,256.559c0,1.015.76,1.4,1.7.859l57.127-32.983a3.64,3.64,0,0,0,1.7-2.819c0-1.015-.76-1.4-1.7-.859L305.8,253.739a3.639,3.639,0,0,0-1.7,2.82" transform="translate(482.197 1919.219)" fill="#fff"/>
    <path id="Trazado_201288" data-name="Trazado 201288" d="M304.1,263.744c0,1.015.76,1.4,1.7.859l57.127-32.983a3.64,3.64,0,0,0,1.7-2.819c0-1.015-.76-1.4-1.7-.859L305.8,260.924a3.64,3.64,0,0,0-1.7,2.82" transform="translate(482.197 1919.389)" fill="#fff"/>
    <path id="Trazado_201289" data-name="Trazado 201289" d="M304.1,270.929c0,1.015.76,1.4,1.7.859l57.127-32.983a3.64,3.64,0,0,0,1.7-2.819c0-1.015-.76-1.4-1.7-.859L305.8,268.109a3.641,3.641,0,0,0-1.7,2.82" transform="translate(482.197 1919.56)" fill="#fff"/>
    <path id="Trazado_201290" data-name="Trazado 201290" d="M271.909,264.072l24.594-14.2c1.126-.649,2.038-.123,2.038,1.177v24.72a4.5,4.5,0,0,1-2.038,3.53l-24.594,14.2c-1.125.649-2.037.123-2.037-1.176V267.6a4.506,4.506,0,0,1,2.037-3.529" transform="translate(481.387 1919.907)" fill="#fff"/>
    <path id="Trazado_201291" data-name="Trazado 201291" d="M291.825,261.938,284.513,277.1l-3.726-2.152a1.568,1.568,0,0,0-2.143.574l-8.773,15.192v1.327c0,1.3.912,1.826,2.038,1.177l24.593-14.2a4.5,4.5,0,0,0,2.037-3.527v-8.684l-4.947-5.156a1.017,1.017,0,0,0-1.767.281" transform="translate(481.387 1920.184)" fill="#75cdd6"/>
    <path id="Trazado_201292" data-name="Trazado 201292" d="M273.563,272.858a11.54,11.54,0,0,0,5.223-9.045,3.832,3.832,0,0,0-1.3-3.221l-5.579,3.22a4.508,4.508,0,0,0-2.037,3.53v5.883a3.673,3.673,0,0,0,3.692-.366" transform="translate(481.387 1920.168)" fill="#75cdd6"/>
    <path id="Trazado_201293" data-name="Trazado 201293" d="M372.689,106.937v-5c0-1.3-.912-1.826-2.038-1.176L234.568,179.325a4.5,4.5,0,0,0-2.038,3.529v5Z" transform="translate(480.503 1916.378)" fill="#f64193"/>
    <path id="Trazado_201294" data-name="Trazado 201294" d="M353.179,110.9a3.341,3.341,0,0,0-1.511,2.618c0,.963.677,1.354,1.511.872a3.34,3.34,0,0,0,1.511-2.618c0-.963-.677-1.354-1.511-.872" transform="translate(483.323 1916.62)" fill="#f5f5f5"/>
    <path id="Trazado_201295" data-name="Trazado 201295" d="M359.036,107.514a3.344,3.344,0,0,0-1.511,2.618c0,.964.677,1.354,1.511.873a3.342,3.342,0,0,0,1.511-2.618c0-.963-.677-1.354-1.511-.873" transform="translate(483.462 1916.54)" fill="#f5f5f5"/>
    <path id="Trazado_201296" data-name="Trazado 201296" d="M364.895,104.133a3.342,3.342,0,0,0-1.512,2.618c0,.963.678,1.354,1.512.872A3.341,3.341,0,0,0,366.406,105c0-.963-.677-1.354-1.511-.872" transform="translate(483.601 1916.46)" fill="#f5f5f5"/>
    <path id="Trazado_201297" data-name="Trazado 201297" d="M371.943,344.51a7.851,7.851,0,0,1,.481,1.874,2.68,2.68,0,0,1-2.178,3.881,5.209,5.209,0,0,1-4.1-.8c-1.429-.854-2.507-1.892-4.542-2.471a10.347,10.347,0,0,1-4.017-1.823c-1.128-.906-2.635-3.41-.477-3.989,2.177-.585,6.854,1.467,11.124,1.653Z" transform="translate(483.426 1922.072)" fill="#263238"/>
    <path id="Trazado_201298" data-name="Trazado 201298" d="M371.489,341.673s.254,3,.254,3.359c0,1.014-3.732,2.368-4.426,0l-.593-3.183Z" transform="translate(483.68 1922.087)" fill="#ff9090"/>
    <path id="Trazado_201299" data-name="Trazado 201299" d="M367.133,277.466a61.147,61.147,0,0,1,3.521,5.866s.368,4.363.368,7.263c0,5.334-.829,9.454-1.587,19.958a14.859,14.859,0,0,1,2.025,6.791c.316,4.759.319,4.728.351,26.661a6.089,6.089,0,0,1-4.671.457l-7.082-30.749-.771-12.067-2.211-15Z" transform="translate(483.451 1920.567)" fill="#206897"/>
    <path id="Trazado_201300" data-name="Trazado 201300" d="M350.969,349.841c.254.263.168.755.282,1.647a7.085,7.085,0,0,1,.1,2.016,4.1,4.1,0,0,1-2.083,2.094,5.206,5.206,0,0,1-4.171-.277c-1.524-.668-2.723-1.565-4.815-1.887a10.343,10.343,0,0,1-4.212-1.309c-1.233-.759-3.039-3.056-.969-3.9,2.087-.85,7.256.683,11.515.336Z" transform="translate(482.909 1922.235)" fill="#263238"/>
    <path id="Trazado_201301" data-name="Trazado 201301" d="M351.668,346.141s-.8,3.417-1,4.179c-.468,1.83-4.526,1.923-4.526-.188l.272-4.858Z" transform="translate(483.192 1922.172)" fill="#ff9090"/>
    <path id="Trazado_201302" data-name="Trazado 201302" d="M358.232,278.344c2.033,3.984,3.992,7.511,4.06,11.768.143,8.991-3.587,18.9-4.959,25.4a28.888,28.888,0,0,1,.341,7.132c-.272,2.716-6.476,27.431-6.476,27.431s-3.448.718-4.919-.838l1.747-47.607L348.5,287.8Z" transform="translate(483.196 1920.588)" fill="#206897"/>
    <path id="Trazado_201303" data-name="Trazado 201303" d="M355.229,254.6l1.285,7.077,6.393-.467-1.342-8.022Z" transform="translate(483.408 1919.992)" fill="#ffaaa9"/>
    <path id="Trazado_201304" data-name="Trazado 201304" d="M369.818,260.6c-.634-1.923-3.074-4.018-5.517-3.564a72.067,72.067,0,0,0-10.7,2.672c-2.236.8-4.273,2.731-4.458,10.087l-.7,18.507a8.017,8.017,0,0,0,3.376,1.787,18.507,18.507,0,0,0,10.8.361c6.72-1.468,8.32-5.536,8.32-5.536s-.259-9.792-.461-15.12c-.171-4.525-.231-7.873-.665-9.195" transform="translate(483.247 1920.082)" fill="#f9860b"/>
    <path id="Trazado_201305" data-name="Trazado 201305" d="M353.386,245.936l-32.58-8.84c-2.946-.5-4.179,6.687-1.232,7.191l33.492,3.384Z" transform="translate(482.523 1919.611)" fill="#263238"/>
    <path id="Trazado_201306" data-name="Trazado 201306" d="M343.74,260.8l-6.66.2s1.006-9.907,1.624-11.2,2.1-1.566,3.574-1.988,1.473-1.12,1.473-1.12l-1.328-.134a1.729,1.729,0,0,1-1.119-2.546c.236-.458.63-1.175,1.336-.984l1.758.477a4.093,4.093,0,0,0-.557-2.206c-.586-.651-.983-.451-2.153-.857a6.152,6.152,0,0,0-4.089-.256c-1.438.591-2.528,3.282-2.89,5.186a32.068,32.068,0,0,1-1.8,6.436c-1.282,3.533-3.16,10.775-3.337,13.683-.081,1.339.043,2.134,1.533,2.491s12.448.377,12.448.377Z" transform="translate(482.8 1919.679)" fill="#ffaaa9"/>
    <path id="Trazado_201307" data-name="Trazado 201307" d="M350.638,246.372s-1.548,2.292-1.351,2.538a3.657,3.657,0,0,0,1.164.515Z" transform="translate(483.267 1919.831)" fill="#ffaaa9"/>
    <path id="Trazado_201308" data-name="Trazado 201308" d="M355.344,239.289c-1.49.752-4.066,2.144-4.777,7.6-.73,5.6.231,7.407.988,8.149.512.5,3.292.531,4.685.113,1.743-.523,5.675-2.017,7.469-4.894,2.109-3.386,2.581-7.92.2-9.723a8.954,8.954,0,0,0-8.565-1.245" transform="translate(483.291 1919.649)" fill="#ffaaa9"/>
    <path id="Trazado_201309" data-name="Trazado 201309" d="M359.5,305.651l3.4-9.6a16.8,16.8,0,0,0,6.862-4.576s-.758,2.737-6.148,5.542l-3.723,9.084-.031,5.051Z" transform="translate(483.509 1920.898)" fill="#263238"/>
    <path id="Trazado_201310" data-name="Trazado 201310" d="M350.266,241.234c.491,1.344,1.315,4.632,4.747,6.007,0,0,.49-2.1,2.252-1.873s2.063,2.471.98,3.865-2.133.893-2.133.893-.236,3.007,1.771,4.369a5.621,5.621,0,0,0,4.988.355c1.155-.529,2.787-3.3,3.747-5.566,2.028-4.8,2.318-8.652-.747-9.865a3.626,3.626,0,0,0-3.335-3.411c-4.253-.877-7.467,1.917-11.036,1.424-1.862-.257-1.793,2.266-1.233,3.8" transform="translate(483.282 1919.582)" fill="#263238"/>
    <path id="Trazado_201311" data-name="Trazado 201311" d="M365.573,240.093l2.005-1.244a1.18,1.18,0,0,0-2.005,1.244" transform="translate(483.648 1919.64)" fill="#263238"/>
    <path id="Trazado_201312" data-name="Trazado 201312" d="M342,260.194s9.372-.536,11.8-.551,4.936,4.065,3.44,6.848c-.985,1.833-4.063,2.46-7.946,2.647-3.852.186-7.8.186-7.8.186s-3.524-3.978.5-9.131" transform="translate(483.049 1920.146)" fill="#f9860b"/>
    <path id="Trazado_201313" data-name="Trazado 201313" d="M349.149,268.977s5.939-.077,7.879-2.643a4.623,4.623,0,0,1-2.755,2.536,17.115,17.115,0,0,1-5.159,1.11Z" transform="translate(483.263 1920.304)" fill="#37474f"/>
    <path id="Trazado_201314" data-name="Trazado 201314" d="M320.806,237.1c-2.947-.5-4.179,6.687-1.232,7.191l4.672.472c-1.914-.193-.585-6.888.875-6.492Z" transform="translate(482.523 1919.611)" fill="#455a64"/>
    <path id="Trazado_201315" data-name="Trazado 201315" d="M436.994,235.386a7.263,7.263,0,0,1-12.586,4.94l-.479-.579c-.007-.009-.015-.009-.015-.016a7.263,7.263,0,0,1,11.136-9.293l.493.6a.007.007,0,0,1,.008.007,7.279,7.279,0,0,1,1.442,4.344" transform="translate(484.999 1919.399)" fill="#455a64"/>
    <path id="Trazado_201316" data-name="Trazado 201316" d="M437.66,236.132a7.263,7.263,0,0,1-12.586,4.94l-.479-.579c-.007-.009-.015-.009-.015-.016l-30.238-36.5,12.744-7.355,28.631,34.566.493.6a.007.007,0,0,1,.008.007,7.279,7.279,0,0,1,1.442,4.344" transform="translate(484.333 1918.653)" fill="#455a64"/>
    <path id="Trazado_201317" data-name="Trazado 201317" d="M412.3,225.7a7.263,7.263,0,0,0,11.144-9.285.008.008,0,0,0-.009-.008L419.7,211.9a.008.008,0,0,1,.008.008,7.262,7.262,0,0,1-11.143,9.285Z" transform="translate(484.67 1919.016)" fill="#27debf"/>
    <path id="Trazado_201318" data-name="Trazado 201318" d="M407.749,140.678a16.788,16.788,0,0,1,6.485,2.11l-9.2-5.352c-6.173-4.24-15.057-3.99-24.929,1.7-18.643,10.766-33.763,36.952-33.763,58.484-.01,10.579,3.606,18.136,9.54,21.732l.129.074,9.819,5.659a16.893,16.893,0,0,1-4.48-4.261,21.96,21.96,0,0,0,7.233-.417c.862-.186,1.735-.415,2.618-.7a3.077,3.077,0,0,1-.332-.135,8.614,8.614,0,0,1-1.351-.769,9.633,9.633,0,0,1-2.037-1.933,13.4,13.4,0,0,1-1.911-3.326,13.759,13.759,0,0,1-1.933.135,10.54,10.54,0,0,1-4.439-.883,7.459,7.459,0,0,1-.945-.509c-.28-.176-.551-.374-.821-.581a37.383,37.383,0,0,1-.821-8.075c0-21.531,15.12-47.718,33.773-58.484a38.18,38.18,0,0,1,7.534-3.377,8.5,8.5,0,0,1,1.975,1.143,9.777,9.777,0,0,1,1.715,1.693,13.827,13.827,0,0,1,1.922,3.336,13.9,13.9,0,0,1,1.933-.135,9.981,9.981,0,0,1,5.081,1.237,7.255,7.255,0,0,1,1.122.737q-.2-.95-.468-1.839a22.255,22.255,0,0,0-3.45-7.274" transform="translate(483.197 1917.184)" fill="#263238"/>
    <path id="Trazado_201319" data-name="Trazado 201319" d="M414,142.65c-.176-.1-.353-.2-.53-.292a16.938,16.938,0,0,0-5.955-1.818,21.643,21.643,0,0,0-6.692.3,29.019,29.019,0,0,0-3.139.8,38.144,38.144,0,0,0-7.533,3.377c-18.653,10.766-33.773,36.953-33.773,58.484a37.383,37.383,0,0,0,.821,8.075c.1.478.218.935.342,1.392a22.863,22.863,0,0,0,3.575,7.722,16.836,16.836,0,0,0,2.547,2.795,16.265,16.265,0,0,0,1.933,1.466c6.151,3.969,14.871,3.626,24.544-1.954,18.653-10.766,33.774-36.952,33.774-58.484,0-10.786-3.794-18.351-9.914-21.863m-3.689,6.266a7.315,7.315,0,0,1,1.123.737,10.285,10.285,0,0,1,1.61,1.611c2.348,2.951,3.6,7.534,3.6,13.249,0,18.851-13.8,42.751-30.135,52.187-4.116,2.38-8.075,3.637-11.442,3.637a10.45,10.45,0,0,1-4.095-.759,3.012,3.012,0,0,1-.333-.135,8.6,8.6,0,0,1-1.35-.769,9.279,9.279,0,0,1-1.456-1.267h-.01c-.2-.208-.384-.437-.571-.665a13.406,13.406,0,0,1-1.912-3.326,26.1,26.1,0,0,1-1.684-9.913c0-.25,0-.5.021-.759.343-18.736,14-42.128,30.115-51.428q.56-.327,1.122-.623a25.016,25.016,0,0,1,8.386-2.879,13.9,13.9,0,0,1,1.933-.135,10.533,10.533,0,0,1,4.074.748,6.927,6.927,0,0,1,1.007.488" transform="translate(483.435 1917.323)" fill="#455a64"/>
    <path id="Trazado_201320" data-name="Trazado 201320" d="M416.4,164.343c0,18.851-13.8,42.751-30.136,52.187a32.557,32.557,0,0,1-3.056,1.569.032.032,0,0,1-.02.01,20.775,20.775,0,0,1-8.364,2.058,10.447,10.447,0,0,1-4.095-.759,3.012,3.012,0,0,1-.333-.135,8.615,8.615,0,0,1-1.351-.769A9.657,9.657,0,0,1,367,216.571c-.207-.27-.415-.54-.6-.841.363.031.747.051,1.143.051,3.366,0,7.325-1.257,11.441-3.636,16.336-9.436,30.137-33.337,30.137-52.188,0-5.185-1.03-9.435-2.983-12.386a9.135,9.135,0,0,1,3.928,1.174,7.255,7.255,0,0,1,1.122.737,10.247,10.247,0,0,1,1.611,1.611c2.068,2.6,3.284,6.453,3.533,11.234.042.654.062,1.33.062,2.016" transform="translate(483.672 1917.492)" fill="#37474f"/>
    <g id="Grupo_148179" data-name="Grupo 148179" transform="translate(847.083 2065.001)" opacity="0.6">
      <g id="Grupo_148178" data-name="Grupo 148178">
        <g id="Grupo_148177" data-name="Grupo 148177" clip-path="url(#clip-path)">
          <path id="Trazado_201321" data-name="Trazado 201321" d="M413.318,162.173c0,18.851-13.8,42.751-30.136,52.187-4.115,2.38-8.075,3.637-11.442,3.637a10.4,10.4,0,0,1-4.084-.759h-.009c-.2-.208-.385-.436-.572-.664a13.424,13.424,0,0,1-1.912-3.326,26.107,26.107,0,0,1-1.684-9.913c0-.25,0-.5.021-.759.343-18.736,14-42.128,30.115-51.428q.56-.329,1.122-.624a25.017,25.017,0,0,1,8.386-2.879,13.911,13.911,0,0,1,1.933-.135,10.552,10.552,0,0,1,4.074.748c.208.208.4.437.593.665,2.347,2.951,3.6,7.534,3.6,13.249" transform="translate(-363.48 -147.51)" fill="#fff"/>
        </g>
      </g>
    </g>
    <path id="Trazado_201322" data-name="Trazado 201322" d="M256.058,29.668A221.432,221.432,0,0,1,474.575,97.4" transform="translate(481.061 1914.549)" fill="none" stroke="#83abc5" stroke-miterlimit="10" stroke-width="15.638"/>
    <path id="Trazado_201323" data-name="Trazado 201323" d="M478.454,96.558a220.222,220.222,0,0,1,55.827,146.852c0,122.082-98.967,221.049-221.05,221.049S92.182,365.492,92.182,243.411A220.852,220.852,0,0,1,191.755,58.7" transform="translate(477.182 1915.39)" fill="none" stroke="#83abc5" stroke-miterlimit="10" stroke-width="15.638"/>
    <path id="Trazado_201324" data-name="Trazado 201324" d="M187.386,82.092l-2.513-19.657L168.978,50.6l46.534-6.07Z" transform="translate(479 1915.054)" fill="#83abc5"/>
    <path id="Trazado_202864" data-name="Trazado 202864" d="M13.172,0h176.8a13.173,13.173,0,0,1,13.173,13.173V50.864a13.173,13.173,0,0,1-13.173,13.173H13.173A13.173,13.173,0,0,1,0,50.864V13.172A13.172,13.172,0,0,1,13.172,0Z" transform="translate(900.835 2063.514)" fill="#fdd7ae" stroke="#f78627" stroke-width="2"/>
    <path id="Trazado_202870" data-name="Trazado 202870" d="M12.8,0H178.071a12.8,12.8,0,0,1,12.8,12.8V51.24a12.8,12.8,0,0,1-12.8,12.8H12.795A12.8,12.8,0,0,1,0,51.241V12.8A12.8,12.8,0,0,1,12.8,0Z" transform="translate(694.98 1915.024)" fill="#fdd7ae" stroke="#f78627" stroke-width="2"/>
    <path id="Trazado_202871" data-name="Trazado 202871" d="M-56.058-5.546H-61.12v3.428h5.941V0h-8.578V-12.8H-55.2v2.136H-61.12v3.05h5.063Zm7.409,2.918a.818.818,0,0,0-.461-.734,5.241,5.241,0,0,0-1.481-.479q-3.393-.712-3.393-2.883a2.613,2.613,0,0,1,1.05-2.114,4.237,4.237,0,0,1,2.747-.848,4.56,4.56,0,0,1,2.9.853,2.687,2.687,0,0,1,1.085,2.215h-2.54a1.229,1.229,0,0,0-.352-.9,1.488,1.488,0,0,0-1.1-.356,1.52,1.52,0,0,0-.993.29.916.916,0,0,0-.352.738.783.783,0,0,0,.4.681,4.114,4.114,0,0,0,1.349.448,11.019,11.019,0,0,1,1.6.426,2.628,2.628,0,0,1,2.013,2.558A2.481,2.481,0,0,1-47.3-.628a4.815,4.815,0,0,1-2.883.8A5.029,5.029,0,0,1-52.3-.25a3.561,3.561,0,0,1-1.455-1.169,2.716,2.716,0,0,1-.527-1.6h2.408a1.326,1.326,0,0,0,.5,1.037,1.987,1.987,0,0,0,1.248.36,1.839,1.839,0,0,0,1.1-.277A.861.861,0,0,0-48.649-2.628Zm7.146-9.22V-9.51h1.626v1.863H-41.5V-2.9a1.133,1.133,0,0,0,.2.756,1.015,1.015,0,0,0,.773.229,4.051,4.051,0,0,0,.747-.062V-.053a5.229,5.229,0,0,1-1.538.229,2.425,2.425,0,0,1-2.725-2.7V-7.646h-1.389V-9.51h1.389v-2.338ZM-32.951,0a2.821,2.821,0,0,1-.255-.853,3.073,3.073,0,0,1-2.4,1.028,3.376,3.376,0,0,1-2.316-.809,2.6,2.6,0,0,1-.918-2.039,2.687,2.687,0,0,1,1.121-2.32,5.529,5.529,0,0,1,3.239-.817h1.169v-.545a1.567,1.567,0,0,0-.338-1.055,1.331,1.331,0,0,0-1.068-.4,1.513,1.513,0,0,0-1.006.308,1.045,1.045,0,0,0-.365.844h-2.54a2.551,2.551,0,0,1,.51-1.529,3.37,3.37,0,0,1,1.441-1.1,5.253,5.253,0,0,1,2.092-.4A4.15,4.15,0,0,1-31.8-8.8a3.09,3.09,0,0,1,1.033,2.483V-2.2a4.546,4.546,0,0,0,.378,2.048V0Zm-2.1-1.767a2.188,2.188,0,0,0,1.037-.25,1.645,1.645,0,0,0,.7-.672V-4.324h-.949q-1.907,0-2.03,1.318l-.009.149a1.017,1.017,0,0,0,.334.782A1.3,1.3,0,0,0-35.052-1.767Zm14.81-2.9A5.758,5.758,0,0,1-21.218-1.1,3.231,3.231,0,0,1-23.943.176a2.969,2.969,0,0,1-2.47-1.187L-26.527,0h-2.285V-13.5h2.54v4.843A2.893,2.893,0,0,1-23.96-9.686a3.258,3.258,0,0,1,2.729,1.279,5.767,5.767,0,0,1,.989,3.6Zm-2.54-.185a3.783,3.783,0,0,0-.457-2.1A1.545,1.545,0,0,0-24.6-7.62a1.676,1.676,0,0,0-1.67.993v3.753a1.7,1.7,0,0,0,1.688,1,1.568,1.568,0,0,0,1.617-1.213A6.257,6.257,0,0,0-22.782-4.852ZM-16,0h-2.549V-13.5H-16Zm6.469.176a4.668,4.668,0,0,1-3.406-1.283,4.561,4.561,0,0,1-1.314-3.419v-.246a5.745,5.745,0,0,1,.554-2.562,4.064,4.064,0,0,1,1.569-1.74A4.4,4.4,0,0,1-9.81-9.686a3.947,3.947,0,0,1,3.072,1.23A5,5,0,0,1-5.617-4.966v1.037h-6.056a2.36,2.36,0,0,0,.743,1.494,2.245,2.245,0,0,0,1.569.563A2.742,2.742,0,0,0-7.068-2.936l1.248,1.4A3.813,3.813,0,0,1-7.366-.277,5.075,5.075,0,0,1-9.529.176Zm-.29-7.813a1.587,1.587,0,0,0-1.226.512,2.651,2.651,0,0,0-.6,1.466h3.533v-.2a1.891,1.891,0,0,0-.457-1.311A1.638,1.638,0,0,0-9.819-7.638Zm9.6,5.766A1.666,1.666,0,0,0,.922-2.259a1.355,1.355,0,0,0,.457-1.028H3.76a3.258,3.258,0,0,1-.527,1.771A3.48,3.48,0,0,1,1.814-.268,4.442,4.442,0,0,1-.177.176a4.129,4.129,0,0,1-3.217-1.3A5.13,5.13,0,0,1-4.572-4.7v-.167A5.071,5.071,0,0,1-3.4-8.376,4.08,4.08,0,0,1-.195-9.686,4,4,0,0,1,2.666-8.67a3.594,3.594,0,0,1,1.094,2.7H1.379A1.745,1.745,0,0,0,.922-7.174a1.524,1.524,0,0,0-1.16-.464,1.53,1.53,0,0,0-1.34.647,3.749,3.749,0,0,0-.453,2.1v.264a3.8,3.8,0,0,0,.448,2.113A1.549,1.549,0,0,0-.221-1.872ZM7.891,0H5.343V-9.51H7.891Zm-2.7-11.971a1.251,1.251,0,0,1,.382-.94,1.436,1.436,0,0,1,1.042-.369,1.44,1.44,0,0,1,1.037.369,1.244,1.244,0,0,1,.387.94,1.247,1.247,0,0,1-.391.949,1.443,1.443,0,0,1-1.033.369,1.443,1.443,0,0,1-1.033-.369A1.247,1.247,0,0,1,5.193-11.971ZM12.365-9.51l.079,1.063a3.342,3.342,0,0,1,2.733-1.239A2.536,2.536,0,0,1,17.7-8.235a3.265,3.265,0,0,1,2.856-1.45,2.836,2.836,0,0,1,2.3.9,4.141,4.141,0,0,1,.756,2.711V0H21.066V-6.064a1.811,1.811,0,0,0-.316-1.182,1.4,1.4,0,0,0-1.116-.374,1.585,1.585,0,0,0-1.582,1.09L18.06,0H15.52V-6.056a1.789,1.789,0,0,0-.325-1.2,1.416,1.416,0,0,0-1.107-.369,1.646,1.646,0,0,0-1.564.9V0H9.983V-9.51ZM28.247,0H25.7V-9.51h2.549Zm-2.7-11.971a1.251,1.251,0,0,1,.382-.94,1.436,1.436,0,0,1,1.042-.369,1.44,1.44,0,0,1,1.037.369,1.244,1.244,0,0,1,.387.94,1.247,1.247,0,0,1-.391.949,1.443,1.443,0,0,1-1.033.369,1.443,1.443,0,0,1-1.033-.369A1.247,1.247,0,0,1,25.549-11.971ZM34.716.176A4.668,4.668,0,0,1,31.31-1.107,4.561,4.561,0,0,1,30-4.526v-.246a5.745,5.745,0,0,1,.554-2.562,4.064,4.064,0,0,1,1.569-1.74,4.4,4.4,0,0,1,2.316-.611,3.947,3.947,0,0,1,3.072,1.23,5,5,0,0,1,1.121,3.489v1.037H32.571a2.36,2.36,0,0,0,.743,1.494,2.245,2.245,0,0,0,1.569.563,2.742,2.742,0,0,0,2.294-1.063l1.248,1.4A3.813,3.813,0,0,1,36.878-.277,5.075,5.075,0,0,1,34.716.176Zm-.29-7.813a1.587,1.587,0,0,0-1.226.512,2.651,2.651,0,0,0-.6,1.466h3.533v-.2a1.891,1.891,0,0,0-.457-1.311A1.638,1.638,0,0,0,34.426-7.638Zm7.98-1.872.079,1.1a3.32,3.32,0,0,1,2.733-1.274,2.759,2.759,0,0,1,2.25.888,4.142,4.142,0,0,1,.756,2.654V0h-2.54V-6.082a1.648,1.648,0,0,0-.352-1.173,1.574,1.574,0,0,0-1.169-.365,1.747,1.747,0,0,0-1.608.914V0h-2.54V-9.51ZM53.19-11.848V-9.51h1.626v1.863H53.19V-2.9a1.133,1.133,0,0,0,.2.756,1.015,1.015,0,0,0,.773.229,4.051,4.051,0,0,0,.747-.062V-.053a5.229,5.229,0,0,1-1.538.229,2.425,2.425,0,0,1-2.725-2.7V-7.646H49.261V-9.51H50.65v-2.338Zm2.112,7a5.64,5.64,0,0,1,.545-2.522,3.989,3.989,0,0,1,1.569-1.714,4.577,4.577,0,0,1,2.377-.606,4.33,4.33,0,0,1,3.142,1.178,4.727,4.727,0,0,1,1.358,3.2l.018.65a4.97,4.97,0,0,1-1.222,3.511A4.247,4.247,0,0,1,59.811.176a4.268,4.268,0,0,1-3.283-1.318A5.058,5.058,0,0,1,55.3-4.729Zm2.54.18a3.555,3.555,0,0,0,.51,2.073,1.682,1.682,0,0,0,1.459.717,1.686,1.686,0,0,0,1.441-.709,3.89,3.89,0,0,0,.519-2.267,3.519,3.519,0,0,0-.519-2.06,1.686,1.686,0,0,0-1.459-.731,1.658,1.658,0,0,0-1.441.726A3.955,3.955,0,0,0,57.842-4.662ZM-48.582,17.175a5.731,5.731,0,0,1,1-3.542,3.237,3.237,0,0,1,2.729-1.318,2.913,2.913,0,0,1,2.294,1.037V8.5h2.549V22h-2.294l-.123-1.011a2.989,2.989,0,0,1-2.443,1.187,3.228,3.228,0,0,1-2.694-1.323A5.916,5.916,0,0,1-48.582,17.175Zm2.54.189a3.754,3.754,0,0,0,.466,2.051,1.517,1.517,0,0,0,1.354.713,1.7,1.7,0,0,0,1.661-.995V15.375A1.675,1.675,0,0,0-44.2,14.38Q-46.042,14.38-46.042,17.364Zm12.375,4.812a4.668,4.668,0,0,1-3.406-1.283,4.561,4.561,0,0,1-1.314-3.419v-.246a5.745,5.745,0,0,1,.554-2.562,4.064,4.064,0,0,1,1.569-1.74,4.4,4.4,0,0,1,2.316-.611,3.947,3.947,0,0,1,3.072,1.23,5,5,0,0,1,1.121,3.489v1.037h-6.056a2.36,2.36,0,0,0,.743,1.494,2.245,2.245,0,0,0,1.569.563,2.742,2.742,0,0,0,2.294-1.063l1.248,1.4A3.813,3.813,0,0,1-31.5,21.723,5.075,5.075,0,0,1-33.667,22.176Zm-.29-7.813a1.587,1.587,0,0,0-1.226.512,2.651,2.651,0,0,0-.6,1.466h3.533v-.2a1.891,1.891,0,0,0-.457-1.311A1.638,1.638,0,0,0-33.957,14.362ZM-25.633,22h-2.549V8.5h2.549Zm6.179-4.843a5.64,5.64,0,0,1,.545-2.522,3.989,3.989,0,0,1,1.569-1.714,4.577,4.577,0,0,1,2.377-.606,4.33,4.33,0,0,1,3.142,1.178,4.727,4.727,0,0,1,1.358,3.2l.018.65a4.97,4.97,0,0,1-1.222,3.511,4.247,4.247,0,0,1-3.278,1.323,4.268,4.268,0,0,1-3.283-1.318,5.058,5.058,0,0,1-1.226-3.586Zm2.54.18a3.555,3.555,0,0,0,.51,2.073,1.682,1.682,0,0,0,1.459.717,1.686,1.686,0,0,0,1.441-.709,3.89,3.89,0,0,0,.519-2.267,3.519,3.519,0,0,0-.519-2.06,1.686,1.686,0,0,0-1.459-.731,1.658,1.658,0,0,0-1.441.726A3.955,3.955,0,0,0-16.915,17.338Zm16.6,0A5.758,5.758,0,0,1-1.288,20.9a3.231,3.231,0,0,1-2.725,1.279,2.969,2.969,0,0,1-2.47-1.187L-6.6,22H-8.881V8.5h2.54v4.843A2.893,2.893,0,0,1-4.03,12.314,3.258,3.258,0,0,1-1.3,13.593a5.767,5.767,0,0,1,.989,3.6Zm-2.54-.185a3.783,3.783,0,0,0-.457-2.1,1.545,1.545,0,0,0-1.362-.664,1.676,1.676,0,0,0-1.67.993v3.753a1.7,1.7,0,0,0,1.688,1,1.568,1.568,0,0,0,1.617-1.213A6.257,6.257,0,0,0-2.852,17.148ZM3.942,12.49V22.519a3.4,3.4,0,0,1-.835,2.448A3.174,3.174,0,0,1,.7,25.841a5.165,5.165,0,0,1-1.257-.149V23.679a4.768,4.768,0,0,0,.8.079q1.151,0,1.151-1.222V12.49ZM1.191,10.029a1.251,1.251,0,0,1,.382-.94A1.436,1.436,0,0,1,2.615,8.72a1.436,1.436,0,0,1,1.042.369,1.348,1.348,0,0,1-.009,1.89,1.443,1.443,0,0,1-1.033.369,1.443,1.443,0,0,1-1.033-.369A1.247,1.247,0,0,1,1.191,10.029Zm9.114,12.146A4.668,4.668,0,0,1,6.9,20.893a4.561,4.561,0,0,1-1.314-3.419v-.246a5.745,5.745,0,0,1,.554-2.562,4.064,4.064,0,0,1,1.569-1.74,4.4,4.4,0,0,1,2.316-.611,3.947,3.947,0,0,1,3.072,1.23,5,5,0,0,1,1.121,3.489v1.037H8.161A2.36,2.36,0,0,0,8.9,19.565a2.245,2.245,0,0,0,1.569.563,2.742,2.742,0,0,0,2.294-1.063l1.248,1.4a3.813,3.813,0,0,1-1.547,1.261A5.075,5.075,0,0,1,10.305,22.176Zm-.29-7.813a1.587,1.587,0,0,0-1.226.512,2.651,2.651,0,0,0-.6,1.466H11.72v-.2a1.891,1.891,0,0,0-.457-1.311A1.638,1.638,0,0,0,10.015,14.362Zm8.684-4.21V12.49h1.626v1.863H18.7V19.1a1.133,1.133,0,0,0,.2.756,1.015,1.015,0,0,0,.773.229,4.051,4.051,0,0,0,.747-.062v1.925a5.229,5.229,0,0,1-1.538.229,2.425,2.425,0,0,1-2.725-2.7V14.354H14.77V12.49h1.389V10.152ZM24.42,22H21.872V12.49H24.42Zm-2.7-11.971a1.251,1.251,0,0,1,.382-.94,1.648,1.648,0,0,1,2.079,0,1.342,1.342,0,0,1,0,1.89,1.629,1.629,0,0,1-2.065,0A1.247,1.247,0,0,1,21.722,10.029Zm8.35,8.868,1.767-6.407h2.654L31.285,22H28.859l-3.208-9.51h2.654Zm5.01-1.74a5.64,5.64,0,0,1,.545-2.522A3.989,3.989,0,0,1,37.2,12.921a4.577,4.577,0,0,1,2.377-.606,4.33,4.33,0,0,1,3.142,1.178,4.727,4.727,0,0,1,1.358,3.2l.018.65a4.97,4.97,0,0,1-1.222,3.511,4.735,4.735,0,0,1-6.561,0,5.058,5.058,0,0,1-1.226-3.586Zm2.54.18a3.555,3.555,0,0,0,.51,2.073,1.831,1.831,0,0,0,2.9.009,3.89,3.89,0,0,0,.519-2.267,3.519,3.519,0,0,0-.519-2.06,1.686,1.686,0,0,0-1.459-.731,1.658,1.658,0,0,0-1.441.726A3.955,3.955,0,0,0,37.622,17.338Z" transform="translate(792.172 1940.413)" fill="#12263f"/>
    <path id="Trazado_202869" data-name="Trazado 202869" d="M1.143,0V-12.8H5.08a5.98,5.98,0,0,1,3.019.76,5.3,5.3,0,0,1,2.079,2.162,6.669,6.669,0,0,1,.747,3.186V-6.1a6.688,6.688,0,0,1-.734,3.173A5.256,5.256,0,0,1,8.121-.773,6.025,6.025,0,0,1,5.106,0ZM3.779-10.661v8.543H5.054A2.863,2.863,0,0,0,7.418-3.129a4.567,4.567,0,0,0,.835-2.892V-6.7a4.64,4.64,0,0,0-.809-2.958A2.854,2.854,0,0,0,5.08-10.661ZM15.354,0H12.806V-9.51h2.549Zm-2.7-11.971a1.251,1.251,0,0,1,.382-.94,1.436,1.436,0,0,1,1.042-.369,1.44,1.44,0,0,1,1.037.369,1.244,1.244,0,0,1,.387.94,1.247,1.247,0,0,1-.391.949,1.443,1.443,0,0,1-1.033.369,1.443,1.443,0,0,1-1.033-.369A1.247,1.247,0,0,1,12.656-11.971ZM22.957,0A2.821,2.821,0,0,1,22.7-.853,3.073,3.073,0,0,1,20.3.176a3.376,3.376,0,0,1-2.316-.809,2.6,2.6,0,0,1-.918-2.039,2.687,2.687,0,0,1,1.121-2.32,5.529,5.529,0,0,1,3.239-.817H22.6v-.545a1.567,1.567,0,0,0-.338-1.055,1.331,1.331,0,0,0-1.068-.4,1.513,1.513,0,0,0-1.006.308,1.045,1.045,0,0,0-.365.844h-2.54a2.551,2.551,0,0,1,.51-1.529,3.37,3.37,0,0,1,1.441-1.1,5.253,5.253,0,0,1,2.092-.4,4.15,4.15,0,0,1,2.791.883,3.09,3.09,0,0,1,1.033,2.483V-2.2a4.546,4.546,0,0,0,.378,2.048V0Zm-2.1-1.767a2.188,2.188,0,0,0,1.037-.25,1.645,1.645,0,0,0,.7-.672V-4.324h-.949q-1.907,0-2.03,1.318l-.009.149a1.017,1.017,0,0,0,.334.782A1.3,1.3,0,0,0,20.856-1.767Zm5.871-3.059A5.573,5.573,0,0,1,27.769-8.35a3.375,3.375,0,0,1,2.808-1.336,2.96,2.96,0,0,1,2.435,1.072l.105-.9h2.3V-.316a4.064,4.064,0,0,1-.567,2.171,3.641,3.641,0,0,1-1.6,1.406,5.608,5.608,0,0,1-2.408.483,5.215,5.215,0,0,1-2.039-.417,3.619,3.619,0,0,1-1.5-1.077L28.433.7a2.975,2.975,0,0,0,2.3,1.063,2.178,2.178,0,0,0,1.573-.541,2.027,2.027,0,0,0,.563-1.534v-.51A2.938,2.938,0,0,1,30.56.176a3.366,3.366,0,0,1-2.773-1.34A5.572,5.572,0,0,1,26.728-4.72Zm2.54.189a3.47,3.47,0,0,0,.519,2.029,1.65,1.65,0,0,0,1.424.735,1.764,1.764,0,0,0,1.661-.871V-6.749a1.76,1.76,0,0,0-1.644-.871,1.66,1.66,0,0,0-1.437.748A3.911,3.911,0,0,0,29.268-4.636ZM39.709-9.51l.079,1.1a3.32,3.32,0,0,1,2.733-1.274,2.759,2.759,0,0,1,2.25.888,4.142,4.142,0,0,1,.756,2.654V0h-2.54V-6.082a1.648,1.648,0,0,0-.352-1.173,1.574,1.574,0,0,0-1.169-.365,1.747,1.747,0,0,0-1.608.914V0h-2.54V-9.51Zm7.348,4.667A5.64,5.64,0,0,1,47.6-7.365,3.989,3.989,0,0,1,49.17-9.079a4.577,4.577,0,0,1,2.377-.606A4.33,4.33,0,0,1,54.69-8.508a4.727,4.727,0,0,1,1.358,3.2l.018.65a4.97,4.97,0,0,1-1.222,3.511A4.247,4.247,0,0,1,51.565.176a4.268,4.268,0,0,1-3.283-1.318,5.058,5.058,0,0,1-1.226-3.586Zm2.54.18a3.555,3.555,0,0,0,.51,2.073,1.682,1.682,0,0,0,1.459.717,1.686,1.686,0,0,0,1.441-.709,3.89,3.89,0,0,0,.519-2.267,3.519,3.519,0,0,0-.519-2.06,1.686,1.686,0,0,0-1.459-.731,1.658,1.658,0,0,0-1.441.726A3.955,3.955,0,0,0,49.6-4.662ZM52.049-13.5h2.769l-2.435,2.725H50.317ZM62.78-2.628a.818.818,0,0,0-.461-.734,5.241,5.241,0,0,0-1.481-.479q-3.393-.712-3.393-2.883A2.613,2.613,0,0,1,58.5-8.837a4.237,4.237,0,0,1,2.747-.848,4.56,4.56,0,0,1,2.9.853,2.687,2.687,0,0,1,1.085,2.215h-2.54a1.229,1.229,0,0,0-.352-.9,1.488,1.488,0,0,0-1.1-.356,1.52,1.52,0,0,0-.993.29.916.916,0,0,0-.352.738.783.783,0,0,0,.4.681,4.114,4.114,0,0,0,1.349.448,11.019,11.019,0,0,1,1.6.426A2.628,2.628,0,0,1,65.25-2.733a2.481,2.481,0,0,1-1.116,2.1,4.815,4.815,0,0,1-2.883.8A5.029,5.029,0,0,1,59.128-.25a3.561,3.561,0,0,1-1.455-1.169,2.716,2.716,0,0,1-.527-1.6h2.408a1.326,1.326,0,0,0,.5,1.037,1.987,1.987,0,0,0,1.248.36,1.839,1.839,0,0,0,1.1-.277A.861.861,0,0,0,62.78-2.628Zm7.146-9.22V-9.51h1.626v1.863H69.926V-2.9a1.133,1.133,0,0,0,.2.756,1.015,1.015,0,0,0,.773.229,4.051,4.051,0,0,0,.747-.062V-.053A5.229,5.229,0,0,1,70.11.176a2.425,2.425,0,0,1-2.725-2.7V-7.646H66V-9.51h1.389v-2.338ZM75.647,0H73.1V-9.51h2.549Zm-2.7-11.971a1.251,1.251,0,0,1,.382-.94,1.436,1.436,0,0,1,1.042-.369,1.44,1.44,0,0,1,1.037.369,1.244,1.244,0,0,1,.387.94,1.247,1.247,0,0,1-.391.949,1.443,1.443,0,0,1-1.033.369,1.443,1.443,0,0,1-1.033-.369A1.247,1.247,0,0,1,72.949-11.971Zm8.745,10.1a1.666,1.666,0,0,0,1.143-.387,1.355,1.355,0,0,0,.457-1.028h2.382a3.258,3.258,0,0,1-.527,1.771A3.48,3.48,0,0,1,83.729-.268a4.442,4.442,0,0,1-1.991.444,4.129,4.129,0,0,1-3.217-1.3A5.13,5.13,0,0,1,77.344-4.7v-.167a5.071,5.071,0,0,1,1.169-3.507,4.08,4.08,0,0,1,3.208-1.31A4,4,0,0,1,84.582-8.67a3.594,3.594,0,0,1,1.094,2.7H83.294a1.745,1.745,0,0,0-.457-1.206,1.524,1.524,0,0,0-1.16-.464,1.53,1.53,0,0,0-1.34.647,3.749,3.749,0,0,0-.453,2.1v.264a3.8,3.8,0,0,0,.448,2.113A1.549,1.549,0,0,0,81.694-1.872ZM86.73-4.843a5.64,5.64,0,0,1,.545-2.522,3.989,3.989,0,0,1,1.569-1.714,4.577,4.577,0,0,1,2.377-.606,4.33,4.33,0,0,1,3.142,1.178,4.727,4.727,0,0,1,1.358,3.2l.018.65a4.97,4.97,0,0,1-1.222,3.511A4.247,4.247,0,0,1,91.239.176a4.268,4.268,0,0,1-3.283-1.318A5.058,5.058,0,0,1,86.73-4.729Zm2.54.18a3.555,3.555,0,0,0,.51,2.073,1.682,1.682,0,0,0,1.459.717,1.686,1.686,0,0,0,1.441-.709A3.89,3.89,0,0,0,93.2-4.847a3.519,3.519,0,0,0-.519-2.06,1.686,1.686,0,0,0-1.459-.731,1.658,1.658,0,0,0-1.441.726A3.955,3.955,0,0,0,89.271-4.662Z" transform="translate(953.093 2090.272)" fill="#12263f"/>
    <path id="Trazado_202866" data-name="Trazado 202866" d="M1.039-4.617a12.079,12.079,0,0,1,.473-3.391,9.85,9.85,0,0,1,1.41-2.953,6,6,0,0,1,1.945-1.875l.3.953A6.222,6.222,0,0,0,3.293-9.211a11.583,11.583,0,0,0-.8,4.023l-.008.664A11.643,11.643,0,0,0,3.586.711,6.252,6.252,0,0,0,5.164,2.789l-.3.883A6.192,6.192,0,0,1,2.883,1.734,10.859,10.859,0,0,1,1.039-4.617Zm9.922.016H8.289V0H6.781V-11.375h3.766A4.457,4.457,0,0,1,13.5-10.5a3.148,3.148,0,0,1,1.035,2.547A3.062,3.062,0,0,1,13.965-6.1a3.428,3.428,0,0,1-1.6,1.18L15.039-.094V0H13.43ZM8.289-5.828h2.3a2.6,2.6,0,0,0,1.777-.579,1.959,1.959,0,0,0,.66-1.55,2.062,2.062,0,0,0-.629-1.62,2.663,2.663,0,0,0-1.816-.571h-2.3ZM19.922.156a3.693,3.693,0,0,1-2.8-1.129,4.19,4.19,0,0,1-1.078-3.02v-.266a5.073,5.073,0,0,1,.48-2.246,3.748,3.748,0,0,1,1.344-1.547,3.378,3.378,0,0,1,1.871-.559A3.166,3.166,0,0,1,22.3-7.523a4.7,4.7,0,0,1,.914,3.109v.6H17.492a3,3,0,0,0,.73,2.02A2.3,2.3,0,0,0,20-1.023a2.517,2.517,0,0,0,1.3-.312,3.259,3.259,0,0,0,.93-.828l.883.688A3.55,3.55,0,0,1,19.922.156Zm-.18-7.578a1.928,1.928,0,0,0-1.469.637A3.1,3.1,0,0,0,17.539-5h4.234v-.109a2.753,2.753,0,0,0-.594-1.707A1.815,1.815,0,0,0,19.742-7.422Zm8.539,6.4a2.082,2.082,0,0,0,1.352-.469,1.649,1.649,0,0,0,.641-1.172h1.367a2.621,2.621,0,0,1-.5,1.383A3.293,3.293,0,0,1,29.91-.234a3.55,3.55,0,0,1-1.629.391A3.482,3.482,0,0,1,25.535-1a4.59,4.59,0,0,1-1.02-3.152v-.242a5.089,5.089,0,0,1,.453-2.2,3.451,3.451,0,0,1,1.3-1.492,3.7,3.7,0,0,1,2-.531,3.39,3.39,0,0,1,2.363.852,3.043,3.043,0,0,1,1,2.211H30.273a1.992,1.992,0,0,0-.621-1.348,1.932,1.932,0,0,0-1.379-.527,2.023,2.023,0,0,0-1.707.793,3.724,3.724,0,0,0-.605,2.293v.273a3.65,3.65,0,0,0,.6,2.25A2.033,2.033,0,0,0,28.281-1.023Zm4.6-3.281a4.993,4.993,0,0,1,.488-2.234A3.643,3.643,0,0,1,34.73-8.07a3.7,3.7,0,0,1,1.988-.539,3.565,3.565,0,0,1,2.793,1.2,4.6,4.6,0,0,1,1.066,3.18v.1a5.036,5.036,0,0,1-.473,2.215A3.589,3.589,0,0,1,38.754-.391a3.743,3.743,0,0,1-2.02.547,3.556,3.556,0,0,1-2.785-1.2A4.575,4.575,0,0,1,32.883-4.2Zm1.453.172a3.616,3.616,0,0,0,.652,2.258,2.088,2.088,0,0,0,1.746.852,2.075,2.075,0,0,0,1.75-.863A3.955,3.955,0,0,0,39.133-4.3a3.61,3.61,0,0,0-.66-2.254,2.1,2.1,0,0,0-1.754-.863,2.075,2.075,0,0,0-1.727.852A3.925,3.925,0,0,0,34.336-4.133ZM43.961,0H42.516V-12h1.445Zm5.82.156a3.693,3.693,0,0,1-2.8-1.129,4.19,4.19,0,0,1-1.078-3.02v-.266a5.073,5.073,0,0,1,.48-2.246A3.748,3.748,0,0,1,47.73-8.051,3.378,3.378,0,0,1,49.6-8.609a3.166,3.166,0,0,1,2.563,1.086,4.7,4.7,0,0,1,.914,3.109v.6H47.352a3,3,0,0,0,.73,2.02,2.3,2.3,0,0,0,1.777.77,2.517,2.517,0,0,0,1.3-.312,3.259,3.259,0,0,0,.93-.828l.883.688A3.55,3.55,0,0,1,49.781.156ZM49.6-7.422a1.928,1.928,0,0,0-1.469.637A3.1,3.1,0,0,0,47.4-5h4.234v-.109a2.753,2.753,0,0,0-.594-1.707A1.815,1.815,0,0,0,49.6-7.422Zm8.539,6.4a2.082,2.082,0,0,0,1.352-.469,1.649,1.649,0,0,0,.641-1.172H61.5A2.621,2.621,0,0,1,61-1.281,3.293,3.293,0,0,1,59.77-.234a3.55,3.55,0,0,1-1.629.391A3.482,3.482,0,0,1,55.395-1a4.59,4.59,0,0,1-1.02-3.152v-.242a5.089,5.089,0,0,1,.453-2.2,3.451,3.451,0,0,1,1.3-1.492,3.7,3.7,0,0,1,2-.531,3.39,3.39,0,0,1,2.363.852,3.043,3.043,0,0,1,1,2.211H60.133a1.992,1.992,0,0,0-.621-1.348,1.932,1.932,0,0,0-1.379-.527,2.023,2.023,0,0,0-1.707.793,3.724,3.724,0,0,0-.605,2.293v.273a3.65,3.65,0,0,0,.6,2.25A2.033,2.033,0,0,0,58.141-1.023Zm8.375,0a2.082,2.082,0,0,0,1.352-.469,1.649,1.649,0,0,0,.641-1.172h1.367a2.621,2.621,0,0,1-.5,1.383,3.293,3.293,0,0,1-1.23,1.047,3.55,3.55,0,0,1-1.629.391A3.482,3.482,0,0,1,63.77-1a4.59,4.59,0,0,1-1.02-3.152v-.242a5.089,5.089,0,0,1,.453-2.2,3.451,3.451,0,0,1,1.3-1.492,3.7,3.7,0,0,1,2-.531,3.39,3.39,0,0,1,2.363.852,3.043,3.043,0,0,1,1,2.211H68.508a1.992,1.992,0,0,0-.621-1.348,1.932,1.932,0,0,0-1.379-.527,2.023,2.023,0,0,0-1.707.793A3.724,3.724,0,0,0,64.2-4.336v.273a3.65,3.65,0,0,0,.6,2.25A2.033,2.033,0,0,0,66.516-1.023ZM73.07,0H71.625V-8.453H73.07ZM71.508-10.7a.863.863,0,0,1,.215-.594.807.807,0,0,1,.637-.242.819.819,0,0,1,.641.242.854.854,0,0,1,.219.594.826.826,0,0,1-.219.586.834.834,0,0,1-.641.234.821.821,0,0,1-.637-.234A.834.834,0,0,1,71.508-10.7ZM75-4.3a4.993,4.993,0,0,1,.488-2.234A3.643,3.643,0,0,1,76.848-8.07a3.7,3.7,0,0,1,1.988-.539,3.565,3.565,0,0,1,2.793,1.2A4.6,4.6,0,0,1,82.7-4.234v.1a5.036,5.036,0,0,1-.473,2.215A3.589,3.589,0,0,1,80.871-.391a3.743,3.743,0,0,1-2.02.547,3.556,3.556,0,0,1-2.785-1.2A4.575,4.575,0,0,1,75-4.2Zm1.453.172a3.616,3.616,0,0,0,.652,2.258,2.088,2.088,0,0,0,1.746.852,2.075,2.075,0,0,0,1.75-.863A3.955,3.955,0,0,0,81.25-4.3a3.61,3.61,0,0,0-.66-2.254,2.1,2.1,0,0,0-1.754-.863,2.075,2.075,0,0,0-1.727.852A3.925,3.925,0,0,0,76.453-4.133ZM79.492-12h1.75L79.148-9.7l-1.164,0Zm6.383,3.547.047,1.063a3.08,3.08,0,0,1,2.531-1.219q2.68,0,2.7,3.023V0H89.711V-5.594a1.946,1.946,0,0,0-.418-1.352,1.675,1.675,0,0,0-1.277-.437,2.086,2.086,0,0,0-1.234.375,2.546,2.546,0,0,0-.828.984V0H84.508V-8.453ZM96.945-4.3a4.952,4.952,0,0,1,.922-3.129,2.915,2.915,0,0,1,2.414-1.184,2.932,2.932,0,0,1,2.352,1.016V-12h1.445V0H102.75l-.07-.906A2.943,2.943,0,0,1,100.266.156a2.887,2.887,0,0,1-2.395-1.2,5.008,5.008,0,0,1-.926-3.141Zm1.445.164a3.749,3.749,0,0,0,.594,2.25,1.92,1.92,0,0,0,1.641.813A2.109,2.109,0,0,0,102.633-2.3V-6.187a2.125,2.125,0,0,0-1.992-1.2,1.929,1.929,0,0,0-1.656.82A4.128,4.128,0,0,0,98.391-4.133ZM109.828.156a3.693,3.693,0,0,1-2.8-1.129,4.19,4.19,0,0,1-1.078-3.02v-.266a5.073,5.073,0,0,1,.48-2.246,3.748,3.748,0,0,1,1.344-1.547,3.378,3.378,0,0,1,1.871-.559,3.166,3.166,0,0,1,2.563,1.086,4.7,4.7,0,0,1,.914,3.109v.6H107.4a3,3,0,0,0,.73,2.02,2.3,2.3,0,0,0,1.777.77,2.517,2.517,0,0,0,1.3-.312,3.259,3.259,0,0,0,.93-.828l.883.688A3.55,3.55,0,0,1,109.828.156Zm-.18-7.578a1.928,1.928,0,0,0-1.469.637A3.1,3.1,0,0,0,107.445-5h4.234v-.109a2.753,2.753,0,0,0-.594-1.707A1.815,1.815,0,0,0,109.648-7.422ZM118.406-4.3a4.952,4.952,0,0,1,.922-3.129,2.915,2.915,0,0,1,2.414-1.184,2.932,2.932,0,0,1,2.352,1.016V-12h1.445V0h-1.328l-.07-.906A2.943,2.943,0,0,1,121.727.156a2.887,2.887,0,0,1-2.395-1.2,5.008,5.008,0,0,1-.926-3.141Zm1.445.164a3.749,3.749,0,0,0,.594,2.25,1.92,1.92,0,0,0,1.641.813A2.109,2.109,0,0,0,124.094-2.3V-6.187a2.125,2.125,0,0,0-1.992-1.2,1.929,1.929,0,0,0-1.656.82A4.128,4.128,0,0,0,119.852-4.133ZM133,0a3.036,3.036,0,0,1-.2-.891A3.225,3.225,0,0,1,130.391.156a2.984,2.984,0,0,1-2.051-.707,2.288,2.288,0,0,1-.8-1.793,2.39,2.39,0,0,1,1-2.051,4.733,4.733,0,0,1,2.824-.73h1.406v-.664A1.623,1.623,0,0,0,132.32-7a1.821,1.821,0,0,0-1.336-.449,2.107,2.107,0,0,0-1.3.391,1.151,1.151,0,0,0-.523.945h-1.453a2,2,0,0,1,.449-1.223,3.066,3.066,0,0,1,1.219-.934,4.1,4.1,0,0,1,1.691-.344,3.342,3.342,0,0,1,2.289.73,2.635,2.635,0,0,1,.859,2.012v3.891a4.757,4.757,0,0,0,.3,1.852V0Zm-2.4-1.1a2.54,2.54,0,0,0,1.289-.352,2.127,2.127,0,0,0,.883-.914V-4.1h-1.133q-2.656,0-2.656,1.555a1.316,1.316,0,0,0,.453,1.063A1.742,1.742,0,0,0,130.6-1.1Zm7.844-9.4v2.047h1.578v1.117h-1.578v5.249a1.173,1.173,0,0,0,.211.763.888.888,0,0,0,.719.254,3.5,3.5,0,0,0,.688-.094V0a4.215,4.215,0,0,1-1.109.155,1.8,1.8,0,0,1-1.461-.586A2.517,2.517,0,0,1,137-2.094V-7.336h-1.539V-8.453H137V-10.5Zm2.567,6.2a4.993,4.993,0,0,1,.488-2.234A3.642,3.642,0,0,1,142.86-8.07a3.7,3.7,0,0,1,1.988-.539,3.565,3.565,0,0,1,2.793,1.2,4.6,4.6,0,0,1,1.066,3.18v.1a5.036,5.036,0,0,1-.473,2.215,3.589,3.589,0,0,1-1.352,1.527,3.743,3.743,0,0,1-2.02.547,3.556,3.556,0,0,1-2.785-1.2A4.575,4.575,0,0,1,141.012-4.2Zm1.453.172a3.616,3.616,0,0,0,.652,2.258,2.088,2.088,0,0,0,1.746.852,2.075,2.075,0,0,0,1.75-.863,3.954,3.954,0,0,0,.648-2.418,3.61,3.61,0,0,0-.66-2.254,2.1,2.1,0,0,0-1.754-.863,2.075,2.075,0,0,0-1.727.852A3.925,3.925,0,0,0,142.465-4.133Zm12.977,1.891a1.064,1.064,0,0,0-.441-.91,4.249,4.249,0,0,0-1.539-.559,7.277,7.277,0,0,1-1.742-.562,2.479,2.479,0,0,1-.953-.781,1.869,1.869,0,0,1-.309-1.078,2.193,2.193,0,0,1,.879-1.758,3.432,3.432,0,0,1,2.246-.719,3.532,3.532,0,0,1,2.332.742,2.357,2.357,0,0,1,.895,1.9h-1.453a1.3,1.3,0,0,0-.5-1.023,1.888,1.888,0,0,0-1.27-.43,1.976,1.976,0,0,0-1.234.344,1.082,1.082,0,0,0-.445.9.877.877,0,0,0,.414.789,5.1,5.1,0,0,0,1.5.508,7.8,7.8,0,0,1,1.754.578,2.558,2.558,0,0,1,1,.809,1.988,1.988,0,0,1,.324,1.152,2.163,2.163,0,0,1-.906,1.816,3.8,3.8,0,0,1-2.352.684,4.257,4.257,0,0,1-1.8-.359,2.922,2.922,0,0,1-1.223-1,2.42,2.42,0,0,1-.441-1.395h1.445a1.5,1.5,0,0,0,.582,1.152,2.258,2.258,0,0,0,1.434.426,2.331,2.331,0,0,0,1.316-.332A1.02,1.02,0,0,0,155.442-2.242Zm6.664-2.3a12.084,12.084,0,0,1-.457,3.34,9.876,9.876,0,0,1-1.4,2.949,6.127,6.127,0,0,1-1.973,1.922l-.3-.883a6.281,6.281,0,0,0,1.934-2.863,12.387,12.387,0,0,0,.746-4.309v-.25a12.861,12.861,0,0,0-.344-3.051,10.3,10.3,0,0,0-.957-2.527,5.838,5.838,0,0,0-1.379-1.742l.3-.883a6.1,6.1,0,0,1,1.965,1.906,9.9,9.9,0,0,1,1.4,2.945A12.364,12.364,0,0,1,162.106-4.539Z" transform="translate(918.773 2112.847)" fill="#12263f"/>
    <path id="Trazado_202860" data-name="Trazado 202860" d="M13,0H184.551a13,13,0,0,1,13,13V51.035a13,13,0,0,1-13,13H13a13,13,0,0,1-13-13V13A13,13,0,0,1,13,0Z" transform="translate(883.799 2243.582)" fill="#fdd7ae" stroke="#f78627" stroke-width="2"/>
    <path id="Trazado_202861" data-name="Trazado 202861" d="M-59.293-4.509V0H-61.93V-12.8h4.992a5.776,5.776,0,0,1,2.536.527,3.886,3.886,0,0,1,1.683,1.5,4.178,4.178,0,0,1,.589,2.21,3.674,3.674,0,0,1-1.288,2.966,5.363,5.363,0,0,1-3.564,1.085Zm0-2.136h2.355a2.316,2.316,0,0,0,1.6-.492,1.79,1.79,0,0,0,.549-1.406,2.111,2.111,0,0,0-.554-1.521,2.068,2.068,0,0,0-1.529-.6h-2.417Zm14.15-.483a6.9,6.9,0,0,0-.914-.07,1.86,1.86,0,0,0-1.89.976V0h-2.54V-9.51h2.4l.07,1.134A2.354,2.354,0,0,1-45.9-9.686a2.662,2.662,0,0,1,.791.114Zm.2,2.285a5.64,5.64,0,0,1,.545-2.522,3.989,3.989,0,0,1,1.569-1.714,4.577,4.577,0,0,1,2.377-.606,4.33,4.33,0,0,1,3.142,1.178,4.727,4.727,0,0,1,1.358,3.2l.018.65a4.97,4.97,0,0,1-1.222,3.511A4.247,4.247,0,0,1-40.43.176a4.268,4.268,0,0,1-3.283-1.318,5.058,5.058,0,0,1-1.226-3.586Zm2.54.18a3.555,3.555,0,0,0,.51,2.073,1.682,1.682,0,0,0,1.459.717,1.686,1.686,0,0,0,1.441-.709,3.89,3.89,0,0,0,.519-2.267,3.519,3.519,0,0,0-.519-2.06,1.686,1.686,0,0,0-1.459-.731,1.658,1.658,0,0,0-1.441.726A3.955,3.955,0,0,0-42.4-4.662Zm11.988,2.79a1.666,1.666,0,0,0,1.143-.387,1.355,1.355,0,0,0,.457-1.028h2.382a3.258,3.258,0,0,1-.527,1.771A3.48,3.48,0,0,1-28.376-.268a4.442,4.442,0,0,1-1.991.444,4.129,4.129,0,0,1-3.217-1.3A5.13,5.13,0,0,1-34.761-4.7v-.167a5.071,5.071,0,0,1,1.169-3.507,4.08,4.08,0,0,1,3.208-1.31A4,4,0,0,1-27.524-8.67a3.594,3.594,0,0,1,1.094,2.7h-2.382a1.745,1.745,0,0,0-.457-1.206,1.524,1.524,0,0,0-1.16-.464,1.53,1.53,0,0,0-1.34.647,3.749,3.749,0,0,0-.453,2.1v.264a3.8,3.8,0,0,0,.448,2.113A1.549,1.549,0,0,0-30.411-1.872ZM-20.6.176a4.668,4.668,0,0,1-3.406-1.283,4.561,4.561,0,0,1-1.314-3.419v-.246a5.745,5.745,0,0,1,.554-2.562A4.064,4.064,0,0,1-23.2-9.075a4.4,4.4,0,0,1,2.316-.611,3.947,3.947,0,0,1,3.072,1.23,5,5,0,0,1,1.121,3.489v1.037h-6.056A2.36,2.36,0,0,0-22-2.435a2.245,2.245,0,0,0,1.569.563,2.742,2.742,0,0,0,2.294-1.063l1.248,1.4A3.813,3.813,0,0,1-18.44-.277,5.075,5.075,0,0,1-20.6.176Zm-.29-7.813a1.587,1.587,0,0,0-1.226.512,2.651,2.651,0,0,0-.6,1.466h3.533v-.2a1.891,1.891,0,0,0-.457-1.311A1.638,1.638,0,0,0-20.892-7.638ZM-10.1-2.628a.818.818,0,0,0-.461-.734,5.241,5.241,0,0,0-1.481-.479q-3.393-.712-3.393-2.883a2.613,2.613,0,0,1,1.05-2.114,4.237,4.237,0,0,1,2.747-.848,4.56,4.56,0,0,1,2.9.853A2.687,2.687,0,0,1-7.656-6.618H-10.2a1.229,1.229,0,0,0-.352-.9,1.488,1.488,0,0,0-1.1-.356,1.52,1.52,0,0,0-.993.29.916.916,0,0,0-.352.738.783.783,0,0,0,.4.681,4.114,4.114,0,0,0,1.349.448,11.019,11.019,0,0,1,1.6.426A2.628,2.628,0,0,1-7.63-2.733a2.481,2.481,0,0,1-1.116,2.1,4.815,4.815,0,0,1-2.883.8A5.029,5.029,0,0,1-13.751-.25a3.561,3.561,0,0,1-1.455-1.169,2.716,2.716,0,0,1-.527-1.6h2.408a1.326,1.326,0,0,0,.5,1.037,1.987,1.987,0,0,0,1.248.36,1.839,1.839,0,0,0,1.1-.277A.861.861,0,0,0-10.1-2.628ZM-.484,0A2.821,2.821,0,0,1-.739-.853,3.073,3.073,0,0,1-3.138.176,3.376,3.376,0,0,1-5.454-.633a2.6,2.6,0,0,1-.918-2.039,2.687,2.687,0,0,1,1.121-2.32A5.529,5.529,0,0,1-2.013-5.81H-.844v-.545a1.567,1.567,0,0,0-.338-1.055,1.331,1.331,0,0,0-1.068-.4A1.513,1.513,0,0,0-3.257-7.5a1.045,1.045,0,0,0-.365.844h-2.54a2.551,2.551,0,0,1,.51-1.529,3.37,3.37,0,0,1,1.441-1.1,5.253,5.253,0,0,1,2.092-.4A4.15,4.15,0,0,1,.672-8.8,3.09,3.09,0,0,1,1.7-6.319V-2.2A4.546,4.546,0,0,0,2.082-.149V0Zm-2.1-1.767a2.188,2.188,0,0,0,1.037-.25,1.645,1.645,0,0,0,.7-.672V-4.324h-.949q-1.907,0-2.03,1.318l-.009.149a1.017,1.017,0,0,0,.334.782A1.3,1.3,0,0,0-2.585-1.767ZM6.037-9.51l.079,1.063A3.342,3.342,0,0,1,8.85-9.686a2.536,2.536,0,0,1,2.522,1.45,3.265,3.265,0,0,1,2.856-1.45,2.836,2.836,0,0,1,2.3.9,4.141,4.141,0,0,1,.756,2.711V0H14.739V-6.064a1.811,1.811,0,0,0-.316-1.182,1.4,1.4,0,0,0-1.116-.374,1.585,1.585,0,0,0-1.582,1.09L11.733,0H9.193V-6.056a1.789,1.789,0,0,0-.325-1.2A1.416,1.416,0,0,0,7.76-7.62a1.646,1.646,0,0,0-1.564.9V0H3.656V-9.51ZM21.919,0H19.37V-9.51h2.549Zm-2.7-11.971a1.251,1.251,0,0,1,.382-.94,1.436,1.436,0,0,1,1.042-.369,1.44,1.44,0,0,1,1.037.369,1.244,1.244,0,0,1,.387.94,1.247,1.247,0,0,1-.391.949,1.443,1.443,0,0,1-1.033.369,1.443,1.443,0,0,1-1.033-.369A1.247,1.247,0,0,1,19.221-11.971ZM28.388.176a4.668,4.668,0,0,1-3.406-1.283,4.561,4.561,0,0,1-1.314-3.419v-.246a5.745,5.745,0,0,1,.554-2.562,4.064,4.064,0,0,1,1.569-1.74,4.4,4.4,0,0,1,2.316-.611,3.947,3.947,0,0,1,3.072,1.23A5,5,0,0,1,32.3-4.966v1.037H26.244a2.36,2.36,0,0,0,.743,1.494,2.245,2.245,0,0,0,1.569.563,2.742,2.742,0,0,0,2.294-1.063l1.248,1.4A3.813,3.813,0,0,1,30.55-.277,5.075,5.075,0,0,1,28.388.176ZM28.1-7.638a1.587,1.587,0,0,0-1.226.512,2.651,2.651,0,0,0-.6,1.466H29.8v-.2a1.891,1.891,0,0,0-.457-1.311A1.638,1.638,0,0,0,28.1-7.638Zm7.98-1.872.079,1.1a3.32,3.32,0,0,1,2.733-1.274,2.759,2.759,0,0,1,2.25.888A4.142,4.142,0,0,1,41.9-6.144V0h-2.54V-6.082a1.648,1.648,0,0,0-.352-1.173,1.574,1.574,0,0,0-1.169-.365,1.747,1.747,0,0,0-1.608.914V0h-2.54V-9.51Zm10.784-2.338V-9.51h1.626v1.863H46.863V-2.9a1.133,1.133,0,0,0,.2.756,1.015,1.015,0,0,0,.773.229,4.051,4.051,0,0,0,.747-.062V-.053a5.229,5.229,0,0,1-1.538.229,2.425,2.425,0,0,1-2.725-2.7V-7.646H42.934V-9.51h1.389v-2.338Zm2.13,7a5.64,5.64,0,0,1,.545-2.522,3.989,3.989,0,0,1,1.569-1.714,4.577,4.577,0,0,1,2.377-.606,4.33,4.33,0,0,1,3.142,1.178,4.727,4.727,0,0,1,1.358,3.2l.018.65A4.97,4.97,0,0,1,56.78-1.147,4.247,4.247,0,0,1,53.5.176a4.268,4.268,0,0,1-3.283-1.318,5.058,5.058,0,0,1-1.226-3.586Zm2.54.18a3.555,3.555,0,0,0,.51,2.073,1.682,1.682,0,0,0,1.459.717,1.686,1.686,0,0,0,1.441-.709,3.89,3.89,0,0,0,.519-2.267,3.519,3.519,0,0,0-.519-2.06,1.686,1.686,0,0,0-1.459-.731,1.658,1.658,0,0,0-1.441.726A3.955,3.955,0,0,0,51.533-4.662ZM-36.36,17.175a5.731,5.731,0,0,1,1-3.542,3.237,3.237,0,0,1,2.729-1.318,2.913,2.913,0,0,1,2.294,1.037V8.5h2.549V22h-2.294l-.123-1.011a2.989,2.989,0,0,1-2.443,1.187,3.228,3.228,0,0,1-2.694-1.323A5.916,5.916,0,0,1-36.36,17.175Zm2.54.189a3.754,3.754,0,0,0,.466,2.051A1.517,1.517,0,0,0-32,20.128a1.7,1.7,0,0,0,1.661-.995V15.375a1.675,1.675,0,0,0-1.644-.995Q-33.82,14.38-33.82,17.364Zm12.375,4.812a4.668,4.668,0,0,1-3.406-1.283,4.561,4.561,0,0,1-1.314-3.419v-.246a5.745,5.745,0,0,1,.554-2.562,4.064,4.064,0,0,1,1.569-1.74,4.4,4.4,0,0,1,2.316-.611,3.947,3.947,0,0,1,3.072,1.23,5,5,0,0,1,1.121,3.489v1.037H-23.59a2.36,2.36,0,0,0,.743,1.494,2.245,2.245,0,0,0,1.569.563,2.742,2.742,0,0,0,2.294-1.063l1.248,1.4a3.813,3.813,0,0,1-1.547,1.261A5.075,5.075,0,0,1-21.445,22.176Zm-.29-7.813a1.587,1.587,0,0,0-1.226.512,2.651,2.651,0,0,0-.6,1.466h3.533v-.2a1.891,1.891,0,0,0-.457-1.311A1.638,1.638,0,0,0-21.735,14.362Zm9.729,2.813a5.731,5.731,0,0,1,1-3.542,3.237,3.237,0,0,1,2.729-1.318,2.913,2.913,0,0,1,2.294,1.037V8.5h2.549V22H-5.73l-.123-1.011A2.989,2.989,0,0,1-8.3,22.176a3.228,3.228,0,0,1-2.694-1.323A5.916,5.916,0,0,1-12.006,17.175Zm2.54.189A3.754,3.754,0,0,0-9,19.415a1.517,1.517,0,0,0,1.354.713,1.7,1.7,0,0,0,1.661-.995V15.375a1.675,1.675,0,0,0-1.644-.995Q-9.466,14.38-9.466,17.364ZM4.043,22a2.821,2.821,0,0,1-.255-.853,3.073,3.073,0,0,1-2.4,1.028,3.376,3.376,0,0,1-2.316-.809,2.6,2.6,0,0,1-.918-2.039,2.687,2.687,0,0,1,1.121-2.32,5.529,5.529,0,0,1,3.239-.817H3.683v-.545a1.567,1.567,0,0,0-.338-1.055,1.331,1.331,0,0,0-1.068-.4A1.513,1.513,0,0,0,1.27,14.5a1.045,1.045,0,0,0-.365.844h-2.54a2.551,2.551,0,0,1,.51-1.529,3.37,3.37,0,0,1,1.441-1.1,5.253,5.253,0,0,1,2.092-.4A4.15,4.15,0,0,1,5.2,13.2a3.09,3.09,0,0,1,1.033,2.483V19.8a4.546,4.546,0,0,0,.378,2.048V22Zm-2.1-1.767a2.188,2.188,0,0,0,1.037-.25,1.645,1.645,0,0,0,.7-.672V17.676H2.733q-1.907,0-2.03,1.318l-.009.149a1.017,1.017,0,0,0,.334.782A1.3,1.3,0,0,0,1.942,20.233Zm9.281-10.081V12.49H12.85v1.863H11.224V19.1a1.133,1.133,0,0,0,.2.756,1.015,1.015,0,0,0,.773.229,4.051,4.051,0,0,0,.747-.062v1.925a5.229,5.229,0,0,1-1.538.229,2.425,2.425,0,0,1-2.725-2.7V14.354H7.295V12.49H8.684V10.152Zm2.382,7a5.64,5.64,0,0,1,.545-2.522,3.989,3.989,0,0,1,1.569-1.714,4.577,4.577,0,0,1,2.377-.606,4.33,4.33,0,0,1,3.142,1.178,4.727,4.727,0,0,1,1.358,3.2l.018.65a4.97,4.97,0,0,1-1.222,3.511,4.247,4.247,0,0,1-3.278,1.323,4.268,4.268,0,0,1-3.283-1.318,5.058,5.058,0,0,1-1.226-3.586Zm2.54.18a3.555,3.555,0,0,0,.51,2.073,1.831,1.831,0,0,0,2.9.009,3.89,3.89,0,0,0,.519-2.267,3.519,3.519,0,0,0-.519-2.06,1.686,1.686,0,0,0-1.459-.731,1.658,1.658,0,0,0-1.441.726A3.955,3.955,0,0,0,16.146,17.338Zm13.184,2.035a.818.818,0,0,0-.461-.734,5.241,5.241,0,0,0-1.481-.479q-3.393-.712-3.393-2.883a2.613,2.613,0,0,1,1.05-2.114,4.237,4.237,0,0,1,2.747-.848,4.56,4.56,0,0,1,2.9.853,2.687,2.687,0,0,1,1.085,2.215h-2.54a1.229,1.229,0,0,0-.352-.9,1.488,1.488,0,0,0-1.1-.356,1.52,1.52,0,0,0-.993.29.916.916,0,0,0-.352.738.783.783,0,0,0,.4.681,4.114,4.114,0,0,0,1.349.448,11.019,11.019,0,0,1,1.6.426A2.628,2.628,0,0,1,31.8,19.267a2.481,2.481,0,0,1-1.116,2.1,4.815,4.815,0,0,1-2.883.8,5.029,5.029,0,0,1-2.123-.426,3.561,3.561,0,0,1-1.455-1.169,2.716,2.716,0,0,1-.527-1.6H26.1a1.326,1.326,0,0,0,.5,1.037,1.987,1.987,0,0,0,1.248.36,1.839,1.839,0,0,0,1.1-.277A.861.861,0,0,0,29.329,19.372Z" transform="translate(980.725 2271.37)" fill="#12263f"/>
    <path id="Trazado_202862" data-name="Trazado 202862" d="M13.583,0H203.367A13.583,13.583,0,0,1,216.95,13.583V50.454a13.583,13.583,0,0,1-13.583,13.583H13.584A13.584,13.584,0,0,1,0,50.453V13.583A13.583,13.583,0,0,1,13.583,0Z" transform="translate(500.252 2245.3)" fill="#fdd7ae" stroke="#f78627" stroke-width="2"/>
    <path id="Trazado_202867" data-name="Trazado 202867" d="M8.367-2.637H3.744L2.865,0H.062L4.825-12.8H7.269L12.059,0h-2.8ZM4.456-4.772h3.2L6.047-9.562ZM14.589-9.51l.079,1.1A3.32,3.32,0,0,1,17.4-9.686a2.759,2.759,0,0,1,2.25.888,4.142,4.142,0,0,1,.756,2.654V0h-2.54V-6.082a1.648,1.648,0,0,0-.352-1.173,1.574,1.574,0,0,0-1.169-.365,1.747,1.747,0,0,0-1.608.914V0H12.2V-9.51ZM27.843,0a2.821,2.821,0,0,1-.255-.853,3.073,3.073,0,0,1-2.4,1.028,3.376,3.376,0,0,1-2.316-.809,2.6,2.6,0,0,1-.918-2.039,2.687,2.687,0,0,1,1.121-2.32,5.529,5.529,0,0,1,3.239-.817h1.169v-.545a1.567,1.567,0,0,0-.338-1.055,1.331,1.331,0,0,0-1.068-.4A1.513,1.513,0,0,0,25.07-7.5a1.045,1.045,0,0,0-.365.844h-2.54a2.551,2.551,0,0,1,.51-1.529,3.37,3.37,0,0,1,1.441-1.1,5.253,5.253,0,0,1,2.092-.4A4.15,4.15,0,0,1,29-8.8a3.09,3.09,0,0,1,1.033,2.483V-2.2a4.546,4.546,0,0,0,.378,2.048V0Zm-2.1-1.767a2.188,2.188,0,0,0,1.037-.25,1.645,1.645,0,0,0,.7-.672V-4.324h-.949q-1.907,0-2.03,1.318l-.009.149a1.017,1.017,0,0,0,.334.782A1.3,1.3,0,0,0,25.742-1.767ZM26.709-13.5h2.769l-2.435,2.725H24.978ZM34.663,0H32.114V-13.5h2.549Zm4.772,0H36.887V-9.51h2.549Zm-2.7-11.971a1.251,1.251,0,0,1,.382-.94,1.436,1.436,0,0,1,1.042-.369,1.44,1.44,0,0,1,1.037.369,1.244,1.244,0,0,1,.387.94,1.247,1.247,0,0,1-.391.949,1.443,1.443,0,0,1-1.033.369,1.443,1.443,0,0,1-1.033-.369A1.247,1.247,0,0,1,36.737-11.971Zm9.94,9.343a.818.818,0,0,0-.461-.734,5.241,5.241,0,0,0-1.481-.479q-3.393-.712-3.393-2.883a2.613,2.613,0,0,1,1.05-2.114,4.237,4.237,0,0,1,2.747-.848,4.56,4.56,0,0,1,2.9.853,2.687,2.687,0,0,1,1.085,2.215h-2.54a1.229,1.229,0,0,0-.352-.9,1.488,1.488,0,0,0-1.1-.356,1.52,1.52,0,0,0-.993.29.916.916,0,0,0-.352.738.783.783,0,0,0,.4.681,4.114,4.114,0,0,0,1.349.448,11.019,11.019,0,0,1,1.6.426,2.628,2.628,0,0,1,2.013,2.558,2.481,2.481,0,0,1-1.116,2.1,4.815,4.815,0,0,1-2.883.8A5.029,5.029,0,0,1,43.026-.25a3.561,3.561,0,0,1-1.455-1.169,2.716,2.716,0,0,1-.527-1.6h2.408a1.326,1.326,0,0,0,.5,1.037,1.987,1.987,0,0,0,1.248.36A1.839,1.839,0,0,0,46.3-1.9.861.861,0,0,0,46.678-2.628ZM53.463,0H50.914V-9.51h2.549Zm-2.7-11.971a1.251,1.251,0,0,1,.382-.94,1.436,1.436,0,0,1,1.042-.369,1.44,1.44,0,0,1,1.037.369,1.244,1.244,0,0,1,.387.94,1.247,1.247,0,0,1-.391.949,1.443,1.443,0,0,1-1.033.369,1.443,1.443,0,0,1-1.033-.369A1.247,1.247,0,0,1,50.765-11.971Zm9.94,9.343a.818.818,0,0,0-.461-.734,5.241,5.241,0,0,0-1.481-.479Q55.37-4.553,55.37-6.724a2.613,2.613,0,0,1,1.05-2.114,4.237,4.237,0,0,1,2.747-.848,4.56,4.56,0,0,1,2.9.853,2.687,2.687,0,0,1,1.085,2.215h-2.54a1.229,1.229,0,0,0-.352-.9,1.488,1.488,0,0,0-1.1-.356,1.52,1.52,0,0,0-.993.29.916.916,0,0,0-.352.738.783.783,0,0,0,.4.681,4.114,4.114,0,0,0,1.349.448,11.019,11.019,0,0,1,1.6.426,2.628,2.628,0,0,1,2.013,2.558,2.481,2.481,0,0,1-1.116,2.1,4.815,4.815,0,0,1-2.883.8A5.029,5.029,0,0,1,57.053-.25,3.561,3.561,0,0,1,55.6-1.419a2.716,2.716,0,0,1-.527-1.6H57.48a1.326,1.326,0,0,0,.5,1.037,1.987,1.987,0,0,0,1.248.36,1.839,1.839,0,0,0,1.1-.277A.861.861,0,0,0,60.705-2.628Z" transform="translate(575.843 2273.062)" fill="#12263f"/>
    <path id="Trazado_202863" data-name="Trazado 202863" d="M1.039-4.617a12.079,12.079,0,0,1,.473-3.391,9.85,9.85,0,0,1,1.41-2.953,6,6,0,0,1,1.945-1.875l.3.953A6.222,6.222,0,0,0,3.293-9.211a11.583,11.583,0,0,0-.8,4.023l-.008.664A11.643,11.643,0,0,0,3.586.711,6.252,6.252,0,0,0,5.164,2.789l-.3.883A6.192,6.192,0,0,1,2.883,1.734,10.859,10.859,0,0,1,1.039-4.617ZM8.4,0H6.9V-11.375H8.4Zm3.883-8.453.047,1.063a3.08,3.08,0,0,1,2.531-1.219q2.68,0,2.7,3.023V0H16.117V-5.594A1.946,1.946,0,0,0,15.7-6.945a1.675,1.675,0,0,0-1.277-.437,2.086,2.086,0,0,0-1.234.375,2.546,2.546,0,0,0-.828.984V0H10.914V-8.453ZM21.7-10.5v2.047h1.578v1.117H21.7v5.249a1.173,1.173,0,0,0,.211.763.888.888,0,0,0,.719.254,3.5,3.5,0,0,0,.688-.094V0a4.215,4.215,0,0,1-1.109.155A1.8,1.8,0,0,1,20.75-.43a2.517,2.517,0,0,1-.492-1.664V-7.336H18.719V-8.453h1.539V-10.5ZM28.477.156a3.693,3.693,0,0,1-2.8-1.129A4.19,4.19,0,0,1,24.6-3.992v-.266a5.073,5.073,0,0,1,.48-2.246,3.748,3.748,0,0,1,1.344-1.547A3.378,3.378,0,0,1,28.3-8.609a3.166,3.166,0,0,1,2.563,1.086,4.7,4.7,0,0,1,.914,3.109v.6H26.047a3,3,0,0,0,.73,2.02,2.3,2.3,0,0,0,1.777.77,2.517,2.517,0,0,0,1.3-.312,3.259,3.259,0,0,0,.93-.828l.883.688A3.55,3.55,0,0,1,28.477.156ZM28.3-7.422a1.928,1.928,0,0,0-1.469.637A3.1,3.1,0,0,0,26.094-5h4.234v-.109a2.753,2.753,0,0,0-.594-1.707A1.815,1.815,0,0,0,28.3-7.422Zm9.234.266a4.331,4.331,0,0,0-.711-.055A1.9,1.9,0,0,0,34.891-6V0H33.445V-8.453h1.406l.023.977a2.251,2.251,0,0,1,2.016-1.133,1.477,1.477,0,0,1,.641.109ZM46-4.133a5.062,5.062,0,0,1-.883,3.109A2.829,2.829,0,0,1,42.727.156,3.1,3.1,0,0,1,40.3-.82V3.25H38.859v-11.7h1.32l.07.938A2.977,2.977,0,0,1,42.7-8.609a2.882,2.882,0,0,1,2.41,1.148A5.117,5.117,0,0,1,46-4.266ZM44.555-4.3a3.735,3.735,0,0,0-.609-2.258,1.963,1.963,0,0,0-1.672-.828A2.125,2.125,0,0,0,40.3-6.219V-2.18a2.129,2.129,0,0,0,1.984,1.156,1.954,1.954,0,0,0,1.652-.824A4.077,4.077,0,0,0,44.555-4.3Zm7.367-2.859a4.331,4.331,0,0,0-.711-.055A1.9,1.9,0,0,0,49.281-6V0H47.836V-8.453h1.406l.023.977a2.251,2.251,0,0,1,2.016-1.133,1.477,1.477,0,0,1,.641.109ZM56.465.156a3.693,3.693,0,0,1-2.8-1.129,4.19,4.19,0,0,1-1.078-3.02v-.266a5.073,5.073,0,0,1,.48-2.246,3.748,3.748,0,0,1,1.344-1.547,3.378,3.378,0,0,1,1.871-.559,3.166,3.166,0,0,1,2.563,1.086,4.7,4.7,0,0,1,.914,3.109v.6H54.036a3,3,0,0,0,.73,2.02,2.3,2.3,0,0,0,1.777.77,2.517,2.517,0,0,0,1.3-.312,3.259,3.259,0,0,0,.93-.828l.883.688A3.55,3.55,0,0,1,56.465.156Zm-.18-7.578a1.928,1.928,0,0,0-1.469.637A3.1,3.1,0,0,0,54.083-5h4.234v-.109a2.753,2.753,0,0,0-.594-1.707A1.815,1.815,0,0,0,56.286-7.422ZM63.4-10.5v2.047h1.578v1.117H63.4v5.249a1.173,1.173,0,0,0,.211.763.888.888,0,0,0,.719.254,3.5,3.5,0,0,0,.688-.094V0A4.215,4.215,0,0,1,63.9.156,1.8,1.8,0,0,1,62.442-.43a2.517,2.517,0,0,1-.492-1.664V-7.336H60.411V-8.453H61.95V-10.5ZM71.879,0a3.036,3.036,0,0,1-.2-.891A3.225,3.225,0,0,1,69.27.156a2.984,2.984,0,0,1-2.051-.707,2.288,2.288,0,0,1-.8-1.793,2.39,2.39,0,0,1,1-2.051,4.733,4.733,0,0,1,2.824-.73h1.406v-.664A1.623,1.623,0,0,0,71.2-7a1.821,1.821,0,0,0-1.336-.449,2.108,2.108,0,0,0-1.3.391,1.151,1.151,0,0,0-.523.945H66.59a2,2,0,0,1,.449-1.223,3.066,3.066,0,0,1,1.219-.934,4.1,4.1,0,0,1,1.691-.344,3.342,3.342,0,0,1,2.289.73A2.635,2.635,0,0,1,73.1-5.867v3.891a4.757,4.757,0,0,0,.3,1.852V0Zm-2.4-1.1a2.54,2.54,0,0,0,1.289-.352,2.127,2.127,0,0,0,.883-.914V-4.1H70.52q-2.656,0-2.656,1.555a1.316,1.316,0,0,0,.453,1.063A1.742,1.742,0,0,0,69.481-1.1Zm9.273.078a2.082,2.082,0,0,0,1.352-.469,1.649,1.649,0,0,0,.641-1.172h1.367a2.621,2.621,0,0,1-.5,1.383,3.293,3.293,0,0,1-1.23,1.047,3.55,3.55,0,0,1-1.629.391A3.482,3.482,0,0,1,76.008-1a4.59,4.59,0,0,1-1.02-3.152v-.242a5.089,5.089,0,0,1,.453-2.2,3.451,3.451,0,0,1,1.3-1.492,3.7,3.7,0,0,1,2-.531,3.39,3.39,0,0,1,2.363.852,3.043,3.043,0,0,1,1,2.211H80.747a1.992,1.992,0,0,0-.621-1.348,1.932,1.932,0,0,0-1.379-.527,2.023,2.023,0,0,0-1.707.793,3.724,3.724,0,0,0-.605,2.293v.273a3.65,3.65,0,0,0,.6,2.25A2.033,2.033,0,0,0,78.754-1.023ZM85.309,0H83.864V-8.453h1.445ZM83.747-10.7a.863.863,0,0,1,.215-.594.807.807,0,0,1,.637-.242.819.819,0,0,1,.641.242.854.854,0,0,1,.219.594.826.826,0,0,1-.219.586.834.834,0,0,1-.641.234.821.821,0,0,1-.637-.234A.834.834,0,0,1,83.747-10.7ZM87.239-4.3a4.993,4.993,0,0,1,.488-2.234A3.643,3.643,0,0,1,89.086-8.07a3.7,3.7,0,0,1,1.988-.539,3.565,3.565,0,0,1,2.793,1.2,4.6,4.6,0,0,1,1.066,3.18v.1a5.036,5.036,0,0,1-.473,2.215A3.589,3.589,0,0,1,93.11-.391a3.743,3.743,0,0,1-2.02.547,3.556,3.556,0,0,1-2.785-1.2A4.575,4.575,0,0,1,87.239-4.2Zm1.453.172a3.616,3.616,0,0,0,.652,2.258,2.088,2.088,0,0,0,1.746.852,2.075,2.075,0,0,0,1.75-.863A3.955,3.955,0,0,0,93.489-4.3a3.61,3.61,0,0,0-.66-2.254,2.1,2.1,0,0,0-1.754-.863,2.075,2.075,0,0,0-1.727.852A3.925,3.925,0,0,0,88.692-4.133ZM91.731-12h1.75L91.387-9.7l-1.164,0Zm6.383,3.547.047,1.063a3.08,3.08,0,0,1,2.531-1.219q2.68,0,2.7,3.023V0H101.95V-5.594a1.946,1.946,0,0,0-.418-1.352,1.675,1.675,0,0,0-1.277-.437,2.086,2.086,0,0,0-1.234.375,2.546,2.546,0,0,0-.828.984V0H96.747V-8.453ZM109.184-4.3a4.952,4.952,0,0,1,.922-3.129,2.915,2.915,0,0,1,2.414-1.184,2.932,2.932,0,0,1,2.352,1.016V-12h1.445V0h-1.328l-.07-.906A2.943,2.943,0,0,1,112.5.156a2.887,2.887,0,0,1-2.395-1.2,5.008,5.008,0,0,1-.926-3.141Zm1.445.164a3.749,3.749,0,0,0,.594,2.25,1.92,1.92,0,0,0,1.641.813A2.109,2.109,0,0,0,114.872-2.3V-6.187a2.125,2.125,0,0,0-1.992-1.2,1.929,1.929,0,0,0-1.656.82A4.128,4.128,0,0,0,110.629-4.133ZM122.067.156a3.693,3.693,0,0,1-2.8-1.129,4.19,4.19,0,0,1-1.078-3.02v-.266a5.073,5.073,0,0,1,.48-2.246,3.748,3.748,0,0,1,1.344-1.547,3.378,3.378,0,0,1,1.871-.559,3.166,3.166,0,0,1,2.563,1.086,4.7,4.7,0,0,1,.914,3.109v.6h-5.727a3,3,0,0,0,.73,2.02,2.3,2.3,0,0,0,1.777.77,2.517,2.517,0,0,0,1.3-.312,3.259,3.259,0,0,0,.93-.828l.883.688A3.55,3.55,0,0,1,122.067.156Zm-.18-7.578a1.928,1.928,0,0,0-1.469.637A3.1,3.1,0,0,0,119.684-5h4.234v-.109a2.753,2.753,0,0,0-.594-1.707A1.815,1.815,0,0,0,121.887-7.422ZM130.645-4.3a4.952,4.952,0,0,1,.922-3.129,2.915,2.915,0,0,1,2.414-1.184,2.932,2.932,0,0,1,2.352,1.016V-12h1.445V0H136.45l-.07-.906A2.943,2.943,0,0,1,133.965.156a2.887,2.887,0,0,1-2.395-1.2,5.008,5.008,0,0,1-.926-3.141Zm1.445.164a3.749,3.749,0,0,0,.594,2.25,1.919,1.919,0,0,0,1.641.813A2.108,2.108,0,0,0,136.333-2.3V-6.187a2.125,2.125,0,0,0-1.992-1.2,1.929,1.929,0,0,0-1.656.82A4.128,4.128,0,0,0,132.09-4.133ZM145.239,0a3.036,3.036,0,0,1-.2-.891A3.225,3.225,0,0,1,142.629.156a2.984,2.984,0,0,1-2.051-.707,2.287,2.287,0,0,1-.8-1.793,2.39,2.39,0,0,1,1-2.051,4.733,4.733,0,0,1,2.824-.73h1.406v-.664A1.623,1.623,0,0,0,144.559-7a1.821,1.821,0,0,0-1.336-.449,2.107,2.107,0,0,0-1.3.391,1.151,1.151,0,0,0-.523.945H139.95a2,2,0,0,1,.449-1.223,3.066,3.066,0,0,1,1.219-.934,4.1,4.1,0,0,1,1.691-.344,3.342,3.342,0,0,1,2.289.73,2.635,2.635,0,0,1,.859,2.012v3.891a4.757,4.757,0,0,0,.3,1.852V0Zm-2.4-1.1a2.54,2.54,0,0,0,1.289-.352,2.127,2.127,0,0,0,.883-.914V-4.1h-1.133q-2.656,0-2.656,1.555a1.316,1.316,0,0,0,.453,1.063A1.742,1.742,0,0,0,142.84-1.1Zm7.844-9.4v2.047h1.578v1.117h-1.578v5.249a1.173,1.173,0,0,0,.211.763.888.888,0,0,0,.719.254,3.5,3.5,0,0,0,.688-.094V0a4.215,4.215,0,0,1-1.109.155,1.8,1.8,0,0,1-1.461-.586,2.517,2.517,0,0,1-.492-1.664V-7.336H147.7V-8.453h1.539V-10.5Zm2.551,6.2a4.993,4.993,0,0,1,.488-2.234,3.642,3.642,0,0,1,1.359-1.531,3.7,3.7,0,0,1,1.988-.539,3.565,3.565,0,0,1,2.793,1.2,4.6,4.6,0,0,1,1.066,3.18v.1a5.036,5.036,0,0,1-.473,2.215,3.589,3.589,0,0,1-1.352,1.527,3.743,3.743,0,0,1-2.02.547,3.556,3.556,0,0,1-2.785-1.2A4.575,4.575,0,0,1,153.235-4.2Zm1.453.172a3.616,3.616,0,0,0,.652,2.258,2.088,2.088,0,0,0,1.746.852,2.075,2.075,0,0,0,1.75-.863,3.954,3.954,0,0,0,.648-2.418,3.61,3.61,0,0,0-.66-2.254,2.1,2.1,0,0,0-1.754-.863,2.075,2.075,0,0,0-1.727.852A3.925,3.925,0,0,0,154.688-4.133Zm12.977,1.891a1.064,1.064,0,0,0-.441-.91,4.249,4.249,0,0,0-1.539-.559,7.277,7.277,0,0,1-1.742-.562,2.479,2.479,0,0,1-.953-.781,1.869,1.869,0,0,1-.309-1.078,2.193,2.193,0,0,1,.879-1.758,3.432,3.432,0,0,1,2.246-.719,3.532,3.532,0,0,1,2.332.742,2.357,2.357,0,0,1,.895,1.9h-1.453a1.3,1.3,0,0,0-.5-1.023,1.888,1.888,0,0,0-1.27-.43,1.976,1.976,0,0,0-1.234.344,1.082,1.082,0,0,0-.445.9.877.877,0,0,0,.414.789,5.1,5.1,0,0,0,1.5.508,7.8,7.8,0,0,1,1.754.578,2.558,2.558,0,0,1,1,.809,1.988,1.988,0,0,1,.324,1.152A2.163,2.163,0,0,1,168.2-.527a3.8,3.8,0,0,1-2.352.684,4.257,4.257,0,0,1-1.8-.359,2.922,2.922,0,0,1-1.223-1,2.42,2.42,0,0,1-.441-1.395h1.445a1.5,1.5,0,0,0,.582,1.152,2.258,2.258,0,0,0,1.434.426,2.331,2.331,0,0,0,1.316-.332A1.02,1.02,0,0,0,167.664-2.242Zm6.664-2.3a12.084,12.084,0,0,1-.457,3.34,9.876,9.876,0,0,1-1.4,2.949A6.127,6.127,0,0,1,170.5,3.672l-.3-.883a6.281,6.281,0,0,0,1.934-2.863,12.387,12.387,0,0,0,.746-4.309v-.25a12.861,12.861,0,0,0-.344-3.051,10.3,10.3,0,0,0-.957-2.527,5.838,5.838,0,0,0-1.379-1.742l.3-.883a6.1,6.1,0,0,1,1.965,1.906,9.9,9.9,0,0,1,1.4,2.945A12.364,12.364,0,0,1,174.328-4.539Z" transform="translate(518.756 2295.63)" fill="#12263f"/>
    <path id="Trazado_202865" data-name="Trazado 202865" d="M13,0H184.551a13,13,0,0,1,13,13V51.035a13,13,0,0,1-13,13H13a13,13,0,0,1-13-13V13A13,13,0,0,1,13,0Z" transform="translate(476.024 2063.514)" fill="#fdd7ae" stroke="#f78627" stroke-width="2"/>
    <path id="Trazado_202868" data-name="Trazado 202868" d="M-34.683-1.617A4.577,4.577,0,0,1-36.7-.294a8.429,8.429,0,0,1-2.883.47,5.711,5.711,0,0,1-2.914-.725,4.836,4.836,0,0,1-1.934-2.1,7.408,7.408,0,0,1-.7-3.243v-.87a7.868,7.868,0,0,1,.646-3.318,4.779,4.779,0,0,1,1.863-2.145,5.367,5.367,0,0,1,2.852-.743,5.345,5.345,0,0,1,3.56,1.085,4.639,4.639,0,0,1,1.521,3.16h-2.566a2.552,2.552,0,0,0-.778-1.608,2.484,2.484,0,0,0-1.657-.51,2.338,2.338,0,0,0-2.048,1.011,5.315,5.315,0,0,0-.712,3.006v.817a5.06,5.06,0,0,0,.765,3.041,2.618,2.618,0,0,0,2.241,1.028,2.925,2.925,0,0,0,2.118-.633V-4.781h-2.4V-6.724h5.036ZM-28.337.176a4.668,4.668,0,0,1-3.406-1.283,4.561,4.561,0,0,1-1.314-3.419v-.246A5.745,5.745,0,0,1-32.5-7.334a4.064,4.064,0,0,1,1.569-1.74,4.4,4.4,0,0,1,2.316-.611,3.947,3.947,0,0,1,3.072,1.23,5,5,0,0,1,1.121,3.489v1.037h-6.056a2.36,2.36,0,0,0,.743,1.494,2.245,2.245,0,0,0,1.569.563,2.742,2.742,0,0,0,2.294-1.063l1.248,1.4A3.813,3.813,0,0,1-26.175-.277,5.075,5.075,0,0,1-28.337.176Zm-.29-7.813a1.587,1.587,0,0,0-1.226.512,2.651,2.651,0,0,0-.6,1.466h3.533v-.2a1.891,1.891,0,0,0-.457-1.311A1.638,1.638,0,0,0-28.627-7.638Zm7.98-1.872.079,1.1a3.32,3.32,0,0,1,2.733-1.274,2.759,2.759,0,0,1,2.25.888,4.142,4.142,0,0,1,.756,2.654V0h-2.54V-6.082a1.648,1.648,0,0,0-.352-1.173,1.574,1.574,0,0,0-1.169-.365,1.747,1.747,0,0,0-1.608.914V0h-2.54V-9.51ZM-8.527.176a4.668,4.668,0,0,1-3.406-1.283,4.561,4.561,0,0,1-1.314-3.419v-.246a5.745,5.745,0,0,1,.554-2.562,4.064,4.064,0,0,1,1.569-1.74,4.4,4.4,0,0,1,2.316-.611,3.947,3.947,0,0,1,3.072,1.23A5,5,0,0,1-4.615-4.966v1.037h-6.056a2.36,2.36,0,0,0,.743,1.494,2.245,2.245,0,0,0,1.569.563A2.742,2.742,0,0,0-6.066-2.936l1.248,1.4A3.813,3.813,0,0,1-6.365-.277,5.075,5.075,0,0,1-8.527.176Zm-.29-7.813a1.587,1.587,0,0,0-1.226.512,2.651,2.651,0,0,0-.6,1.466h3.533v-.2a1.891,1.891,0,0,0-.457-1.311A1.638,1.638,0,0,0-8.817-7.638Zm10.986.51a6.9,6.9,0,0,0-.914-.07,1.86,1.86,0,0,0-1.89.976V0h-2.54V-9.51h2.4L-.7-8.376a2.354,2.354,0,0,1,2.118-1.31,2.662,2.662,0,0,1,.791.114ZM8.368,0a2.821,2.821,0,0,1-.255-.853A3.073,3.073,0,0,1,5.714.176,3.376,3.376,0,0,1,3.4-.633,2.6,2.6,0,0,1,2.48-2.672,2.687,2.687,0,0,1,3.6-4.992,5.529,5.529,0,0,1,6.839-5.81H8.008v-.545A1.567,1.567,0,0,0,7.67-7.409,1.331,1.331,0,0,0,6.6-7.8,1.513,1.513,0,0,0,5.6-7.5a1.045,1.045,0,0,0-.365.844H2.691A2.551,2.551,0,0,1,3.2-8.183a3.37,3.37,0,0,1,1.441-1.1,5.253,5.253,0,0,1,2.092-.4A4.15,4.15,0,0,1,9.524-8.8a3.09,3.09,0,0,1,1.033,2.483V-2.2a4.546,4.546,0,0,0,.378,2.048V0Zm-2.1-1.767A2.188,2.188,0,0,0,7.3-2.017a1.645,1.645,0,0,0,.7-.672V-4.324H7.059q-1.907,0-2.03,1.318l-.009.149a1.017,1.017,0,0,0,.334.782A1.3,1.3,0,0,0,6.268-1.767Zm10.2-.105a1.666,1.666,0,0,0,1.143-.387,1.355,1.355,0,0,0,.457-1.028h2.382a3.258,3.258,0,0,1-.527,1.771A3.48,3.48,0,0,1,18.5-.268a4.442,4.442,0,0,1-1.991.444,4.129,4.129,0,0,1-3.217-1.3A5.13,5.13,0,0,1,12.113-4.7v-.167a5.071,5.071,0,0,1,1.169-3.507,4.08,4.08,0,0,1,3.208-1.31A4,4,0,0,1,19.35-8.67a3.594,3.594,0,0,1,1.094,2.7H18.063a1.745,1.745,0,0,0-.457-1.206,1.524,1.524,0,0,0-1.16-.464,1.53,1.53,0,0,0-1.34.647,3.749,3.749,0,0,0-.453,2.1v.264A3.8,3.8,0,0,0,15.1-2.515,1.549,1.549,0,0,0,16.463-1.872ZM24.575,0H22.027V-9.51h2.549Zm-2.7-11.971a1.251,1.251,0,0,1,.382-.94A1.436,1.436,0,0,1,23.3-13.28a1.44,1.44,0,0,1,1.037.369,1.244,1.244,0,0,1,.387.94,1.247,1.247,0,0,1-.391.949,1.443,1.443,0,0,1-1.033.369,1.443,1.443,0,0,1-1.033-.369A1.247,1.247,0,0,1,21.877-11.971Zm4.395,7.128a5.64,5.64,0,0,1,.545-2.522,3.989,3.989,0,0,1,1.569-1.714,4.577,4.577,0,0,1,2.377-.606,4.33,4.33,0,0,1,3.142,1.178,4.727,4.727,0,0,1,1.358,3.2l.018.65a4.97,4.97,0,0,1-1.222,3.511A4.247,4.247,0,0,1,30.781.176,4.268,4.268,0,0,1,27.5-1.143a5.058,5.058,0,0,1-1.226-3.586Zm2.54.18a3.555,3.555,0,0,0,.51,2.073,1.682,1.682,0,0,0,1.459.717,1.686,1.686,0,0,0,1.441-.709,3.89,3.89,0,0,0,.519-2.267,3.519,3.519,0,0,0-.519-2.06,1.686,1.686,0,0,0-1.459-.731,1.658,1.658,0,0,0-1.441.726A3.955,3.955,0,0,0,28.812-4.662ZM31.264-13.5h2.769L31.6-10.775H29.532Zm7.919,3.99.079,1.1A3.32,3.32,0,0,1,42-9.686a2.759,2.759,0,0,1,2.25.888A4.142,4.142,0,0,1,45-6.144V0h-2.54V-6.082a1.648,1.648,0,0,0-.352-1.173,1.574,1.574,0,0,0-1.169-.365,1.747,1.747,0,0,0-1.608.914V0h-2.54V-9.51ZM-52.66,17.175a5.731,5.731,0,0,1,1-3.542,3.237,3.237,0,0,1,2.729-1.318,2.913,2.913,0,0,1,2.294,1.037V8.5h2.549V22h-2.294l-.123-1.011a2.989,2.989,0,0,1-2.443,1.187,3.228,3.228,0,0,1-2.694-1.323A5.916,5.916,0,0,1-52.66,17.175Zm2.54.189a3.754,3.754,0,0,0,.466,2.051,1.517,1.517,0,0,0,1.354.713,1.7,1.7,0,0,0,1.661-.995V15.375a1.675,1.675,0,0,0-1.644-.995Q-50.12,14.38-50.12,17.364Zm12.375,4.812a4.668,4.668,0,0,1-3.406-1.283,4.561,4.561,0,0,1-1.314-3.419v-.246a5.745,5.745,0,0,1,.554-2.562,4.064,4.064,0,0,1,1.569-1.74,4.4,4.4,0,0,1,2.316-.611,3.947,3.947,0,0,1,3.072,1.23,5,5,0,0,1,1.121,3.489v1.037h-6.056a2.36,2.36,0,0,0,.743,1.494,2.245,2.245,0,0,0,1.569.563,2.742,2.742,0,0,0,2.294-1.063l1.248,1.4a3.813,3.813,0,0,1-1.547,1.261A5.075,5.075,0,0,1-37.745,22.176Zm-.29-7.813a1.587,1.587,0,0,0-1.226.512,2.651,2.651,0,0,0-.6,1.466h3.533v-.2a1.891,1.891,0,0,0-.457-1.311A1.638,1.638,0,0,0-38.035,14.362Zm12.6-.835a3.17,3.17,0,0,1,2.54-1.213q3.094,0,3.138,3.595V22h-2.54V15.979a1.767,1.767,0,0,0-.352-1.208,1.507,1.507,0,0,0-1.169-.391,1.729,1.729,0,0,0-1.617.861V22h-2.54V8.5h2.54ZM-12.327,22a2.821,2.821,0,0,1-.255-.853,3.073,3.073,0,0,1-2.4,1.028,3.376,3.376,0,0,1-2.316-.809,2.6,2.6,0,0,1-.918-2.039,2.687,2.687,0,0,1,1.121-2.32,5.529,5.529,0,0,1,3.239-.817h1.169v-.545a1.567,1.567,0,0,0-.338-1.055,1.331,1.331,0,0,0-1.068-.4A1.513,1.513,0,0,0-15.1,14.5a1.045,1.045,0,0,0-.365.844H-18a2.551,2.551,0,0,1,.51-1.529,3.37,3.37,0,0,1,1.441-1.1,5.253,5.253,0,0,1,2.092-.4,4.15,4.15,0,0,1,2.791.883,3.09,3.09,0,0,1,1.033,2.483V19.8a4.546,4.546,0,0,0,.378,2.048V22Zm-2.1-1.767a2.188,2.188,0,0,0,1.037-.25,1.645,1.645,0,0,0,.7-.672V17.676h-.949q-1.907,0-2.03,1.318l-.009.149a1.017,1.017,0,0,0,.334.782A1.3,1.3,0,0,0-14.427,20.233ZM-5.506,22H-8.055V8.5h2.549Zm4.772,0H-3.283V8.5H-.734Zm7.6,0a2.821,2.821,0,0,1-.255-.853,3.073,3.073,0,0,1-2.4,1.028A3.376,3.376,0,0,1,1.9,21.367,2.6,2.6,0,0,1,.98,19.328,2.687,2.687,0,0,1,2.1,17.008a5.529,5.529,0,0,1,3.239-.817H6.508v-.545a1.567,1.567,0,0,0-.338-1.055A1.331,1.331,0,0,0,5.1,14.2,1.513,1.513,0,0,0,4.1,14.5a1.045,1.045,0,0,0-.365.844H1.191a2.551,2.551,0,0,1,.51-1.529,3.37,3.37,0,0,1,1.441-1.1,5.253,5.253,0,0,1,2.092-.4,4.15,4.15,0,0,1,2.791.883,3.09,3.09,0,0,1,1.033,2.483V19.8a4.546,4.546,0,0,0,.378,2.048V22Zm-2.1-1.767a2.188,2.188,0,0,0,1.037-.25,1.645,1.645,0,0,0,.7-.672V17.676H5.559q-1.907,0-2.03,1.318l-.009.149a1.017,1.017,0,0,0,.334.782A1.3,1.3,0,0,0,4.768,20.233Zm9.158-.281h4.649V22H10.683V20.453l4.474-5.915H10.815V12.49h7.62v1.5Zm5.73-2.777A5.573,5.573,0,0,1,20.7,13.65a3.375,3.375,0,0,1,2.808-1.336,2.96,2.96,0,0,1,2.435,1.072l.105-.9h2.3v9.193a4.064,4.064,0,0,1-.567,2.171,3.641,3.641,0,0,1-1.6,1.406,5.608,5.608,0,0,1-2.408.483,5.215,5.215,0,0,1-2.039-.417,3.619,3.619,0,0,1-1.5-1.077L21.362,22.7a2.975,2.975,0,0,0,2.3,1.063,2.178,2.178,0,0,0,1.573-.541,2.027,2.027,0,0,0,.563-1.534v-.51a2.938,2.938,0,0,1-2.312.993,3.366,3.366,0,0,1-2.773-1.34,5.572,5.572,0,0,1-1.059-3.555Zm2.54.189a3.47,3.47,0,0,0,.519,2.029,1.65,1.65,0,0,0,1.424.735,1.764,1.764,0,0,0,1.661-.871V15.251a1.76,1.76,0,0,0-1.644-.871,1.66,1.66,0,0,0-1.437.748A3.911,3.911,0,0,0,22.2,17.364Zm7.708-.207a5.64,5.64,0,0,1,.545-2.522,3.989,3.989,0,0,1,1.569-1.714,4.577,4.577,0,0,1,2.377-.606,4.33,4.33,0,0,1,3.142,1.178,4.727,4.727,0,0,1,1.358,3.2l.018.65a4.97,4.97,0,0,1-1.222,3.511,4.247,4.247,0,0,1-3.278,1.323,4.268,4.268,0,0,1-3.283-1.318A5.058,5.058,0,0,1,29.9,17.271Zm2.54.18a3.555,3.555,0,0,0,.51,2.073,1.831,1.831,0,0,0,2.9.009,3.89,3.89,0,0,0,.519-2.267,3.519,3.519,0,0,0-.519-2.06,1.686,1.686,0,0,0-1.459-.731,1.658,1.658,0,0,0-1.441.726A3.955,3.955,0,0,0,32.445,17.338Zm13.184,2.035a.818.818,0,0,0-.461-.734,5.241,5.241,0,0,0-1.481-.479q-3.393-.712-3.393-2.883a2.613,2.613,0,0,1,1.05-2.114,4.237,4.237,0,0,1,2.747-.848,4.56,4.56,0,0,1,2.9.853,2.687,2.687,0,0,1,1.085,2.215h-2.54a1.229,1.229,0,0,0-.352-.9,1.488,1.488,0,0,0-1.1-.356,1.52,1.52,0,0,0-.993.29.916.916,0,0,0-.352.738.783.783,0,0,0,.4.681,4.114,4.114,0,0,0,1.349.448,11.019,11.019,0,0,1,1.6.426A2.628,2.628,0,0,1,48.1,19.267a2.481,2.481,0,0,1-1.116,2.1,4.815,4.815,0,0,1-2.883.8,5.029,5.029,0,0,1-2.123-.426,3.561,3.561,0,0,1-1.455-1.169,2.716,2.716,0,0,1-.527-1.6H42.4a1.326,1.326,0,0,0,.5,1.037,1.987,1.987,0,0,0,1.248.36,1.839,1.839,0,0,0,1.1-.277A.861.861,0,0,0,45.628,19.372Z" transform="translate(578.33 2090.279)" fill="#12263f"/>
  </g>
</svg>
