<svg xmlns="http://www.w3.org/2000/svg" xmlns:xlink="http://www.w3.org/1999/xlink" width="818.039" height="593.419" viewBox="0 0 818.039 593.419">
  <defs>
    <clipPath id="clip-path">
      <rect id="Rectángulo_297659" data-name="Rectángulo 297659" width="818.039" height="567.508" fill="none"/>
    </clipPath>
  </defs>
  <g id="Grupo_151024" data-name="Grupo 151024" transform="translate(-390.98 -1755)">
    <g id="Grupo_151023" data-name="Grupo 151023">
      <path id="Trazado_202654" data-name="Trazado 202654" d="M606.061,450.612v-105.6l2.517-2.557,17.345-16.8,10.136-1.81H792.681l3.624,1.815,5.169,9.752,12.172,7.045,3.156,7.578V450.612Z" transform="translate(390.98 1755)" fill="#fff"/>
      <path id="Trazado_202655" data-name="Trazado 202655" d="M708.92,322.132v130.13H818.039V346.711l-4.393-4.252V448.732H713.308V325.662h83l-3.648-3.53Z" transform="translate(390.98 1755)" fill="#206897"/>
      <path id="Trazado_202872" data-name="Trazado 202872" d="M0,0H29.652V4.168H0Z" transform="translate(1161.675 2187.671)" fill="#206897"/>
      <path id="Trazado_202873" data-name="Trazado 202873" d="M0,0H29.652V4.168H0Z" transform="translate(1161.675 2178.262)" fill="#206897"/>
      <path id="Trazado_202874" data-name="Trazado 202874" d="M0,0H29.652V4.167H0Z" transform="translate(1161.675 2167.898)" fill="#206897"/>
      <path id="Trazado_202875" data-name="Trazado 202875" d="M0,0H29.652V4.168H0Z" transform="translate(1161.675 2158.174)" fill="#206897"/>
      <path id="Trazado_202876" data-name="Trazado 202876" d="M0,0H29.652V4.163H0Z" transform="translate(1161.675 2148.766)" fill="#206897"/>
      <path id="Trazado_202877" data-name="Trazado 202877" d="M0,0H29.652V4.168H0Z" transform="translate(1161.674 2139.038)" fill="#206897"/>
      <path id="Trazado_202878" data-name="Trazado 202878" d="M0,0H29.652V4.163H0Z" transform="translate(1161.674 2129.718)" fill="#206897"/>
      <path id="Trazado_202879" data-name="Trazado 202879" d="M0,0H29.652V4.168H0Z" transform="translate(1161.674 2119.99)" fill="#206897"/>
      <path id="Trazado_202880" data-name="Trazado 202880" d="M0,0H29.652V4.168H0Z" transform="translate(1161.674 2110.581)" fill="#206897"/>
      <path id="Trazado_202656" data-name="Trazado 202656" d="M796.3,325.662l17.341,16.8H796.3Z" transform="translate(390.98 1755)" fill="#206897"/>
      <path id="Trazado_202881" data-name="Trazado 202881" d="M0,0H29.652V4.172H0Z" transform="translate(1117.151 2187.564)" fill="#206897"/>
      <path id="Trazado_202882" data-name="Trazado 202882" d="M0,0H29.652V4.163H0Z" transform="translate(1117.151 2178.159)" fill="#206897"/>
      <path id="Trazado_202883" data-name="Trazado 202883" d="M0,0H29.652V4.168H0Z" transform="translate(1117.151 2167.789)" fill="#206897"/>
      <path id="Trazado_202884" data-name="Trazado 202884" d="M0,0H29.652V4.168H0Z" transform="translate(1117.151 2158.066)" fill="#206897"/>
      <path id="Trazado_202885" data-name="Trazado 202885" d="M0,0H29.652V4.158H0Z" transform="translate(1117.151 2148.662)" fill="#206897"/>
      <path id="Trazado_202886" data-name="Trazado 202886" d="M0,0H29.652V4.168H0Z" transform="translate(1117.151 2138.929)" fill="#206897"/>
      <path id="Trazado_202887" data-name="Trazado 202887" d="M0,0H29.652V4.163H0Z" transform="translate(1117.151 2129.609)" fill="#206897"/>
      <path id="Trazado_202888" data-name="Trazado 202888" d="M0,0H29.652V4.168H0Z" transform="translate(1117.151 2119.882)" fill="#206897"/>
      <path id="Trazado_202889" data-name="Trazado 202889" d="M0,0H29.652V4.168H0Z" transform="translate(1117.151 2110.473)" fill="#206897"/>
      <path id="Trazado_202657" data-name="Trazado 202657" d="M713.308,322.127H629.565l-3.642,3.53h82.992V448.732H608.577V342.459l-4.388,4.247V452.263H713.308Z" transform="translate(390.98 1755)" fill="#206897"/>
      <path id="Trazado_202658" data-name="Trazado 202658" d="M625.923,325.656l-17.346,16.8h17.346Z" transform="translate(390.98 1755)" fill="#206897"/>
      <path id="Trazado_202890" data-name="Trazado 202890" d="M0,0H69.646V4.168H0Z" transform="translate(1015.965 2188.148)" fill="#206897"/>
      <path id="Trazado_202891" data-name="Trazado 202891" d="M0,0H69.646V4.167H0Z" transform="translate(1015.965 2178.741)" fill="#206897"/>
      <path id="Trazado_202892" data-name="Trazado 202892" d="M0,0H69.646V4.167H0Z" transform="translate(1015.965 2168.376)" fill="#206897"/>
      <path id="Trazado_202893" data-name="Trazado 202893" d="M0,0H69.646V4.167H0Z" transform="translate(1015.965 2158.652)" fill="#206897"/>
      <path id="Trazado_202894" data-name="Trazado 202894" d="M0,0H69.646V4.163H0Z" transform="translate(1015.965 2149.243)" fill="#206897"/>
      <path id="Trazado_202895" data-name="Trazado 202895" d="M0,0H69.646V4.168H0Z" transform="translate(1015.965 2139.516)" fill="#206897"/>
      <path id="Trazado_202896" data-name="Trazado 202896" d="M0,0H69.646V4.163H0Z" transform="translate(1015.965 2130.195)" fill="#206897"/>
      <path id="Trazado_202897" data-name="Trazado 202897" d="M0,0H69.646V4.167H0Z" transform="translate(1015.965 2120.468)" fill="#206897"/>
      <path id="Trazado_202898" data-name="Trazado 202898" d="M0,0H69.646V4.168H0Z" transform="translate(1015.965 2111.059)" fill="#206897"/>
      <path id="Trazado_202659" data-name="Trazado 202659" d="M572.874,483.46v-105.6l2.517-2.557,17.345-16.8,10.136-1.81H759.494l3.624,1.815,5.169,9.752,12.172,7.045,3.156,7.578V483.46Z" transform="translate(390.98 1755)" fill="#fff"/>
      <path id="Trazado_202660" data-name="Trazado 202660" d="M675.733,354.98H759.47l3.648,3.53h-83V481.581H780.459V375.307l4.393,4.252V485.111H675.733Z" transform="translate(390.98 1755)" fill="#206897"/>
      <path id="Trazado_202899" data-name="Trazado 202899" d="M0,0H29.652V4.168H0Z" transform="translate(1128.487 2220.52)" fill="#206897"/>
      <path id="Trazado_202900" data-name="Trazado 202900" d="M0,0H29.652V4.168H0Z" transform="translate(1128.487 2211.109)" fill="#206897"/>
      <path id="Trazado_202901" data-name="Trazado 202901" d="M0,0H29.652V4.167H0Z" transform="translate(1128.487 2200.745)" fill="#206897"/>
      <path id="Trazado_202902" data-name="Trazado 202902" d="M0,0H29.652V4.168H0Z" transform="translate(1128.487 2191.021)" fill="#206897"/>
      <path id="Trazado_202903" data-name="Trazado 202903" d="M0,0H29.652V4.163H0Z" transform="translate(1128.487 2181.613)" fill="#206897"/>
      <path id="Trazado_202904" data-name="Trazado 202904" d="M0,0H29.652V4.168H0Z" transform="translate(1128.487 2171.885)" fill="#206897"/>
      <path id="Trazado_202905" data-name="Trazado 202905" d="M0,0H29.652V4.163H0Z" transform="translate(1128.487 2162.566)" fill="#206897"/>
      <path id="Trazado_202906" data-name="Trazado 202906" d="M0,0H29.652V4.168H0Z" transform="translate(1128.487 2152.838)" fill="#206897"/>
      <path id="Trazado_202907" data-name="Trazado 202907" d="M0,0H29.652V4.168H0Z" transform="translate(1128.487 2143.429)" fill="#206897"/>
      <path id="Trazado_202661" data-name="Trazado 202661" d="M763.118,358.51l17.341,16.8H763.118Z" transform="translate(390.98 1755)" fill="#206897"/>
      <path id="Trazado_202908" data-name="Trazado 202908" d="M0,0H29.652V4.172H0Z" transform="translate(1083.964 2220.412)" fill="#206897"/>
      <path id="Trazado_202909" data-name="Trazado 202909" d="M0,0H29.652V4.163H0Z" transform="translate(1083.964 2211.007)" fill="#206897"/>
      <path id="Trazado_202910" data-name="Trazado 202910" d="M0,0H29.652V4.168H0Z" transform="translate(1083.964 2200.637)" fill="#206897"/>
      <path id="Trazado_202911" data-name="Trazado 202911" d="M0,0H29.652V4.168H0Z" transform="translate(1083.964 2190.914)" fill="#206897"/>
      <path id="Trazado_202912" data-name="Trazado 202912" d="M0,0H29.652V4.158H0Z" transform="translate(1083.964 2181.51)" fill="#206897"/>
      <path id="Trazado_202913" data-name="Trazado 202913" d="M0,0H29.652V4.168H0Z" transform="translate(1083.964 2171.777)" fill="#206897"/>
      <path id="Trazado_202914" data-name="Trazado 202914" d="M0,0H29.652V4.163H0Z" transform="translate(1083.964 2162.458)" fill="#206897"/>
      <path id="Trazado_202915" data-name="Trazado 202915" d="M0,0H29.652V4.168H0Z" transform="translate(1083.964 2152.73)" fill="#206897"/>
      <path id="Trazado_202916" data-name="Trazado 202916" d="M0,0H29.652V4.168H0Z" transform="translate(1083.964 2143.321)" fill="#206897"/>
      <path id="Trazado_202662" data-name="Trazado 202662" d="M680.121,354.975H596.378l-3.642,3.53h82.992V481.58H575.39V375.307L571,379.554V485.111H680.121Z" transform="translate(390.98 1755)" fill="#206897"/>
      <path id="Trazado_202663" data-name="Trazado 202663" d="M592.736,358.5l-17.346,16.8h17.346Z" transform="translate(390.98 1755)" fill="#206897"/>
      <path id="Trazado_202917" data-name="Trazado 202917" d="M0,0H69.646V4.168H0Z" transform="translate(982.779 2220.997)" fill="#206897"/>
      <path id="Trazado_202918" data-name="Trazado 202918" d="M0,0H69.646V4.167H0Z" transform="translate(982.779 2211.589)" fill="#206897"/>
      <path id="Trazado_202919" data-name="Trazado 202919" d="M0,0H69.646V4.167H0Z" transform="translate(982.779 2201.223)" fill="#206897"/>
      <path id="Trazado_202920" data-name="Trazado 202920" d="M0,0H69.646V4.167H0Z" transform="translate(982.779 2191.5)" fill="#206897"/>
      <path id="Trazado_202921" data-name="Trazado 202921" d="M0,0H69.646V4.163H0Z" transform="translate(982.779 2182.091)" fill="#206897"/>
      <path id="Trazado_202922" data-name="Trazado 202922" d="M0,0H69.646V4.168H0Z" transform="translate(982.778 2172.363)" fill="#206897"/>
      <path id="Trazado_202923" data-name="Trazado 202923" d="M0,0H69.646V4.163H0Z" transform="translate(982.778 2163.043)" fill="#206897"/>
      <path id="Trazado_202924" data-name="Trazado 202924" d="M0,0H69.646V4.167H0Z" transform="translate(982.778 2153.316)" fill="#206897"/>
      <path id="Trazado_202925" data-name="Trazado 202925" d="M0,0H69.646V4.168H0Z" transform="translate(982.778 2143.906)" fill="#206897"/>
      <path id="Trazado_202664" data-name="Trazado 202664" d="M540.737,515.181v-105.6l2.517-2.557,17.345-16.8,10.136-1.81H727.357l3.624,1.815,5.169,9.752,12.172,7.045,3.156,7.578V515.181Z" transform="translate(390.98 1755)" fill="#fff"/>
      <path id="Trazado_202665" data-name="Trazado 202665" d="M643.6,386.7h83.737l3.648,3.53h-83V513.3H748.322V407.028l4.393,4.252V516.832H643.6Z" transform="translate(390.98 1755)" fill="#206897"/>
      <path id="Trazado_202926" data-name="Trazado 202926" d="M0,0H29.652V4.168H0Z" transform="translate(1096.35 2252.24)" fill="#206897"/>
      <path id="Trazado_202927" data-name="Trazado 202927" d="M0,0H29.652V4.168H0Z" transform="translate(1096.35 2242.832)" fill="#206897"/>
      <path id="Trazado_202928" data-name="Trazado 202928" d="M0,0H29.652V4.167H0Z" transform="translate(1096.35 2232.467)" fill="#206897"/>
      <path id="Trazado_202929" data-name="Trazado 202929" d="M0,0H29.652V4.168H0Z" transform="translate(1096.35 2222.743)" fill="#206897"/>
      <path id="Trazado_202930" data-name="Trazado 202930" d="M0,0H29.652V4.163H0Z" transform="translate(1096.35 2213.335)" fill="#206897"/>
      <path id="Trazado_202931" data-name="Trazado 202931" d="M0,0H29.652V4.168H0Z" transform="translate(1096.351 2203.607)" fill="#206897"/>
      <path id="Trazado_202932" data-name="Trazado 202932" d="M0,0H29.652V4.163H0Z" transform="translate(1096.351 2194.287)" fill="#206897"/>
      <path id="Trazado_202933" data-name="Trazado 202933" d="M0,0H29.652V4.168H0Z" transform="translate(1096.351 2184.559)" fill="#206897"/>
      <path id="Trazado_202934" data-name="Trazado 202934" d="M0,0H29.652V4.168H0Z" transform="translate(1096.351 2175.15)" fill="#206897"/>
      <path id="Trazado_202666" data-name="Trazado 202666" d="M730.981,390.232l17.341,16.8H730.981Z" transform="translate(390.98 1755)" fill="#206897"/>
      <path id="Trazado_202935" data-name="Trazado 202935" d="M0,0H29.652V4.172H0Z" transform="translate(1051.828 2252.133)" fill="#206897"/>
      <path id="Trazado_202936" data-name="Trazado 202936" d="M0,0H29.652V4.163H0Z" transform="translate(1051.828 2242.729)" fill="#206897"/>
      <path id="Trazado_202937" data-name="Trazado 202937" d="M0,0H29.652V4.168H0Z" transform="translate(1051.828 2232.357)" fill="#206897"/>
      <path id="Trazado_202938" data-name="Trazado 202938" d="M0,0H29.652V4.168H0Z" transform="translate(1051.828 2222.636)" fill="#206897"/>
      <path id="Trazado_202939" data-name="Trazado 202939" d="M0,0H29.652V4.158H0Z" transform="translate(1051.828 2213.232)" fill="#206897"/>
      <path id="Trazado_202940" data-name="Trazado 202940" d="M0,0H29.652V4.168H0Z" transform="translate(1051.828 2203.499)" fill="#206897"/>
      <path id="Trazado_202941" data-name="Trazado 202941" d="M0,0H29.652V4.163H0Z" transform="translate(1051.828 2194.179)" fill="#206897"/>
      <path id="Trazado_202942" data-name="Trazado 202942" d="M0,0H29.652V4.168H0Z" transform="translate(1051.828 2184.451)" fill="#206897"/>
      <path id="Trazado_202943" data-name="Trazado 202943" d="M0,0H29.652V4.168H0Z" transform="translate(1051.828 2175.042)" fill="#206897"/>
      <path id="Trazado_202667" data-name="Trazado 202667" d="M647.984,386.7H564.241l-3.642,3.53h82.992V513.3H543.253V407.028l-4.388,4.247V516.832H647.984Z" transform="translate(390.98 1755)" fill="#206897"/>
      <path id="Trazado_202668" data-name="Trazado 202668" d="M560.6,390.226l-17.346,16.8H560.6Z" transform="translate(390.98 1755)" fill="#206897"/>
      <path id="Trazado_202944" data-name="Trazado 202944" d="M0,0H69.646V4.168H0Z" transform="translate(950.642 2252.719)" fill="#206897"/>
      <path id="Trazado_202945" data-name="Trazado 202945" d="M0,0H69.646V4.167H0Z" transform="translate(950.642 2243.311)" fill="#206897"/>
      <path id="Trazado_202946" data-name="Trazado 202946" d="M0,0H69.646V4.167H0Z" transform="translate(950.642 2232.945)" fill="#206897"/>
      <path id="Trazado_202947" data-name="Trazado 202947" d="M0,0H69.646V4.167H0Z" transform="translate(950.642 2223.222)" fill="#206897"/>
      <path id="Trazado_202948" data-name="Trazado 202948" d="M0,0H69.646V4.163H0Z" transform="translate(950.642 2213.813)" fill="#206897"/>
      <path id="Trazado_202949" data-name="Trazado 202949" d="M0,0H69.646V4.168H0Z" transform="translate(950.642 2204.085)" fill="#206897"/>
      <path id="Trazado_202950" data-name="Trazado 202950" d="M0,0H69.646V4.163H0Z" transform="translate(950.642 2194.766)" fill="#206897"/>
      <path id="Trazado_202951" data-name="Trazado 202951" d="M0,0H69.646V4.167H0Z" transform="translate(950.642 2185.037)" fill="#206897"/>
      <path id="Trazado_202952" data-name="Trazado 202952" d="M0,0H69.646V4.168H0Z" transform="translate(950.642 2175.628)" fill="#206897"/>
      <path id="Trazado_202669" data-name="Trazado 202669" d="M657.626,83h83.742l3.643,3.53h-83V209.6H762.357V103.328l4.388,4.247V213.131H657.626Z" transform="translate(390.98 1755)" fill="#206897"/>
      <path id="Trazado_202953" data-name="Trazado 202953" d="M0,0H21.138V4.168H0Z" transform="translate(1122.696 1947.105)" fill="#206897"/>
      <path id="Trazado_202954" data-name="Trazado 202954" d="M0,0H21.138V4.168H0Z" transform="translate(1122.696 1937.696)" fill="#206897"/>
      <path id="Trazado_202955" data-name="Trazado 202955" d="M0,0H21.138V4.168H0Z" transform="translate(1122.696 1927.331)" fill="#206897"/>
      <path id="Trazado_202956" data-name="Trazado 202956" d="M0,0H21.138V4.168H0Z" transform="translate(1122.696 1917.608)" fill="#206897"/>
      <path id="Trazado_202957" data-name="Trazado 202957" d="M0,0H21.138V4.163H0Z" transform="translate(1122.696 1908.2)" fill="#206897"/>
      <path id="Trazado_202958" data-name="Trazado 202958" d="M0,0H21.138V4.168H0Z" transform="translate(1122.696 1898.471)" fill="#206897"/>
      <path id="Trazado_202959" data-name="Trazado 202959" d="M0,0H21.138V4.163H0Z" transform="translate(1122.696 1889.152)" fill="#206897"/>
      <path id="Trazado_202960" data-name="Trazado 202960" d="M0,0H21.138V4.168H0Z" transform="translate(1122.696 1879.424)" fill="#206897"/>
      <path id="Trazado_202961" data-name="Trazado 202961" d="M0,0H21.138V4.168H0Z" transform="translate(1122.696 1870.015)" fill="#206897"/>
      <path id="Trazado_202670" data-name="Trazado 202670" d="M745.011,86.526l17.346,16.8H745.011Z" transform="translate(390.98 1755)" fill="#206897"/>
      <path id="Trazado_202962" data-name="Trazado 202962" d="M0,0H21.138V4.168H0Z" transform="translate(1092.397 1947.105)" fill="#206897"/>
      <path id="Trazado_202963" data-name="Trazado 202963" d="M0,0H21.138V4.168H0Z" transform="translate(1092.397 1937.696)" fill="#206897"/>
      <path id="Trazado_202964" data-name="Trazado 202964" d="M0,0H21.138V4.168H0Z" transform="translate(1092.397 1927.331)" fill="#206897"/>
      <path id="Trazado_202965" data-name="Trazado 202965" d="M0,0H21.138V4.168H0Z" transform="translate(1092.397 1917.608)" fill="#206897"/>
      <path id="Trazado_202966" data-name="Trazado 202966" d="M0,0H21.138V4.163H0Z" transform="translate(1092.397 1908.2)" fill="#206897"/>
      <path id="Trazado_202967" data-name="Trazado 202967" d="M0,0H21.138V4.168H0Z" transform="translate(1092.397 1898.471)" fill="#206897"/>
      <path id="Trazado_202968" data-name="Trazado 202968" d="M0,0H21.138V4.163H0Z" transform="translate(1092.397 1889.152)" fill="#206897"/>
      <path id="Trazado_202969" data-name="Trazado 202969" d="M0,0H21.138V4.168H0Z" transform="translate(1092.397 1879.424)" fill="#206897"/>
      <path id="Trazado_202970" data-name="Trazado 202970" d="M0,0H21.138V4.168H0Z" transform="translate(1092.397 1870.015)" fill="#206897"/>
      <path id="Trazado_202971" data-name="Trazado 202971" d="M0,0H21.139V4.168H0Z" transform="translate(1061.39 1947.105)" fill="#206897"/>
      <path id="Trazado_202972" data-name="Trazado 202972" d="M0,0H21.139V4.168H0Z" transform="translate(1061.391 1937.696)" fill="#206897"/>
      <path id="Trazado_202973" data-name="Trazado 202973" d="M0,0H21.139V4.168H0Z" transform="translate(1061.391 1898.472)" fill="#206897"/>
      <path id="Trazado_202974" data-name="Trazado 202974" d="M0,0H21.139V4.163H0Z" transform="translate(1061.391 1889.152)" fill="#206897"/>
      <path id="Trazado_202975" data-name="Trazado 202975" d="M0,0H21.139V4.168H0Z" transform="translate(1061.39 1879.424)" fill="#206897"/>
      <path id="Trazado_202976" data-name="Trazado 202976" d="M0,0H21.139V4.168H0Z" transform="translate(1061.39 1870.015)" fill="#206897"/>
      <path id="Trazado_202977" data-name="Trazado 202977" d="M0,0H21.139V4.168H0Z" transform="translate(1061.391 1927.331)" fill="#206897"/>
      <path id="Trazado_202978" data-name="Trazado 202978" d="M0,0H21.139V4.168H0Z" transform="translate(1061.391 1917.608)" fill="#206897"/>
      <path id="Trazado_202979" data-name="Trazado 202979" d="M0,0H21.139V4.163H0Z" transform="translate(1061.391 1908.2)" fill="#206897"/>
      <path id="Trazado_202671" data-name="Trazado 202671" d="M657.6,103.684v-.361L662,107.575V213.131H552.872V83h83.742l3.644,3.53H557.264V209.6H657.6Z" transform="translate(390.98 1755)" fill="#206897"/>
      <path id="Trazado_202672" data-name="Trazado 202672" d="M640.262,103.323v-16.8l17.341,16.8Z" transform="translate(390.98 1755)" fill="#206897"/>
      <path id="Trazado_202980" data-name="Trazado 202980" d="M0,0H70.32V4.168H0Z" transform="translate(960.486 1946.664)" fill="#206897"/>
      <path id="Trazado_202981" data-name="Trazado 202981" d="M0,0H70.32V4.168H0Z" transform="translate(960.486 1936.942)" fill="#206897"/>
      <path id="Trazado_202982" data-name="Trazado 202982" d="M0,0H70.32V4.163H0Z" transform="translate(960.486 1927.064)" fill="#206897"/>
      <path id="Trazado_202983" data-name="Trazado 202983" d="M0,0H70.32V4.168H0Z" transform="translate(960.486 1916.867)" fill="#206897"/>
      <path id="Trazado_202984" data-name="Trazado 202984" d="M0,0H22.741V4.168H0Z" transform="translate(1008.065 1904.936)" fill="#206897"/>
      <path id="Trazado_202985" data-name="Trazado 202985" d="M0,0H22.741V4.167H0Z" transform="translate(1008.065 1895.214)" fill="#206897"/>
      <path id="Trazado_202986" data-name="Trazado 202986" d="M0,0H22.741V4.163H0Z" transform="translate(1008.065 1885.805)" fill="#206897"/>
      <path id="Trazado_202987" data-name="Trazado 202987" d="M0,0H22.741V4.168H0Z" transform="translate(1008.065 1876.077)" fill="#206897"/>
      <path id="Trazado_202988" data-name="Trazado 202988" d="M0,0H22.741V4.168H0Z" transform="translate(1008.065 1866.673)" fill="#206897"/>
      <path id="Trazado_202673" data-name="Trazado 202673" d="M610.714,153.635H569.506V111.293h41.208Zm-3.081-38.469H572.59v34.6h35.043Z" transform="translate(390.98 1755)" fill="#206897"/>
      <path id="Trazado_202674" data-name="Trazado 202674" d="M327.849,218.689h83.743l3.642,3.53H332.242V345.289H432.58V239.017l4.388,4.252V348.82H327.849Z" transform="translate(390.98 1755)" fill="#206897"/>
      <path id="Trazado_202675" data-name="Trazado 202675" d="M415.234,222.219l17.346,16.8H415.234Z" transform="translate(390.98 1755)" fill="#206897"/>
      <path id="Trazado_202989" data-name="Trazado 202989" d="M0,0H78.67V4.163H0Z" transform="translate(733.714 2084.777)" fill="#206897"/>
      <path id="Trazado_202990" data-name="Trazado 202990" d="M0,0H78.67V4.167H0Z" transform="translate(733.714 2075.049)" fill="#206897"/>
      <path id="Trazado_202991" data-name="Trazado 202991" d="M0,0H78.67V4.168H0Z" transform="translate(733.714 2065.64)" fill="#206897"/>
      <path id="Trazado_202676" data-name="Trazado 202676" d="M418.671,249.2H345.35v52.422h73.321Zm-75.938-2.612h78.553v57.639H342.733Z" transform="translate(390.98 1755)" fill="#206897"/>
      <path id="Trazado_202677" data-name="Trazado 202677" d="M380.2,437.377V567.508h109.12V461.956l-4.389-4.252V563.983H384.59V440.907h83l-3.647-3.53Z" transform="translate(390.98 1755)" fill="#206897"/>
      <path id="Trazado_202678" data-name="Trazado 202678" d="M467.587,440.907l17.346,16.8H467.587Z" transform="translate(390.98 1755)" fill="#206897"/>
      <path id="Trazado_202992" data-name="Trazado 202992" d="M0,0H47.105V4.168H0Z" transform="translate(815.175 2294.548)" fill="#206897"/>
      <path id="Trazado_202993" data-name="Trazado 202993" d="M0,0H47.105V4.168H0Z" transform="translate(815.175 2264.793)" fill="#206897"/>
      <path id="Trazado_202994" data-name="Trazado 202994" d="M0,0H47.105V4.168H0Z" transform="translate(815.175 2234.368)" fill="#206897"/>
      <path id="Trazado_202679" data-name="Trazado 202679" d="M397.464,541.635h15.808V525.827H397.464Zm-2.973-18.378h21.753v21.748H394.491Z" transform="translate(390.98 1755)" fill="#206897"/>
      <path id="Trazado_202680" data-name="Trazado 202680" d="M397.464,511.874h15.808V496.066H397.464Zm18.78,3.376H394.491V493.5h21.753Z" transform="translate(390.98 1755)" fill="#206897"/>
      <path id="Trazado_202681" data-name="Trazado 202681" d="M416.244,484.825H394.491V463.077h21.753Zm-18.78-3.376h15.808V465.641H397.464Z" transform="translate(390.98 1755)" fill="#206897"/>
      <path id="Trazado_202682" data-name="Trazado 202682" d="M275.5,437.377V567.508H384.614V461.956l-4.383-4.252V563.977H279.888V440.907H362.88l-3.643-3.53Z" transform="translate(390.98 1755)" fill="#206897"/>
      <path id="Trazado_202995" data-name="Trazado 202995" d="M0,0H49.422V4.167H0Z" transform="translate(708.775 2298.74)" fill="#206897"/>
      <path id="Trazado_202996" data-name="Trazado 202996" d="M0,0H49.422V4.168H0Z" transform="translate(708.775 2265.975)" fill="#206897"/>
      <path id="Trazado_202997" data-name="Trazado 202997" d="M0,0H49.426V4.167H0Z" transform="translate(707.917 2232.984)" fill="#206897"/>
      <path id="Trazado_202683" data-name="Trazado 202683" d="M380.226,457.7H362.88v-16.8Z" transform="translate(390.98 1755)" fill="#206897"/>
      <g id="Grupo_148903" data-name="Grupo 148903" transform="translate(390.98 1755)">
        <g id="Grupo_148902" data-name="Grupo 148902" clip-path="url(#clip-path)">
          <path id="Trazado_202684" data-name="Trazado 202684" d="M301.969,489.124a12.96,12.96,0,1,1-12.962,12.962,12.959,12.959,0,0,1,12.962-12.962m10.97,12.962a10.973,10.973,0,1,0-10.97,10.97,10.973,10.973,0,0,0,10.97-10.97" fill="#206897"/>
          <path id="Trazado_202685" data-name="Trazado 202685" d="M301.969,521.893a12.96,12.96,0,1,1-12.962,12.958,12.958,12.958,0,0,1,12.962-12.958m10.97,12.958a10.973,10.973,0,1,0-10.97,10.974,10.972,10.972,0,0,0,10.97-10.974" fill="#206897"/>
          <path id="Trazado_202686" data-name="Trazado 202686" d="M301.111,456.138A12.96,12.96,0,1,1,288.153,469.1a12.961,12.961,0,0,1,12.958-12.958M312.085,469.1a10.972,10.972,0,1,0-10.974,10.975A10.973,10.973,0,0,0,312.085,469.1" fill="#206897"/>
          <path id="Trazado_202687" data-name="Trazado 202687" d="M309.793,497.787l-9.6,10.637-.005.005-6.047-5.757,2.1-2.212,3.789,3.6,7.482-8.321Z" fill="#206897"/>
          <path id="Trazado_202688" data-name="Trazado 202688" d="M309.793,530.552l-9.6,10.637-.005.005-6.047-5.752,2.1-2.213,3.789,3.6,7.482-8.321Z" fill="#206897"/>
          <path id="Trazado_202689" data-name="Trazado 202689" d="M308.935,464.8l-9.6,10.637-.005.01-6.047-5.757,2.1-2.213,3.793,3.6,7.478-8.321Z" fill="#206897"/>
          <path id="Trazado_202690" data-name="Trazado 202690" d="M432.575,126.605V20.332l4.393,4.252V130.135H327.849V0h83.737l3.648,3.53h-83V126.605Z" fill="#206897"/>
          <rect id="Rectángulo_297583" data-name="Rectángulo 297583" width="73.555" height="30.599" transform="translate(345.804 26.487)" fill="#206897"/>
          <rect id="Rectángulo_297584" data-name="Rectángulo 297584" width="16.183" height="4.172" transform="translate(403.069 105.95)" fill="#206897"/>
          <rect id="Rectángulo_297585" data-name="Rectángulo 297585" width="16.183" height="4.163" transform="translate(403.069 96.546)" fill="#206897"/>
          <rect id="Rectángulo_297586" data-name="Rectángulo 297586" width="16.183" height="4.172" transform="translate(403.069 86.176)" fill="#206897"/>
          <rect id="Rectángulo_297587" data-name="Rectángulo 297587" width="16.183" height="4.172" transform="translate(403.069 76.453)" fill="#206897"/>
          <rect id="Rectángulo_297588" data-name="Rectángulo 297588" width="16.183" height="4.163" transform="translate(403.069 67.048)" fill="#206897"/>
          <path id="Trazado_202691" data-name="Trazado 202691" d="M432.575,20.332H415.238V3.53Z" fill="#206897"/>
          <rect id="Rectángulo_297589" data-name="Rectángulo 297589" width="51.372" height="4.168" transform="translate(345.804 105.954)" fill="#206897"/>
          <rect id="Rectángulo_297590" data-name="Rectángulo 297590" width="51.372" height="4.168" transform="translate(345.804 96.545)" fill="#206897"/>
          <rect id="Rectángulo_297591" data-name="Rectángulo 297591" width="51.372" height="4.168" transform="translate(345.804 86.18)" fill="#206897"/>
          <rect id="Rectángulo_297592" data-name="Rectángulo 297592" width="51.372" height="4.168" transform="translate(345.804 76.457)" fill="#206897"/>
          <rect id="Rectángulo_297593" data-name="Rectángulo 297593" width="51.372" height="4.163" transform="translate(345.804 67.048)" fill="#206897"/>
          <path id="Trazado_202692" data-name="Trazado 202692" d="M87.385,118.811l17.341,16.8H87.385Z" fill="#206897"/>
          <rect id="Rectángulo_297594" data-name="Rectángulo 297594" width="15.621" height="12.719" transform="translate(78.159 176.455)" fill="#206897"/>
          <rect id="Rectángulo_297595" data-name="Rectángulo 297595" width="15.625" height="12.719" transform="translate(77.808 158.073)" fill="#206897"/>
          <rect id="Rectángulo_297596" data-name="Rectángulo 297596" width="15.625" height="12.714" transform="translate(77.981 195.179)" fill="#206897"/>
          <rect id="Rectángulo_297597" data-name="Rectángulo 297597" width="15.625" height="12.719" transform="translate(56.805 176.455)" fill="#206897"/>
          <rect id="Rectángulo_297598" data-name="Rectángulo 297598" width="15.625" height="12.714" transform="translate(56.632 195.179)" fill="#206897"/>
          <rect id="Rectángulo_297599" data-name="Rectángulo 297599" width="15.621" height="12.719" transform="translate(56.514 213.556)" fill="#206897"/>
          <rect id="Rectángulo_297600" data-name="Rectángulo 297600" width="15.621" height="12.719" transform="translate(56.458 158.073)" fill="#206897"/>
          <rect id="Rectángulo_297601" data-name="Rectángulo 297601" width="15.625" height="12.719" transform="translate(35.324 176.455)" fill="#206897"/>
          <rect id="Rectángulo_297602" data-name="Rectángulo 297602" width="15.621" height="12.714" transform="translate(35.151 195.179)" fill="#206897"/>
          <rect id="Rectángulo_297603" data-name="Rectángulo 297603" width="15.62" height="12.719" transform="translate(35.034 213.556)" fill="#206897"/>
          <rect id="Rectángulo_297604" data-name="Rectángulo 297604" width="15.625" height="12.719" transform="translate(34.973 158.073)" fill="#206897"/>
          <path id="Trazado_202693" data-name="Trazado 202693" d="M0,115.281H83.738l3.647,3.53h-83V241.886H104.726V135.608l4.393,4.252V245.416H0Z" fill="#206897"/>
          <rect id="Rectángulo_297605" data-name="Rectángulo 297605" width="21.138" height="4.168" transform="translate(14.046 143.47)" fill="#206897"/>
          <rect id="Rectángulo_297606" data-name="Rectángulo 297606" width="15.625" height="12.719" transform="translate(14.397 176.455)" fill="#206897"/>
          <rect id="Rectángulo_297607" data-name="Rectángulo 297607" width="15.621" height="12.714" transform="translate(14.223 195.179)" fill="#206897"/>
          <rect id="Rectángulo_297608" data-name="Rectángulo 297608" width="15.625" height="12.719" transform="translate(14.102 213.556)" fill="#206897"/>
          <rect id="Rectángulo_297609" data-name="Rectángulo 297609" width="15.625" height="12.719" transform="translate(14.046 158.073)" fill="#206897"/>
          <rect id="Rectángulo_297610" data-name="Rectángulo 297610" width="21.138" height="4.168" transform="translate(14.045 134.061)" fill="#206897"/>
          <path id="Trazado_202694" data-name="Trazado 202694" d="M104.816,115.283h83.738l3.642,3.53H109.2V241.884H209.542V135.61l4.388,4.252V245.413H104.816Z" fill="#206897"/>
          <path id="Trazado_202695" data-name="Trazado 202695" d="M192.2,118.813l17.346,16.8H192.2Z" fill="#206897"/>
          <rect id="Rectángulo_297611" data-name="Rectángulo 297611" width="17.74" height="14.781" transform="translate(172.403 148.822)" fill="#206897"/>
          <rect id="Rectángulo_297612" data-name="Rectángulo 297612" width="17.74" height="14.781" transform="translate(149.882 148.822)" fill="#206897"/>
          <path id="Trazado_202696" data-name="Trazado 202696" d="M190.143,208.444H172.4v14.782h17.74Zm0-37.495H172.4v14.782h17.74Zm-45.005,37.659H127.4v14.786h17.739Zm0-18.911H127.4v14.781h17.739Zm0-18.584H127.4v14.781h17.739Zm4.744,52.113h17.74V208.444h-17.74Zm17.74-33.694h-17.74v14.781h17.74Zm-17.74-3.8h17.74V170.949h-17.74Zm-26.708-18.463h70.958v59.548H123.174Zm66.969,22.264H172.4v14.781h17.74Z" fill="#206897"/>
          <path id="Trazado_202697" data-name="Trazado 202697" d="M87.423,325.622H4.431V448.7H104.769V342.419l4.388,4.253V452.227H.042V322.092H83.781Z" fill="#206897"/>
          <path id="Trazado_202698" data-name="Trazado 202698" d="M87.423,325.622l17.346,16.8H87.423Z" fill="#206897"/>
          <rect id="Rectángulo_297613" data-name="Rectángulo 297613" width="29.652" height="4.168" transform="translate(60.406 423.222)" fill="#206897"/>
          <rect id="Rectángulo_297614" data-name="Rectángulo 297614" width="29.652" height="4.168" transform="translate(60.406 412.857)" fill="#206897"/>
          <rect id="Rectángulo_297615" data-name="Rectángulo 297615" width="29.652" height="4.168" transform="translate(60.406 403.134)" fill="#206897"/>
          <rect id="Rectángulo_297616" data-name="Rectángulo 297616" width="29.652" height="4.163" transform="translate(60.406 393.725)" fill="#206897"/>
          <rect id="Rectángulo_297617" data-name="Rectángulo 297617" width="29.652" height="35.38" transform="translate(60.406 349.433)" fill="#206897"/>
          <rect id="Rectángulo_297618" data-name="Rectángulo 297618" width="29.652" height="4.168" transform="translate(15.888 423.119)" fill="#206897"/>
          <rect id="Rectángulo_297619" data-name="Rectángulo 297619" width="29.652" height="4.168" transform="translate(15.888 412.754)" fill="#206897"/>
          <rect id="Rectángulo_297620" data-name="Rectángulo 297620" width="29.652" height="4.168" transform="translate(15.888 403.031)" fill="#206897"/>
          <rect id="Rectángulo_297621" data-name="Rectángulo 297621" width="29.652" height="4.163" transform="translate(15.888 393.622)" fill="#206897"/>
          <rect id="Rectángulo_297622" data-name="Rectángulo 297622" width="29.652" height="35.38" transform="translate(15.888 349.433)" fill="#206897"/>
          <path id="Trazado_202699" data-name="Trazado 202699" d="M213.888,346.671V452.227H104.769V322.092h83.738l3.647,3.53h-83V448.7H209.495V342.419Z" fill="#206897"/>
          <path id="Trazado_202700" data-name="Trazado 202700" d="M209.495,342.419H192.154v-16.8Z" fill="#206897"/>
          <rect id="Rectángulo_297623" data-name="Rectángulo 297623" width="13.515" height="4.168" transform="translate(181.015 352.541)" fill="#206897"/>
          <rect id="Rectángulo_297624" data-name="Rectángulo 297624" width="13.515" height="4.167" transform="translate(181.015 361.95)" fill="#206897"/>
          <rect id="Rectángulo_297625" data-name="Rectángulo 297625" width="13.515" height="4.163" transform="translate(181.015 371.677)" fill="#206897"/>
          <rect id="Rectángulo_297626" data-name="Rectángulo 297626" width="13.515" height="4.168" transform="translate(181.015 380.997)" fill="#206897"/>
          <rect id="Rectángulo_297627" data-name="Rectángulo 297627" width="13.515" height="4.163" transform="translate(181.015 390.725)" fill="#206897"/>
          <rect id="Rectángulo_297628" data-name="Rectángulo 297628" width="13.515" height="4.167" transform="translate(181.015 400.134)" fill="#206897"/>
          <rect id="Rectángulo_297629" data-name="Rectángulo 297629" width="13.515" height="4.167" transform="translate(181.015 409.857)" fill="#206897"/>
          <rect id="Rectángulo_297630" data-name="Rectángulo 297630" width="13.515" height="4.167" transform="translate(181.015 420.223)" fill="#206897"/>
          <rect id="Rectángulo_297631" data-name="Rectángulo 297631" width="13.515" height="4.168" transform="translate(181.015 429.631)" fill="#206897"/>
          <rect id="Rectángulo_297632" data-name="Rectángulo 297632" width="13.52" height="4.168" transform="translate(160.735 429.631)" fill="#206897"/>
          <rect id="Rectángulo_297633" data-name="Rectángulo 297633" width="13.52" height="4.167" transform="translate(160.735 420.223)" fill="#206897"/>
          <rect id="Rectángulo_297634" data-name="Rectángulo 297634" width="13.52" height="4.167" transform="translate(160.735 409.857)" fill="#206897"/>
          <rect id="Rectángulo_297635" data-name="Rectángulo 297635" width="13.52" height="4.167" transform="translate(160.735 400.134)" fill="#206897"/>
          <rect id="Rectángulo_297636" data-name="Rectángulo 297636" width="13.52" height="4.163" transform="translate(160.735 390.725)" fill="#206897"/>
          <rect id="Rectángulo_297637" data-name="Rectángulo 297637" width="13.52" height="4.168" transform="translate(160.735 380.997)" fill="#206897"/>
          <rect id="Rectángulo_297638" data-name="Rectángulo 297638" width="13.52" height="4.163" transform="translate(160.735 371.677)" fill="#206897"/>
          <rect id="Rectángulo_297639" data-name="Rectángulo 297639" width="13.52" height="4.167" transform="translate(160.735 361.95)" fill="#206897"/>
          <rect id="Rectángulo_297640" data-name="Rectángulo 297640" width="13.52" height="4.168" transform="translate(160.735 352.541)" fill="#206897"/>
          <rect id="Rectángulo_297641" data-name="Rectángulo 297641" width="13.52" height="4.167" transform="translate(140.576 429.992)" fill="#206897"/>
          <rect id="Rectángulo_297642" data-name="Rectángulo 297642" width="13.52" height="4.168" transform="translate(140.576 420.583)" fill="#206897"/>
          <rect id="Rectángulo_297643" data-name="Rectángulo 297643" width="13.52" height="4.168" transform="translate(140.576 410.218)" fill="#206897"/>
          <rect id="Rectángulo_297644" data-name="Rectángulo 297644" width="13.52" height="4.168" transform="translate(140.576 400.494)" fill="#206897"/>
          <rect id="Rectángulo_297645" data-name="Rectángulo 297645" width="13.52" height="4.163" transform="translate(140.576 391.086)" fill="#206897"/>
          <rect id="Rectángulo_297646" data-name="Rectángulo 297646" width="13.52" height="4.167" transform="translate(140.576 381.359)" fill="#206897"/>
          <rect id="Rectángulo_297647" data-name="Rectángulo 297647" width="13.52" height="4.163" transform="translate(140.576 372.039)" fill="#206897"/>
          <rect id="Rectángulo_297648" data-name="Rectángulo 297648" width="13.52" height="4.168" transform="translate(140.576 362.31)" fill="#206897"/>
          <rect id="Rectángulo_297649" data-name="Rectángulo 297649" width="13.52" height="4.167" transform="translate(140.576 352.902)" fill="#206897"/>
          <rect id="Rectángulo_297650" data-name="Rectángulo 297650" width="13.52" height="4.167" transform="translate(120.301 429.992)" fill="#206897"/>
          <rect id="Rectángulo_297651" data-name="Rectángulo 297651" width="13.52" height="4.168" transform="translate(120.301 420.583)" fill="#206897"/>
          <rect id="Rectángulo_297652" data-name="Rectángulo 297652" width="13.52" height="4.168" transform="translate(120.301 410.218)" fill="#206897"/>
          <rect id="Rectángulo_297653" data-name="Rectángulo 297653" width="13.52" height="4.168" transform="translate(120.301 400.494)" fill="#206897"/>
          <rect id="Rectángulo_297654" data-name="Rectángulo 297654" width="13.52" height="4.163" transform="translate(120.301 391.086)" fill="#206897"/>
          <rect id="Rectángulo_297655" data-name="Rectángulo 297655" width="13.52" height="4.167" transform="translate(120.301 381.359)" fill="#206897"/>
          <rect id="Rectángulo_297656" data-name="Rectángulo 297656" width="13.52" height="4.163" transform="translate(120.301 372.039)" fill="#206897"/>
          <rect id="Rectángulo_297657" data-name="Rectángulo 297657" width="13.52" height="4.168" transform="translate(120.301 362.31)" fill="#206897"/>
          <rect id="Rectángulo_297658" data-name="Rectángulo 297658" width="13.52" height="4.167" transform="translate(120.301 352.902)" fill="#206897"/>
          <line id="Línea_1127" data-name="Línea 1127" y1="75.944" transform="translate(382.01 142.745)" fill="none" stroke="#206897" stroke-linecap="round" stroke-linejoin="round" stroke-width="2"/>
          <path id="Trazado_202701" data-name="Trazado 202701" d="M389.416,148.361l-7.406-3.146-7.407,3.146L382.01,130.8Z" fill="#206897"/>
          <line id="Línea_1128" data-name="Línea 1128" y2="78.399" transform="translate(382.409 347.039)" fill="none" stroke="#206897" stroke-linecap="round" stroke-linejoin="round" stroke-width="2"/>
          <path id="Trazado_202702" data-name="Trazado 202702" d="M375,419.82l7.406,3.146,7.407-3.146-7.407,17.557Z" fill="#206897"/>
          <line id="Línea_1129" data-name="Línea 1129" x2="108.462" y2="108.462" transform="translate(221.349 166.946)" fill="none" stroke="#206897" stroke-linecap="round" stroke-linejoin="round" stroke-width="2"/>
          <path id="Trazado_202703" data-name="Trazado 202703" d="M220.084,176.155l3.012-7.462,7.462-3.012L212.907,158.5Z" fill="#206897"/>
          <line id="Línea_1130" data-name="Línea 1130" x1="108.035" y2="108.035" transform="translate(221.776 283.754)" fill="none" stroke="#206897" stroke-linecap="round" stroke-linejoin="round" stroke-width="2"/>
          <path id="Trazado_202704" data-name="Trazado 202704" d="M220.51,382.581l3.012,7.462,7.462,3.012-17.651,7.177Z" fill="#206897"/>
          <line id="Línea_1131" data-name="Línea 1131" y1="108.462" x2="108.462" transform="translate(435.022 166.945)" fill="none" stroke="#206897" stroke-linecap="round" stroke-linejoin="round" stroke-width="2"/>
          <path id="Trazado_202705" data-name="Trazado 202705" d="M544.749,176.155l-3.012-7.462-7.462-3.012,17.651-7.177Z" fill="#206897"/>
          <line id="Línea_1132" data-name="Línea 1132" x2="108.035" y2="108.035" transform="translate(435.022 283.754)" fill="none" stroke="#206897" stroke-linecap="round" stroke-linejoin="round" stroke-width="2"/>
          <path id="Trazado_202706" data-name="Trazado 202706" d="M533.848,393.055l7.462-3.012,3.012-7.462,7.177,17.651Z" fill="#206897"/>
        </g>
      </g>
      <path id="Trazado_203001" data-name="Trazado 203001" d="M56.188,15H53.453V3.625h2.734Zm4.2-8.453.086.992a2.867,2.867,0,0,1,2.414-1.148,2.412,2.412,0,0,1,1.973.789,3.757,3.757,0,0,1,.676,2.375V15H62.9V9.664a1.426,1.426,0,0,0-.258-.941,1.193,1.193,0,0,0-.937-.3,1.256,1.256,0,0,0-1.148.609V15H57.922V6.547ZM67.578,15V8.375H66.352V6.547h1.227V5.875a2.921,2.921,0,0,1,.852-2.242,3.364,3.364,0,0,1,2.391-.8A5.235,5.235,0,0,1,72.055,3l.008,1.938a2.4,2.4,0,0,0-.648-.07q-1.2,0-1.2,1.031v.648h1.648V8.375H70.219V15Zm4.883-4.3a4.989,4.989,0,0,1,.492-2.254,3.52,3.52,0,0,1,1.414-1.52,4.259,4.259,0,0,1,2.164-.531,3.887,3.887,0,0,1,2.992,1.176,4.512,4.512,0,0,1,1.094,3.2v.094A4.378,4.378,0,0,1,79.52,14a3.9,3.9,0,0,1-2.973,1.16,3.942,3.942,0,0,1-2.9-1.082,4.232,4.232,0,0,1-1.18-2.934Zm2.633.164a3.145,3.145,0,0,0,.367,1.719,1.223,1.223,0,0,0,1.086.547q1.406,0,1.438-2.164V10.7q0-2.273-1.453-2.273-1.32,0-1.43,1.961Zm11.8-1.93-.867-.062a1.558,1.558,0,0,0-1.594.781V15H81.8V6.547h2.469l.086,1.086A2.039,2.039,0,0,1,86.2,6.391a2.567,2.567,0,0,1,.734.094Zm3.438-2.383.086.992a2.906,2.906,0,0,1,2.414-1.148,2.14,2.14,0,0,1,2.164,1.273,2.813,2.813,0,0,1,2.484-1.273q2.57,0,2.641,3.109V15H97.477V9.664a1.611,1.611,0,0,0-.219-.945.931.931,0,0,0-.8-.3,1.247,1.247,0,0,0-1.164.7l.008.109V15H92.664V9.68a1.694,1.694,0,0,0-.211-.961.928.928,0,0,0-.8-.3,1.263,1.263,0,0,0-1.156.7V15H87.859V6.547Zm15.383,8.609A4.345,4.345,0,0,1,102.563,14a4.006,4.006,0,0,1-1.2-3.02v-.219a5.191,5.191,0,0,1,.48-2.289,3.516,3.516,0,0,1,1.4-1.535,4.233,4.233,0,0,1,2.188-.543A3.659,3.659,0,0,1,108.242,7.5a4.344,4.344,0,0,1,1.031,3.082V11.6h-5.234a1.9,1.9,0,0,0,.617,1.117,1.836,1.836,0,0,0,1.234.406,2.366,2.366,0,0,0,1.953-.875l1.2,1.422a3.363,3.363,0,0,1-1.395,1.082A4.713,4.713,0,0,1,105.711,15.156Zm-.3-6.734q-1.156,0-1.375,1.531H106.7v-.2a1.3,1.3,0,0,0-.32-.98A1.275,1.275,0,0,0,105.414,8.422Z" transform="translate(693 2021.263)" fill="#12263f"/>
      <path id="Trazado_203004" data-name="Trazado 203004" d="M55.988,11.141V15H53.246V3.625h4.539a5.287,5.287,0,0,1,2.309.48,3.621,3.621,0,0,1,1.555,1.367A3.734,3.734,0,0,1,62.2,7.484a3.291,3.291,0,0,1-1.191,2.66,4.943,4.943,0,0,1-3.27,1Zm0-2.117h1.8A1.7,1.7,0,0,0,59,8.625,1.48,1.48,0,0,0,59.418,7.5a1.83,1.83,0,0,0-.43-1.273,1.522,1.522,0,0,0-1.172-.484H55.988ZM63.105,10.7A4.989,4.989,0,0,1,63.6,8.441a3.52,3.52,0,0,1,1.414-1.52,4.259,4.259,0,0,1,2.164-.531,3.887,3.887,0,0,1,2.992,1.176,4.512,4.512,0,0,1,1.094,3.2v.094A4.378,4.378,0,0,1,70.164,14a3.9,3.9,0,0,1-2.973,1.16,3.942,3.942,0,0,1-2.9-1.082,4.232,4.232,0,0,1-1.18-2.934Zm2.633.164a3.145,3.145,0,0,0,.367,1.719,1.223,1.223,0,0,0,1.086.547q1.406,0,1.438-2.164V10.7q0-2.273-1.453-2.273-1.32,0-1.43,1.961Zm11.8-1.93-.867-.062a1.558,1.558,0,0,0-1.594.781V15H72.441V6.547H74.91L75,7.633a2.039,2.039,0,0,1,1.852-1.242,2.567,2.567,0,0,1,.734.094Zm4.406-4.484v2.1h1.391V8.375H81.941v3.867a.987.987,0,0,0,.172.664.922.922,0,0,0,.68.188,3.862,3.862,0,0,0,.656-.047V14.93a4.859,4.859,0,0,1-1.484.227,2.758,2.758,0,0,1-2.008-.641,2.626,2.626,0,0,1-.648-1.945v-4.2H78.23V6.547h1.078v-2.1ZM89.129,15a2.973,2.973,0,0,1-.25-.758,2.448,2.448,0,0,1-2.031.914,3,3,0,0,1-2.031-.723,2.3,2.3,0,0,1-.836-1.816A2.364,2.364,0,0,1,85,10.539a5.174,5.174,0,0,1,2.953-.7h.813V9.388q0-1.17-1.008-1.17a.824.824,0,0,0-.937.926H84.184a2.36,2.36,0,0,1,1.043-1.99,4.383,4.383,0,0,1,2.66-.765,3.843,3.843,0,0,1,2.555.789A2.743,2.743,0,0,1,91.4,9.344v3.742a3.832,3.832,0,0,0,.359,1.781V15ZM87.48,13.281a1.469,1.469,0,0,0,.816-.211,1.322,1.322,0,0,0,.465-.477V11.242H88q-1.375,0-1.375,1.234a.754.754,0,0,0,.242.582A.876.876,0,0,0,87.48,13.281Zm5.047-2.57a5.164,5.164,0,0,1,.867-3.164,2.854,2.854,0,0,1,2.422-1.156,2.428,2.428,0,0,1,1.906.891V3h2.641V15H98l-.133-.906A2.493,2.493,0,0,1,95.8,15.156,2.849,2.849,0,0,1,93.41,14,5.327,5.327,0,0,1,92.527,10.711Zm2.633.164q0,2.25,1.313,2.25a1.3,1.3,0,0,0,1.25-.734V9.172a1.261,1.261,0,0,0-1.234-.75q-1.219,0-1.32,1.969ZM106.621,15a2.973,2.973,0,0,1-.25-.758,2.448,2.448,0,0,1-2.031.914,3,3,0,0,1-2.031-.723,2.3,2.3,0,0,1-.836-1.816,2.364,2.364,0,0,1,1.016-2.078,5.174,5.174,0,0,1,2.953-.7h.813V9.388q0-1.17-1.008-1.17a.824.824,0,0,0-.937.926h-2.633a2.36,2.36,0,0,1,1.043-1.99,4.383,4.383,0,0,1,2.66-.765,3.843,3.843,0,0,1,2.555.789,2.743,2.743,0,0,1,.961,2.164v3.742a3.832,3.832,0,0,0,.359,1.781V15Zm-1.648-1.719a1.469,1.469,0,0,0,.816-.211,1.322,1.322,0,0,0,.465-.477V11.242h-.766q-1.375,0-1.375,1.234a.754.754,0,0,0,.242.582A.876.876,0,0,0,104.973,13.281Z" transform="translate(694 1788.263)" fill="#fff"/>
      <path id="Trazado_203002" data-name="Trazado 203002" d="M61.641,12.875H57.883L57.227,15H54.3L58.469,3.625h2.578L65.25,15H62.3Zm-3.1-2.117h2.445L59.758,6.813ZM68,6.547l.086.992A2.867,2.867,0,0,1,70.5,6.391a2.412,2.412,0,0,1,1.973.789,3.757,3.757,0,0,1,.676,2.375V15H70.508V9.664a1.426,1.426,0,0,0-.258-.941,1.193,1.193,0,0,0-.937-.3,1.256,1.256,0,0,0-1.148.609V15H65.531V6.547Zm10.7,8.609A4.345,4.345,0,0,1,75.547,14a4.006,4.006,0,0,1-1.2-3.02v-.219a5.191,5.191,0,0,1,.48-2.289,3.516,3.516,0,0,1,1.4-1.535,4.233,4.233,0,0,1,2.188-.543A3.659,3.659,0,0,1,81.227,7.5a4.344,4.344,0,0,1,1.031,3.082V11.6H77.023a1.9,1.9,0,0,0,.617,1.117,1.836,1.836,0,0,0,1.234.406,2.366,2.366,0,0,0,1.953-.875l1.2,1.422a3.363,3.363,0,0,1-1.395,1.082A4.713,4.713,0,0,1,78.7,15.156Zm-.3-6.734q-1.156,0-1.375,1.531H79.68v-.2a1.3,1.3,0,0,0-.32-.98A1.275,1.275,0,0,0,78.4,8.422Zm8.344.453,1.227-2.328H90.7l-2.227,4.117L90.813,15h-2.75l-1.328-2.5L85.43,15H82.664l2.344-4.336L82.789,6.547h2.766Zm4.164,1.82A4.989,4.989,0,0,1,91.4,8.441a3.52,3.52,0,0,1,1.414-1.52,4.259,4.259,0,0,1,2.164-.531,3.887,3.887,0,0,1,2.992,1.176,4.512,4.512,0,0,1,1.094,3.2v.094A4.378,4.378,0,0,1,97.965,14a3.9,3.9,0,0,1-2.973,1.16,3.942,3.942,0,0,1-2.9-1.082,4.232,4.232,0,0,1-1.18-2.934Zm2.633.164a3.145,3.145,0,0,0,.367,1.719,1.223,1.223,0,0,0,1.086.547q1.406,0,1.438-2.164V10.7q0-2.273-1.453-2.273-1.32,0-1.43,1.961Zm11.109,1.766a.608.608,0,0,0-.352-.539,5.348,5.348,0,0,0-1.336-.422,6.092,6.092,0,0,1-1.625-.574,2.722,2.722,0,0,1-.977-.863,2.061,2.061,0,0,1-.336-1.164,2.336,2.336,0,0,1,.961-1.918,3.958,3.958,0,0,1,2.516-.754,4.386,4.386,0,0,1,2.688.758A2.37,2.37,0,0,1,107.2,9.141h-2.641q0-1.016-1.07-1.016a1.061,1.061,0,0,0-.7.23.714.714,0,0,0-.281.574.655.655,0,0,0,.344.57,3.248,3.248,0,0,0,1.1.359,9.486,9.486,0,0,1,1.324.336,2.406,2.406,0,0,1,1.906,2.352,2.214,2.214,0,0,1-1.027,1.883,4.505,4.505,0,0,1-2.66.727,4.6,4.6,0,0,1-1.937-.391,3.24,3.24,0,0,1-1.328-1.062,2.406,2.406,0,0,1-.477-1.414h2.461a1.017,1.017,0,0,0,.391.855,1.607,1.607,0,0,0,.961.27,1.264,1.264,0,0,0,.809-.219A.7.7,0,0,0,104.648,12.625Z" transform="translate(417 2007.263)" fill="#12263f"/>
      <path id="Trazado_203000" data-name="Trazado 203000" d="M42.828,10.977H41.344V15H38.6V3.625h4.477a5,5,0,0,1,3.164.9,3.041,3.041,0,0,1,1.141,2.536,3.693,3.693,0,0,1-.48,1.967,3.41,3.41,0,0,1-1.5,1.264l2.375,4.593V15H44.836ZM41.344,8.867h1.734a1.557,1.557,0,0,0,1.176-.411,1.59,1.59,0,0,0,.395-1.147,1.608,1.608,0,0,0-.4-1.155,1.542,1.542,0,0,0-1.172-.419H41.344Zm11.664,6.289A4.345,4.345,0,0,1,49.859,14a4.006,4.006,0,0,1-1.2-3.02v-.219a5.191,5.191,0,0,1,.48-2.289,3.516,3.516,0,0,1,1.4-1.535,4.233,4.233,0,0,1,2.188-.543A3.659,3.659,0,0,1,55.539,7.5a4.344,4.344,0,0,1,1.031,3.082V11.6H51.336a1.9,1.9,0,0,0,.617,1.117,1.836,1.836,0,0,0,1.234.406,2.366,2.366,0,0,0,1.953-.875l1.2,1.422a3.363,3.363,0,0,1-1.395,1.082A4.713,4.713,0,0,1,53.008,15.156Zm-.3-6.734q-1.156,0-1.375,1.531h2.656v-.2a1.3,1.3,0,0,0-.32-.98A1.275,1.275,0,0,0,52.711,8.422ZM58.211,15V8.375H56.984V6.547h1.227V5.875a2.921,2.921,0,0,1,.852-2.242,3.364,3.364,0,0,1,2.391-.8A5.235,5.235,0,0,1,62.688,3L62.7,4.938a2.4,2.4,0,0,0-.648-.07q-1.2,0-1.2,1.031v.648H62.5V8.375H60.852V15Zm9.117.156A4.345,4.345,0,0,1,64.18,14a4.006,4.006,0,0,1-1.2-3.02v-.219a5.191,5.191,0,0,1,.48-2.289,3.516,3.516,0,0,1,1.4-1.535,4.233,4.233,0,0,1,2.188-.543A3.659,3.659,0,0,1,69.859,7.5a4.344,4.344,0,0,1,1.031,3.082V11.6H65.656a1.9,1.9,0,0,0,.617,1.117,1.836,1.836,0,0,0,1.234.406,2.366,2.366,0,0,0,1.953-.875l1.2,1.422a3.363,3.363,0,0,1-1.395,1.082A4.713,4.713,0,0,1,67.328,15.156Zm-.3-6.734q-1.156,0-1.375,1.531h2.656v-.2a1.3,1.3,0,0,0-.32-.98A1.275,1.275,0,0,0,67.031,8.422Zm10.031.508L76.2,8.867a1.558,1.558,0,0,0-1.594.781V15H71.969V6.547h2.469l.086,1.086a2.039,2.039,0,0,1,1.852-1.242,2.567,2.567,0,0,1,.734.094Zm4.891,6.227A4.345,4.345,0,0,1,78.8,14a4.006,4.006,0,0,1-1.2-3.02v-.219a5.191,5.191,0,0,1,.48-2.289,3.516,3.516,0,0,1,1.4-1.535,4.233,4.233,0,0,1,2.188-.543A3.659,3.659,0,0,1,84.484,7.5a4.344,4.344,0,0,1,1.031,3.082V11.6H80.281a1.9,1.9,0,0,0,.617,1.117,1.836,1.836,0,0,0,1.234.406,2.366,2.366,0,0,0,1.953-.875l1.2,1.422a3.363,3.363,0,0,1-1.395,1.082A4.713,4.713,0,0,1,81.953,15.156Zm-.3-6.734q-1.156,0-1.375,1.531h2.656v-.2a1.3,1.3,0,0,0-.32-.98A1.275,1.275,0,0,0,81.656,8.422Zm7.336-1.875.086.992a2.867,2.867,0,0,1,2.414-1.148,2.412,2.412,0,0,1,1.973.789,3.757,3.757,0,0,1,.676,2.375V15H91.5V9.664a1.426,1.426,0,0,0-.258-.941,1.193,1.193,0,0,0-.937-.3,1.256,1.256,0,0,0-1.148.609V15H86.523V6.547Zm10.18,6.578a1.171,1.171,0,0,0,.859-.3,1.1,1.1,0,0,0,.3-.84H102.8a2.922,2.922,0,0,1-1,2.281,3.705,3.705,0,0,1-2.566.891A3.751,3.751,0,0,1,96.328,14a4.556,4.556,0,0,1-1.062-3.2v-.109a5.149,5.149,0,0,1,.473-2.262A3.441,3.441,0,0,1,97.1,6.918a4.065,4.065,0,0,1,2.109-.527,3.658,3.658,0,0,1,2.617.914,3.242,3.242,0,0,1,.969,2.477h-2.469a1.445,1.445,0,0,0-.32-1.008,1.106,1.106,0,0,0-.859-.352q-1.023,0-1.2,1.3a9.206,9.206,0,0,0-.055,1.141,3.616,3.616,0,0,0,.3,1.766A1.055,1.055,0,0,0,99.172,13.125ZM106.688,15h-2.641V6.547h2.641Zm-2.8-10.633a1.175,1.175,0,0,1,.406-.922,1.727,1.727,0,0,1,2.109,0,1.175,1.175,0,0,1,.406.922,1.175,1.175,0,0,1-.406.922,1.727,1.727,0,0,1-2.109,0A1.175,1.175,0,0,1,103.891,4.367ZM113.07,15a2.973,2.973,0,0,1-.25-.758,2.448,2.448,0,0,1-2.031.914,3,3,0,0,1-2.031-.723,2.3,2.3,0,0,1-.836-1.816,2.364,2.364,0,0,1,1.016-2.078,5.174,5.174,0,0,1,2.953-.7h.813V9.388q0-1.17-1.008-1.17a.824.824,0,0,0-.937.926h-2.633a2.36,2.36,0,0,1,1.043-1.99,4.383,4.383,0,0,1,2.66-.765,3.843,3.843,0,0,1,2.555.789,2.743,2.743,0,0,1,.961,2.164v3.742a3.832,3.832,0,0,0,.359,1.781V15Zm-1.648-1.719a1.469,1.469,0,0,0,.816-.211,1.322,1.322,0,0,0,.465-.477V11.242h-.766q-1.375,0-1.375,1.234a.754.754,0,0,0,.242.582A.876.876,0,0,0,111.422,13.281Zm9.8-.656a.608.608,0,0,0-.352-.539,5.348,5.348,0,0,0-1.336-.422,6.092,6.092,0,0,1-1.625-.574,2.722,2.722,0,0,1-.977-.863,2.061,2.061,0,0,1-.336-1.164,2.336,2.336,0,0,1,.961-1.918,3.958,3.958,0,0,1,2.516-.754,4.386,4.386,0,0,1,2.688.758,2.37,2.37,0,0,1,1.016,1.992h-2.641q0-1.016-1.07-1.016a1.061,1.061,0,0,0-.7.23.714.714,0,0,0-.281.574.655.655,0,0,0,.344.57,3.248,3.248,0,0,0,1.1.359,9.486,9.486,0,0,1,1.324.336,2.406,2.406,0,0,1,1.906,2.352,2.214,2.214,0,0,1-1.027,1.883,4.505,4.505,0,0,1-2.66.727,4.6,4.6,0,0,1-1.937-.391,3.24,3.24,0,0,1-1.328-1.062,2.406,2.406,0,0,1-.477-1.414H118.8a1.017,1.017,0,0,0,.391.855,1.607,1.607,0,0,0,.961.27,1.264,1.264,0,0,0,.809-.219A.7.7,0,0,0,121.227,12.625Z" transform="translate(421 2219.263)" fill="#12263f"/>
      <path id="Trazado_202998" data-name="Trazado 202998" d="M42.188,11.148a4.154,4.154,0,0,1-.641,2.1,3.866,3.866,0,0,1-1.645,1.41,5.6,5.6,0,0,1-2.418.5A4.467,4.467,0,0,1,33.953,13.7,6.032,6.032,0,0,1,32.664,9.57V9.008a6.885,6.885,0,0,1,.582-2.926,4.41,4.41,0,0,1,1.676-1.937,4.676,4.676,0,0,1,2.531-.684,4.9,4.9,0,0,1,3.328,1.09,4.306,4.306,0,0,1,1.43,3H39.477a2.037,2.037,0,0,0-.523-1.492,2.153,2.153,0,0,0-1.5-.453,1.638,1.638,0,0,0-1.5.766,4.921,4.921,0,0,0-.5,2.445v.8a5.445,5.445,0,0,0,.457,2.6,1.672,1.672,0,0,0,1.574.781,2.106,2.106,0,0,0,1.445-.445,1.89,1.89,0,0,0,.531-1.414Zm.844-.453a4.989,4.989,0,0,1,.492-2.254,3.52,3.52,0,0,1,1.414-1.52A4.259,4.259,0,0,1,47.1,6.391a3.887,3.887,0,0,1,2.992,1.176,4.512,4.512,0,0,1,1.094,3.2v.094A4.378,4.378,0,0,1,50.09,14a3.9,3.9,0,0,1-2.973,1.16,3.942,3.942,0,0,1-2.9-1.082,4.232,4.232,0,0,1-1.18-2.934Zm2.633.164a3.145,3.145,0,0,0,.367,1.719,1.223,1.223,0,0,0,1.086.547q1.406,0,1.438-2.164V10.7q0-2.273-1.453-2.273-1.32,0-1.43,1.961Zm9.1-4.312.086.992a2.867,2.867,0,0,1,2.414-1.148,2.412,2.412,0,0,1,1.973.789,3.757,3.757,0,0,1,.676,2.375V15H57.273V9.664a1.426,1.426,0,0,0-.258-.941,1.193,1.193,0,0,0-.937-.3,1.256,1.256,0,0,0-1.148.609V15H52.3V6.547Zm10.18,6.578a1.171,1.171,0,0,0,.859-.3,1.1,1.1,0,0,0,.3-.84H68.57a2.922,2.922,0,0,1-1,2.281,3.705,3.705,0,0,1-2.566.891A3.751,3.751,0,0,1,62.1,14a4.556,4.556,0,0,1-1.062-3.2v-.109a5.149,5.149,0,0,1,.473-2.262,3.441,3.441,0,0,1,1.363-1.508,4.065,4.065,0,0,1,2.109-.527A3.658,3.658,0,0,1,67.6,7.3a3.242,3.242,0,0,1,.969,2.477H66.1a1.445,1.445,0,0,0-.32-1.008,1.106,1.106,0,0,0-.859-.352q-1.023,0-1.2,1.3a9.206,9.206,0,0,0-.055,1.141,3.616,3.616,0,0,0,.3,1.766A1.055,1.055,0,0,0,64.945,13.125ZM72.461,15H69.82V3h2.641Zm6.656-.914a2.714,2.714,0,0,1-2.258,1.07,2.662,2.662,0,0,1-2.105-.809,3.4,3.4,0,0,1-.715-2.324V6.547h2.633v5.492a.946.946,0,0,0,1.055,1.086,1.376,1.376,0,0,0,1.289-.648V6.547h2.648V15H79.2Zm8.414-1.461a.608.608,0,0,0-.352-.539,5.348,5.348,0,0,0-1.336-.422,6.092,6.092,0,0,1-1.625-.574,2.722,2.722,0,0,1-.977-.863,2.061,2.061,0,0,1-.336-1.164,2.336,2.336,0,0,1,.961-1.918,3.958,3.958,0,0,1,2.516-.754,4.386,4.386,0,0,1,2.688.758,2.37,2.37,0,0,1,1.016,1.992H87.445q0-1.016-1.07-1.016a1.061,1.061,0,0,0-.7.23.714.714,0,0,0-.281.574.655.655,0,0,0,.344.57,3.248,3.248,0,0,0,1.1.359,9.486,9.486,0,0,1,1.324.336,2.406,2.406,0,0,1,1.906,2.352,2.214,2.214,0,0,1-1.027,1.883,4.505,4.505,0,0,1-2.66.727,4.6,4.6,0,0,1-1.937-.391A3.24,3.24,0,0,1,83.117,13.7a2.406,2.406,0,0,1-.477-1.414H85.1a1.017,1.017,0,0,0,.391.855,1.607,1.607,0,0,0,.961.27,1.264,1.264,0,0,0,.809-.219A.7.7,0,0,0,87.531,12.625ZM94.078,15H91.438V6.547h2.641Zm-2.8-10.633a1.175,1.175,0,0,1,.406-.922,1.727,1.727,0,0,1,2.109,0,1.175,1.175,0,0,1,.406.922,1.175,1.175,0,0,1-.406.922,1.727,1.727,0,0,1-2.109,0A1.175,1.175,0,0,1,91.281,4.367ZM95.367,10.7a4.989,4.989,0,0,1,.492-2.254,3.52,3.52,0,0,1,1.414-1.52,4.259,4.259,0,0,1,2.164-.531,3.887,3.887,0,0,1,2.992,1.176,4.512,4.512,0,0,1,1.094,3.2v.094a4.378,4.378,0,0,1-1.1,3.137,3.9,3.9,0,0,1-2.973,1.16,3.942,3.942,0,0,1-2.9-1.082,4.232,4.232,0,0,1-1.18-2.934ZM98,10.859a3.145,3.145,0,0,0,.367,1.719,1.223,1.223,0,0,0,1.086.547q1.406,0,1.438-2.164V10.7q0-2.273-1.453-2.273-1.32,0-1.43,1.961Zm9.1-4.312.086.992A2.867,2.867,0,0,1,109.6,6.391a2.412,2.412,0,0,1,1.973.789,3.757,3.757,0,0,1,.676,2.375V15h-2.641V9.664a1.426,1.426,0,0,0-.258-.941,1.193,1.193,0,0,0-.937-.3,1.256,1.256,0,0,0-1.148.609V15h-2.633V6.547Zm10.7,8.609A4.345,4.345,0,0,1,114.648,14a4.006,4.006,0,0,1-1.2-3.02v-.219a5.191,5.191,0,0,1,.48-2.289,3.516,3.516,0,0,1,1.4-1.535,4.233,4.233,0,0,1,2.188-.543A3.659,3.659,0,0,1,120.328,7.5a4.344,4.344,0,0,1,1.031,3.082V11.6h-5.234a1.9,1.9,0,0,0,.617,1.117,1.836,1.836,0,0,0,1.234.406,2.366,2.366,0,0,0,1.953-.875l1.2,1.422a3.363,3.363,0,0,1-1.395,1.082A4.713,4.713,0,0,1,117.8,15.156Zm-.3-6.734q-1.156,0-1.375,1.531h2.656v-.2a1.3,1.3,0,0,0-.32-.98A1.275,1.275,0,0,0,117.5,8.422Zm9.344,4.2a.608.608,0,0,0-.352-.539,5.348,5.348,0,0,0-1.336-.422,6.092,6.092,0,0,1-1.625-.574,2.722,2.722,0,0,1-.977-.863,2.061,2.061,0,0,1-.336-1.164,2.336,2.336,0,0,1,.961-1.918,3.958,3.958,0,0,1,2.516-.754,4.386,4.386,0,0,1,2.688.758A2.37,2.37,0,0,1,129.4,9.141h-2.641q0-1.016-1.07-1.016a1.061,1.061,0,0,0-.7.23.714.714,0,0,0-.281.574.655.655,0,0,0,.344.57,3.248,3.248,0,0,0,1.1.359,9.486,9.486,0,0,1,1.324.336,2.406,2.406,0,0,1,1.906,2.352,2.214,2.214,0,0,1-1.027,1.883,4.505,4.505,0,0,1-2.66.727,4.6,4.6,0,0,1-1.937-.391A3.24,3.24,0,0,1,122.43,13.7a2.406,2.406,0,0,1-.477-1.414h2.461a1.017,1.017,0,0,0,.391.855,1.607,1.607,0,0,0,.961.27,1.264,1.264,0,0,0,.809-.219A.7.7,0,0,0,126.844,12.625Z" transform="translate(693.5 2333.263)" fill="#12263f"/>
      <path id="Trazado_202999" data-name="Trazado 202999" d="M44.684,15V3.625h3.664a5.39,5.39,0,0,1,2.711.684,4.805,4.805,0,0,1,1.879,1.93,5.826,5.826,0,0,1,.684,2.793v.523a5.86,5.86,0,0,1-.66,2.8A4.826,4.826,0,0,1,51.1,14.293,5.271,5.271,0,0,1,48.426,15Zm2.742-9.258v7.148h.953a2.133,2.133,0,0,0,1.813-.84,4.116,4.116,0,0,0,.633-2.5V9.063a4.082,4.082,0,0,0-.633-2.484,2.17,2.17,0,0,0-1.844-.836ZM59,15.156A4.345,4.345,0,0,1,55.848,14a4.006,4.006,0,0,1-1.2-3.02v-.219a5.191,5.191,0,0,1,.48-2.289,3.516,3.516,0,0,1,1.4-1.535,4.233,4.233,0,0,1,2.188-.543A3.659,3.659,0,0,1,61.527,7.5a4.344,4.344,0,0,1,1.031,3.082V11.6H57.324a1.9,1.9,0,0,0,.617,1.117,1.836,1.836,0,0,0,1.234.406,2.366,2.366,0,0,0,1.953-.875l1.2,1.422a3.363,3.363,0,0,1-1.395,1.082A4.713,4.713,0,0,1,59,15.156Zm-.3-6.734q-1.156,0-1.375,1.531H59.98v-.2a1.3,1.3,0,0,0-.32-.98A1.275,1.275,0,0,0,58.7,8.422Zm9.344,4.2a.608.608,0,0,0-.352-.539,5.348,5.348,0,0,0-1.336-.422,6.092,6.092,0,0,1-1.625-.574,2.722,2.722,0,0,1-.977-.863,2.061,2.061,0,0,1-.336-1.164,2.336,2.336,0,0,1,.961-1.918,3.958,3.958,0,0,1,2.516-.754,4.386,4.386,0,0,1,2.688.758A2.37,2.37,0,0,1,70.6,9.141H67.957q0-1.016-1.07-1.016a1.061,1.061,0,0,0-.7.23.714.714,0,0,0-.281.574.655.655,0,0,0,.344.57,3.248,3.248,0,0,0,1.1.359,9.486,9.486,0,0,1,1.324.336,2.406,2.406,0,0,1,1.906,2.352,2.214,2.214,0,0,1-1.027,1.883,4.505,4.505,0,0,1-2.66.727,4.6,4.6,0,0,1-1.937-.391A3.24,3.24,0,0,1,63.629,13.7a2.406,2.406,0,0,1-.477-1.414h2.461a1.017,1.017,0,0,0,.391.855,1.607,1.607,0,0,0,.961.27,1.264,1.264,0,0,0,.809-.219A.7.7,0,0,0,68.043,12.625ZM76.574,15a2.973,2.973,0,0,1-.25-.758,2.448,2.448,0,0,1-2.031.914,3,3,0,0,1-2.031-.723,2.3,2.3,0,0,1-.836-1.816,2.364,2.364,0,0,1,1.016-2.078,5.174,5.174,0,0,1,2.953-.7h.813V9.388q0-1.17-1.008-1.17a.824.824,0,0,0-.937.926H71.629a2.36,2.36,0,0,1,1.043-1.99,4.383,4.383,0,0,1,2.66-.765,3.843,3.843,0,0,1,2.555.789,2.743,2.743,0,0,1,.961,2.164v3.742a3.832,3.832,0,0,0,.359,1.781V15Zm-1.648-1.719a1.469,1.469,0,0,0,.816-.211,1.322,1.322,0,0,0,.465-.477V11.242h-.766q-1.375,0-1.375,1.234a.754.754,0,0,0,.242.582A.876.876,0,0,0,74.926,13.281ZM85.418,8.93l-.867-.062a1.558,1.558,0,0,0-1.594.781V15H80.324V6.547h2.469l.086,1.086A2.039,2.039,0,0,1,84.73,6.391a2.567,2.567,0,0,1,.734.094Zm6.063,0-.867-.062a1.558,1.558,0,0,0-1.594.781V15H86.387V6.547h2.469l.086,1.086a2.039,2.039,0,0,1,1.852-1.242,2.567,2.567,0,0,1,.734.094Zm.336,1.766a4.989,4.989,0,0,1,.492-2.254,3.52,3.52,0,0,1,1.414-1.52,4.259,4.259,0,0,1,2.164-.531,3.887,3.887,0,0,1,2.992,1.176,4.512,4.512,0,0,1,1.094,3.2v.094A4.378,4.378,0,0,1,98.875,14a3.9,3.9,0,0,1-2.973,1.16A3.942,3.942,0,0,1,93,14.074a4.232,4.232,0,0,1-1.18-2.934Zm2.633.164a3.145,3.145,0,0,0,.367,1.719,1.223,1.223,0,0,0,1.086.547q1.406,0,1.438-2.164V10.7q0-2.273-1.453-2.273-1.32,0-1.43,1.961ZM103.91,15H101.27V3h2.641Zm4.4,0h-2.641V3h2.641Zm1.289-4.3a4.989,4.989,0,0,1,.492-2.254,3.52,3.52,0,0,1,1.414-1.52,4.259,4.259,0,0,1,2.164-.531,3.887,3.887,0,0,1,2.992,1.176,4.512,4.512,0,0,1,1.094,3.2v.094a4.378,4.378,0,0,1-1.1,3.137,3.9,3.9,0,0,1-2.973,1.16,3.942,3.942,0,0,1-2.9-1.082,4.232,4.232,0,0,1-1.18-2.934Zm2.633.164a3.145,3.145,0,0,0,.367,1.719,1.223,1.223,0,0,0,1.086.547q1.406,0,1.438-2.164V10.7q0-2.273-1.453-2.273-1.32,0-1.43,1.961Z" transform="translate(958 2283.263)" fill="#12263f"/>
      <path id="Trazado_203003" data-name="Trazado 203003" d="M39.2,15H36.465V3.625H39.2Zm4.2-8.453.086.992A2.867,2.867,0,0,1,45.9,6.391a2.412,2.412,0,0,1,1.973.789,3.757,3.757,0,0,1,.676,2.375V15H45.91V9.664a1.426,1.426,0,0,0-.258-.941,1.193,1.193,0,0,0-.937-.3,1.256,1.256,0,0,0-1.148.609V15H40.934V6.547Zm9.672-2.1v2.1h1.391V8.375H53.074v3.867a.987.987,0,0,0,.172.664.922.922,0,0,0,.68.188,3.862,3.862,0,0,0,.656-.047V14.93a4.859,4.859,0,0,1-1.484.227,2.758,2.758,0,0,1-2.008-.641,2.626,2.626,0,0,1-.648-1.945v-4.2H49.363V6.547h1.078v-2.1ZM60.613,8.93l-.867-.062a1.558,1.558,0,0,0-1.594.781V15H55.52V6.547h2.469l.086,1.086a2.039,2.039,0,0,1,1.852-1.242,2.567,2.567,0,0,1,.734.094Zm.336,1.766a4.989,4.989,0,0,1,.492-2.254,3.52,3.52,0,0,1,1.414-1.52,4.259,4.259,0,0,1,2.164-.531,3.887,3.887,0,0,1,2.992,1.176,4.512,4.512,0,0,1,1.094,3.2v.094A4.378,4.378,0,0,1,68.008,14a3.9,3.9,0,0,1-2.973,1.16,3.942,3.942,0,0,1-2.9-1.082,4.232,4.232,0,0,1-1.18-2.934Zm2.633.164a3.145,3.145,0,0,0,.367,1.719,1.223,1.223,0,0,0,1.086.547q1.406,0,1.438-2.164V10.7q0-2.273-1.453-2.273-1.32,0-1.43,1.961Zm6.352-.148A5.164,5.164,0,0,1,70.8,7.547a2.854,2.854,0,0,1,2.422-1.156,2.428,2.428,0,0,1,1.906.891V3H77.77V15H75.4l-.133-.906a2.493,2.493,0,0,1-2.062,1.063A2.849,2.849,0,0,1,70.816,14,5.327,5.327,0,0,1,69.934,10.711Zm2.633.164q0,2.25,1.313,2.25a1.3,1.3,0,0,0,1.25-.734V9.172a1.261,1.261,0,0,0-1.234-.75q-1.219,0-1.32,1.969ZM84.3,14.086a2.714,2.714,0,0,1-2.258,1.07,2.662,2.662,0,0,1-2.105-.809,3.4,3.4,0,0,1-.715-2.324V6.547h2.633v5.492a.946.946,0,0,0,1.055,1.086,1.376,1.376,0,0,0,1.289-.648V6.547h2.648V15H84.379Zm7.563-.961a1.171,1.171,0,0,0,.859-.3,1.1,1.1,0,0,0,.3-.84h2.469a2.922,2.922,0,0,1-1,2.281,3.705,3.705,0,0,1-2.566.891A3.751,3.751,0,0,1,89.02,14a4.556,4.556,0,0,1-1.062-3.2v-.109a5.149,5.149,0,0,1,.473-2.262,3.441,3.441,0,0,1,1.363-1.508A4.065,4.065,0,0,1,91.9,6.391,3.658,3.658,0,0,1,94.52,7.3a3.242,3.242,0,0,1,.969,2.477H93.02a1.445,1.445,0,0,0-.32-1.008,1.106,1.106,0,0,0-.859-.352q-1.023,0-1.2,1.3a9.206,9.206,0,0,0-.055,1.141,3.616,3.616,0,0,0,.3,1.766A1.055,1.055,0,0,0,91.863,13.125Zm8.313,0a1.171,1.171,0,0,0,.859-.3,1.1,1.1,0,0,0,.3-.84H103.8a2.922,2.922,0,0,1-1,2.281,3.705,3.705,0,0,1-2.566.891A3.751,3.751,0,0,1,97.332,14a4.556,4.556,0,0,1-1.062-3.2v-.109a5.149,5.149,0,0,1,.473-2.262,3.441,3.441,0,0,1,1.363-1.508,4.065,4.065,0,0,1,2.109-.527,3.658,3.658,0,0,1,2.617.914,3.242,3.242,0,0,1,.969,2.477h-2.469a1.445,1.445,0,0,0-.32-1.008,1.106,1.106,0,0,0-.859-.352q-1.023,0-1.2,1.3a9.206,9.206,0,0,0-.055,1.141,3.616,3.616,0,0,0,.3,1.766A1.055,1.055,0,0,0,100.176,13.125ZM107.691,15h-2.641V6.547h2.641Zm-2.8-10.633a1.175,1.175,0,0,1,.406-.922,1.727,1.727,0,0,1,2.109,0,1.175,1.175,0,0,1,.406.922,1.175,1.175,0,0,1-.406.922,1.727,1.727,0,0,1-2.109,0A1.175,1.175,0,0,1,104.895,4.367ZM108.98,10.7a4.989,4.989,0,0,1,.492-2.254,3.52,3.52,0,0,1,1.414-1.52,4.259,4.259,0,0,1,2.164-.531,3.887,3.887,0,0,1,2.992,1.176,4.512,4.512,0,0,1,1.094,3.2v.094a4.378,4.378,0,0,1-1.1,3.137,3.9,3.9,0,0,1-2.973,1.16,3.942,3.942,0,0,1-2.9-1.082,4.232,4.232,0,0,1-1.18-2.934Zm2.633.164a3.145,3.145,0,0,0,.367,1.719,1.223,1.223,0,0,0,1.086.547q1.406,0,1.438-2.164V10.7q0-2.273-1.453-2.273-1.32,0-1.43,1.961ZM113.41,3h2.781L114.02,5.453l-2.148,0Zm7.3,3.547.086.992a2.867,2.867,0,0,1,2.414-1.148,2.412,2.412,0,0,1,1.973.789,3.757,3.757,0,0,1,.676,2.375V15h-2.641V9.664a1.426,1.426,0,0,0-.258-.941,1.193,1.193,0,0,0-.937-.3,1.256,1.256,0,0,0-1.148.609V15h-2.633V6.547Z" transform="translate(973 1976.263)" fill="#12263f"/>
    </g>
  </g>
</svg>
